<svg xmlns="http://www.w3.org/2000/svg" xmlns:xlink="http://www.w3.org/1999/xlink" width="1161" height="715">
  <defs>
    <path id="a" d="M185-189c-5-48-123-54-124 2 14 75 158 14 163 119 3 78-121 87-175 55a71 71 0 0 1-33-46l33-7c5 56 141 63 141-1 0-78-155-14-162-118-5-82 145-84 179-34 5 7 8 16 11 25"/>
    <path id="b" d="M210-169c-67 3-38 105-44 169h-31v-121c0-29-5-50-35-48C34-165 62-65 56 0H25l-1-190h30c1 10-1 24 2 32 10-44 99-50 107 0 11-21 27-35 58-36 85-2 47 119 55 194h-31v-121c0-29-5-49-35-48"/>
    <path id="c" d="M141-36C126-15 110 5 73 4 37 3 15-17 15-53c-1-64 63-63 125-63 3-35-9-54-41-54-24 1-41 7-42 31l-33-3c5-37 33-52 76-52 45 0 72 20 72 64v82c-1 20 7 32 28 27v20c-31 9-61-2-59-35zM48-53c0 20 12 33 32 33 41-3 63-29 60-74-43 2-92-5-92 41"/>
    <path id="d" d="M114-163C36-179 61-72 57 0H25l-1-190h30c1 12-1 29 2 39 6-27 23-49 58-41v29"/>
    <path id="e" d="M59-47c-2 24 18 29 38 22v24C64 9 27 4 27-40v-127H5v-23h24l9-43h21v43h35v23H59v120"/>
    <g id="G">
      <use height="100%" width="100%" xlink:href="#a" transform="scale(.05)"/>
      <use height="100%" width="100%" xlink:href="#b" transform="translate(12) scale(.05)"/>
      <use height="100%" width="100%" xlink:href="#c" transform="translate(27) scale(.05)"/>
      <use height="100%" width="100%" xlink:href="#d" transform="translate(37) scale(.05)"/>
      <use height="100%" width="100%" xlink:href="#e" transform="translate(43) scale(.05)"/>
    </g>
    <path id="f" d="M30-248c87 1 191-15 191 75 0 78-77 80-158 76V0H30zm33 125c57 0 124 11 124-50 0-59-68-47-124-48v98"/>
    <path id="g" d="M106-169C34-169 62-67 57 0H25v-261h32l-1 103c12-21 28-36 61-36 89 0 53 116 60 194h-32v-121c2-32-8-49-39-48"/>
    <path id="h" d="M100-194c62-1 85 37 85 99 1 63-27 99-86 99S16-35 15-95c0-66 28-99 85-99zM99-20c44 1 53-31 53-75 0-43-8-75-51-75s-53 32-53 75 10 74 51 75"/>
    <path id="i" d="M117-194c89-4 53 116 60 194h-32v-121c0-31-8-49-39-48C34-167 62-67 57 0H25l-1-190h30c1 10-1 24 2 32 11-22 29-35 61-36"/>
    <path id="j" d="M100-194c63 0 86 42 84 106H49c0 40 14 67 53 68 26 1 43-12 49-29l28 8c-11 28-37 45-77 45C44 4 14-33 15-96c1-61 26-98 85-98zm52 81c6-60-76-77-97-28-3 7-6 17-6 28h103"/>
    <g id="H">
      <use height="100%" width="100%" xlink:href="#f" transform="scale(.05)"/>
      <use height="100%" width="100%" xlink:href="#g" transform="translate(12) scale(.05)"/>
      <use height="100%" width="100%" xlink:href="#h" transform="translate(22) scale(.05)"/>
      <use height="100%" width="100%" xlink:href="#i" transform="translate(32) scale(.05)"/>
      <use height="100%" width="100%" xlink:href="#j" transform="translate(42) scale(.05)"/>
    </g>
    <path id="k" d="M135-143c-3-34-86-38-87 0 15 53 115 12 119 90S17 21 10-45l28-5c4 36 97 45 98 0-10-56-113-15-118-90-4-57 82-63 122-42 12 7 21 19 24 35"/>
    <path id="l" d="M24-231v-30h32v30zM24 0v-190h32V0H24"/>
    <g id="I">
      <use height="100%" width="100%" xlink:href="#f" transform="scale(.05)"/>
      <use height="100%" width="100%" xlink:href="#d" transform="translate(12) scale(.05)"/>
      <use height="100%" width="100%" xlink:href="#j" transform="translate(18) scale(.05)"/>
      <use height="100%" width="100%" xlink:href="#k" transform="translate(28) scale(.05)"/>
      <use height="100%" width="100%" xlink:href="#j" transform="translate(37) scale(.05)"/>
      <use height="100%" width="100%" xlink:href="#i" transform="translate(47) scale(.05)"/>
      <use height="100%" width="100%" xlink:href="#e" transform="translate(57) scale(.05)"/>
      <use height="100%" width="100%" xlink:href="#c" transform="translate(62) scale(.05)"/>
      <use height="100%" width="100%" xlink:href="#e" transform="translate(72) scale(.05)"/>
      <use height="100%" width="100%" xlink:href="#l" transform="translate(77) scale(.05)"/>
      <use height="100%" width="100%" xlink:href="#h" transform="translate(81) scale(.05)"/>
      <use height="100%" width="100%" xlink:href="#i" transform="translate(91) scale(.05)"/>
    </g>
    <path id="m" d="M85-194c31 0 48 13 60 33l-1-100h32l1 261h-30c-2-10 0-23-3-31C134-8 116 4 85 4 32 4 16-35 15-94c0-66 23-100 70-100zm9 24c-40 0-46 34-46 75 0 40 6 74 45 74 42 0 51-32 51-76 0-42-9-74-50-73"/>
    <path id="n" d="M115-194c55 1 70 41 70 98S169 2 115 4C84 4 66-9 55-30l1 105H24l-1-265h31l2 30c10-21 28-34 59-34zm-8 174c40 0 45-34 45-75s-6-73-45-74c-42 0-51 32-51 76 0 43 10 73 51 73"/>
    <path id="o" d="M24 0v-261h32V0H24"/>
    <path id="p" d="M179-190L93 31C79 59 56 82 12 73V49c39 6 53-20 64-50L1-190h34L92-34l54-156h33"/>
    <g id="J">
      <use height="100%" width="100%" xlink:href="#m" transform="scale(.05)"/>
      <use height="100%" width="100%" xlink:href="#l" transform="translate(10) scale(.05)"/>
      <use height="100%" width="100%" xlink:href="#k" transform="translate(14) scale(.05)"/>
      <use height="100%" width="100%" xlink:href="#n" transform="translate(23) scale(.05)"/>
      <use height="100%" width="100%" xlink:href="#o" transform="translate(33) scale(.05)"/>
      <use height="100%" width="100%" xlink:href="#c" transform="translate(37) scale(.05)"/>
      <use height="100%" width="100%" xlink:href="#p" transform="translate(47) scale(.05)"/>
    </g>
    <g id="K">
      <use height="100%" width="100%" xlink:href="#c" transform="scale(.05)"/>
      <use height="100%" width="100%" xlink:href="#i" transform="translate(10) scale(.05)"/>
      <use height="100%" width="100%" xlink:href="#m" transform="translate(20) scale(.05)"/>
    </g>
    <path id="q" d="M108 0H70L1-190h34L89-25l56-165h34"/>
    <g id="L">
      <use height="100%" width="100%" xlink:href="#k" transform="scale(.05)"/>
      <use height="100%" width="100%" xlink:href="#j" transform="translate(9) scale(.05)"/>
      <use height="100%" width="100%" xlink:href="#d" transform="translate(19) scale(.05)"/>
      <use height="100%" width="100%" xlink:href="#q" transform="translate(25) scale(.05)"/>
      <use height="100%" width="100%" xlink:href="#j" transform="translate(34) scale(.05)"/>
      <use height="100%" width="100%" xlink:href="#d" transform="translate(44) scale(.05)"/>
    </g>
    <path id="r" d="M30-248c118-7 216 8 213 122C240-48 200 0 122 0H30zM63-27c89 8 146-16 146-99s-60-101-146-95v194"/>
    <path id="s" d="M84 4C-5 8 30-112 23-190h32v120c0 31 7 50 39 49 72-2 45-101 50-169h31l1 190h-30c-1-10 1-25-2-33-11 22-28 36-60 37"/>
    <path id="t" d="M177-190C167-65 218 103 67 71c-23-6-38-20-44-43l32-5c15 47 100 32 89-28v-30A63 63 0 0 1 83 1C29 1 15-40 15-95c0-56 16-97 71-98 29-1 48 16 59 35 1-10 0-23 2-32zM94-22c36 0 50-32 50-73 0-42-14-75-50-75-39 0-46 34-46 75s6 73 46 73"/>
    <g id="M">
      <use height="100%" width="100%" xlink:href="#r" transform="scale(.11111)"/>
      <use height="100%" width="100%" xlink:href="#s" transform="translate(29) scale(.11111)"/>
      <use height="100%" width="100%" xlink:href="#d" transform="translate(51) scale(.11111)"/>
      <use height="100%" width="100%" xlink:href="#l" transform="translate(64) scale(.11111)"/>
      <use height="100%" width="100%" xlink:href="#i" transform="translate(73) scale(.11111)"/>
      <use height="100%" width="100%" xlink:href="#t" transform="translate(95) scale(.11111)"/>
    </g>
    <path id="u" d="M212-179c-10-28-35-45-73-45-59 0-87 40-87 99 0 60 29 101 89 101 43 0 62-24 78-52l27 14C228-24 195 4 139 4 59 4 22-46 18-125c-6-104 99-153 187-111 19 9 31 26 39 46"/>
    <path id="v" d="M96-169c-40 0-48 33-48 73s9 75 48 75c24 0 41-14 43-38l32 2c-6 37-31 61-74 61-59 0-76-41-82-99-10-93 101-131 147-64 4 7 5 14 7 22l-32 3c-4-21-16-35-41-35"/>
    <g id="N">
      <use height="100%" width="100%" xlink:href="#u" transform="scale(.11111)"/>
      <use height="100%" width="100%" xlink:href="#g" transform="translate(29) scale(.11111)"/>
      <use height="100%" width="100%" xlink:href="#s" transform="translate(51) scale(.11111)"/>
      <use height="100%" width="100%" xlink:href="#d" transform="translate(73) scale(.11111)"/>
      <use height="100%" width="100%" xlink:href="#v" transform="translate(86) scale(.11111)"/>
      <use height="100%" width="100%" xlink:href="#g" transform="translate(106) scale(.11111)"/>
    </g>
    <g id="O">
      <use height="100%" width="100%" xlink:href="#a" transform="scale(.11111)"/>
      <use height="100%" width="100%" xlink:href="#j" transform="translate(27) scale(.11111)"/>
      <use height="100%" width="100%" xlink:href="#d" transform="translate(49) scale(.11111)"/>
      <use height="100%" width="100%" xlink:href="#q" transform="translate(62) scale(.11111)"/>
      <use height="100%" width="100%" xlink:href="#l" transform="translate(82) scale(.11111)"/>
      <use height="100%" width="100%" xlink:href="#v" transform="translate(91) scale(.11111)"/>
      <use height="100%" width="100%" xlink:href="#j" transform="translate(111) scale(.11111)"/>
    </g>
    <path id="w" d="M205 0l-28-72H64L36 0H1l101-248h38L239 0zm-38-99l-47-123c-12 45-31 82-46 123h93"/>
    <use height="100%" width="100%" id="P" xlink:href="#w" transform="scale(.07407)"/>
    <g id="Q">
      <use height="100%" width="100%" xlink:href="#o" transform="scale(.07407)"/>
      <use height="100%" width="100%" xlink:href="#c" transform="translate(6) scale(.07407)"/>
      <use height="100%" width="100%" xlink:href="#n" transform="translate(21) scale(.07407)"/>
      <use height="100%" width="100%" xlink:href="#e" transform="translate(35) scale(.07407)"/>
      <use height="100%" width="100%" xlink:href="#h" transform="translate(43) scale(.07407)"/>
      <use height="100%" width="100%" xlink:href="#n" transform="translate(58) scale(.07407)"/>
    </g>
    <g id="R">
      <use height="100%" width="100%" xlink:href="#d" transform="scale(.07407)"/>
      <use height="100%" width="100%" xlink:href="#s" transform="translate(9) scale(.07407)"/>
      <use height="100%" width="100%" xlink:href="#i" transform="translate(24) scale(.07407)"/>
      <use height="100%" width="100%" xlink:href="#i" transform="translate(38) scale(.07407)"/>
      <use height="100%" width="100%" xlink:href="#l" transform="translate(53) scale(.07407)"/>
      <use height="100%" width="100%" xlink:href="#i" transform="translate(59) scale(.07407)"/>
      <use height="100%" width="100%" xlink:href="#t" transform="translate(74) scale(.07407)"/>
    </g>
    <use height="100%" width="100%" id="S" xlink:href="#c" transform="scale(.07407)"/>
    <g id="T">
      <use height="100%" width="100%" xlink:href="#k" transform="scale(.07407)"/>
      <use height="100%" width="100%" xlink:href="#j" transform="translate(13) scale(.07407)"/>
      <use height="100%" width="100%" xlink:href="#d" transform="translate(28) scale(.07407)"/>
      <use height="100%" width="100%" xlink:href="#q" transform="translate(37) scale(.07407)"/>
      <use height="100%" width="100%" xlink:href="#j" transform="translate(50) scale(.07407)"/>
      <use height="100%" width="100%" xlink:href="#d" transform="translate(65) scale(.07407)"/>
    </g>
    <g id="U">
      <use height="100%" width="100%" xlink:href="#t" transform="scale(.07407)"/>
      <use height="100%" width="100%" xlink:href="#l" transform="translate(15) scale(.07407)"/>
      <use height="100%" width="100%" xlink:href="#q" transform="translate(21) scale(.07407)"/>
      <use height="100%" width="100%" xlink:href="#l" transform="translate(34) scale(.07407)"/>
      <use height="100%" width="100%" xlink:href="#i" transform="translate(40) scale(.07407)"/>
      <use height="100%" width="100%" xlink:href="#t" transform="translate(55) scale(.07407)"/>
    </g>
    <g id="V">
      <use height="100%" width="100%" xlink:href="#e" transform="scale(.07407)"/>
      <use height="100%" width="100%" xlink:href="#g" transform="translate(7) scale(.07407)"/>
      <use height="100%" width="100%" xlink:href="#j" transform="translate(22) scale(.07407)"/>
    </g>
    <path id="x" d="M115-194c53 0 69 39 70 98 0 66-23 100-70 100C84 3 66-7 56-30L54 0H23l1-261h32v101c10-23 28-34 59-34zm-8 174c40 0 45-34 45-75 0-40-5-75-45-74-42 0-51 32-51 76 0 43 10 73 51 73"/>
    <g id="W">
      <use height="100%" width="100%" xlink:href="#c" transform="scale(.07407)"/>
      <use height="100%" width="100%" xlink:href="#x" transform="translate(15) scale(.07407)"/>
      <use height="100%" width="100%" xlink:href="#l" transform="translate(30) scale(.07407)"/>
      <use height="100%" width="100%" xlink:href="#o" transform="translate(35) scale(.07407)"/>
      <use height="100%" width="100%" xlink:href="#l" transform="translate(41) scale(.07407)"/>
      <use height="100%" width="100%" xlink:href="#e" transform="translate(47) scale(.07407)"/>
      <use height="100%" width="100%" xlink:href="#p" transform="translate(55) scale(.07407)"/>
    </g>
    <path id="y" d="M101-234c-31-9-42 10-38 44h38v23H63V0H32v-167H5v-23h27c-7-52 17-82 69-68v24"/>
    <g id="X">
      <use height="100%" width="100%" xlink:href="#y" transform="scale(.07407)"/>
      <use height="100%" width="100%" xlink:href="#h" transform="translate(7) scale(.07407)"/>
      <use height="100%" width="100%" xlink:href="#d" transform="translate(22) scale(.07407)"/>
    </g>
    <g id="Y">
      <use height="100%" width="100%" xlink:href="#b" transform="scale(.07407)"/>
      <use height="100%" width="100%" xlink:href="#h" transform="translate(22) scale(.07407)"/>
      <use height="100%" width="100%" xlink:href="#x" transform="translate(37) scale(.07407)"/>
      <use height="100%" width="100%" xlink:href="#l" transform="translate(52) scale(.07407)"/>
      <use height="100%" width="100%" xlink:href="#o" transform="translate(58) scale(.07407)"/>
      <use height="100%" width="100%" xlink:href="#j" transform="translate(63) scale(.07407)"/>
    </g>
    <g id="Z">
      <use height="100%" width="100%" xlink:href="#n" transform="scale(.07407)"/>
      <use height="100%" width="100%" xlink:href="#g" transform="translate(15) scale(.07407)"/>
      <use height="100%" width="100%" xlink:href="#h" transform="translate(30) scale(.07407)"/>
      <use height="100%" width="100%" xlink:href="#i" transform="translate(44) scale(.07407)"/>
      <use height="100%" width="100%" xlink:href="#j" transform="translate(59) scale(.07407)"/>
      <use height="100%" width="100%" xlink:href="#k" transform="translate(74) scale(.07407)"/>
    </g>
    <g id="aa">
      <use height="100%" width="100%" xlink:href="#e" transform="scale(.07407)"/>
      <use height="100%" width="100%" xlink:href="#h" transform="translate(7) scale(.07407)"/>
    </g>
    <g id="ab">
      <use height="100%" width="100%" xlink:href="#v" transform="scale(.07407)"/>
      <use height="100%" width="100%" xlink:href="#h" transform="translate(13) scale(.07407)"/>
      <use height="100%" width="100%" xlink:href="#i" transform="translate(28) scale(.07407)"/>
      <use height="100%" width="100%" xlink:href="#i" transform="translate(43) scale(.07407)"/>
      <use height="100%" width="100%" xlink:href="#j" transform="translate(58) scale(.07407)"/>
      <use height="100%" width="100%" xlink:href="#v" transform="translate(73) scale(.07407)"/>
      <use height="100%" width="100%" xlink:href="#e" transform="translate(86) scale(.07407)"/>
    </g>
    <g id="ac">
      <use height="100%" width="100%" xlink:href="#m" transform="scale(.07407)"/>
      <use height="100%" width="100%" xlink:href="#l" transform="translate(15) scale(.07407)"/>
      <use height="100%" width="100%" xlink:href="#d" transform="translate(21) scale(.07407)"/>
      <use height="100%" width="100%" xlink:href="#j" transform="translate(29) scale(.07407)"/>
      <use height="100%" width="100%" xlink:href="#v" transform="translate(44) scale(.07407)"/>
      <use height="100%" width="100%" xlink:href="#e" transform="translate(58) scale(.07407)"/>
      <use height="100%" width="100%" xlink:href="#o" transform="translate(65) scale(.07407)"/>
      <use height="100%" width="100%" xlink:href="#p" transform="translate(71) scale(.07407)"/>
    </g>
    <g id="ad">
      <use height="100%" width="100%" xlink:href="#e" transform="scale(.07407)"/>
      <use height="100%" width="100%" xlink:href="#g" transform="translate(7) scale(.07407)"/>
      <use height="100%" width="100%" xlink:href="#d" transform="translate(22) scale(.07407)"/>
      <use height="100%" width="100%" xlink:href="#h" transform="translate(31) scale(.07407)"/>
      <use height="100%" width="100%" xlink:href="#s" transform="translate(46) scale(.07407)"/>
      <use height="100%" width="100%" xlink:href="#t" transform="translate(61) scale(.07407)"/>
      <use height="100%" width="100%" xlink:href="#g" transform="translate(75) scale(.07407)"/>
    </g>
    <path id="z" d="M206 0h-36l-40-164L89 0H53L-1-190h32L70-26l43-164h34l41 164 42-164h31"/>
    <g id="ae">
      <use height="100%" width="100%" xlink:href="#z" transform="scale(.07407)"/>
      <use height="100%" width="100%" xlink:href="#j" transform="translate(19) scale(.07407)"/>
      <use height="100%" width="100%" xlink:href="#x" transform="translate(34) scale(.07407)"/>
    </g>
    <g id="af">
      <use height="100%" width="100%" xlink:href="#l" transform="scale(.07407)"/>
      <use height="100%" width="100%" xlink:href="#i" transform="translate(6) scale(.07407)"/>
      <use height="100%" width="100%" xlink:href="#e" transform="translate(21) scale(.07407)"/>
      <use height="100%" width="100%" xlink:href="#j" transform="translate(28) scale(.07407)"/>
      <use height="100%" width="100%" xlink:href="#d" transform="translate(43) scale(.07407)"/>
      <use height="100%" width="100%" xlink:href="#y" transform="translate(52) scale(.07407)"/>
      <use height="100%" width="100%" xlink:href="#c" transform="translate(59) scale(.07407)"/>
      <use height="100%" width="100%" xlink:href="#v" transform="translate(74) scale(.07407)"/>
      <use height="100%" width="100%" xlink:href="#j" transform="translate(87) scale(.07407)"/>
    </g>
    <g id="ag">
      <use height="100%" width="100%" xlink:href="#r" transform="scale(.05)"/>
      <use height="100%" width="100%" xlink:href="#j" transform="translate(13) scale(.05)"/>
      <use height="100%" width="100%" xlink:href="#q" transform="translate(23) scale(.05)"/>
      <use height="100%" width="100%" xlink:href="#l" transform="translate(32) scale(.05)"/>
      <use height="100%" width="100%" xlink:href="#v" transform="translate(36) scale(.05)"/>
      <use height="100%" width="100%" xlink:href="#j" transform="translate(45) scale(.05)"/>
      <use height="100%" width="100%" xlink:href="#k" transform="translate(55) scale(.05)"/>
    </g>
    <g id="ah">
      <use height="100%" width="100%" xlink:href="#v" transform="scale(.05)"/>
      <use height="100%" width="100%" xlink:href="#c" transform="translate(9) scale(.05)"/>
      <use height="100%" width="100%" xlink:href="#i" transform="translate(19) scale(.05)"/>
    </g>
    <g id="ai">
      <use height="100%" width="100%" xlink:href="#v" transform="scale(.05)"/>
      <use height="100%" width="100%" xlink:href="#h" transform="translate(9) scale(.05)"/>
      <use height="100%" width="100%" xlink:href="#i" transform="translate(19) scale(.05)"/>
      <use height="100%" width="100%" xlink:href="#i" transform="translate(29) scale(.05)"/>
      <use height="100%" width="100%" xlink:href="#j" transform="translate(39) scale(.05)"/>
      <use height="100%" width="100%" xlink:href="#v" transform="translate(49) scale(.05)"/>
      <use height="100%" width="100%" xlink:href="#e" transform="translate(58) scale(.05)"/>
    </g>
    <g id="aj">
      <use height="100%" width="100%" xlink:href="#m" transform="scale(.05)"/>
      <use height="100%" width="100%" xlink:href="#s" transform="translate(10) scale(.05)"/>
      <use height="100%" width="100%" xlink:href="#d" transform="translate(20) scale(.05)"/>
      <use height="100%" width="100%" xlink:href="#l" transform="translate(26) scale(.05)"/>
      <use height="100%" width="100%" xlink:href="#i" transform="translate(30) scale(.05)"/>
      <use height="100%" width="100%" xlink:href="#t" transform="translate(40) scale(.05)"/>
    </g>
    <g id="ak">
      <use height="100%" width="100%" xlink:href="#k" transform="scale(.05)"/>
      <use height="100%" width="100%" xlink:href="#j" transform="translate(9) scale(.05)"/>
      <use height="100%" width="100%" xlink:href="#d" transform="translate(19) scale(.05)"/>
      <use height="100%" width="100%" xlink:href="#q" transform="translate(25) scale(.05)"/>
      <use height="100%" width="100%" xlink:href="#l" transform="translate(34) scale(.05)"/>
      <use height="100%" width="100%" xlink:href="#v" transform="translate(38) scale(.05)"/>
      <use height="100%" width="100%" xlink:href="#j" transform="translate(47) scale(.05)"/>
    </g>
    <g id="al">
      <use height="100%" width="100%" xlink:href="#e" transform="scale(.05)"/>
      <use height="100%" width="100%" xlink:href="#h" transform="translate(5) scale(.05)"/>
    </g>
    <g id="am">
      <use height="100%" width="100%" xlink:href="#v" transform="scale(.05)"/>
      <use height="100%" width="100%" xlink:href="#h" transform="translate(9) scale(.05)"/>
      <use height="100%" width="100%" xlink:href="#i" transform="translate(19) scale(.05)"/>
      <use height="100%" width="100%" xlink:href="#e" transform="translate(29) scale(.05)"/>
      <use height="100%" width="100%" xlink:href="#d" transform="translate(34) scale(.05)"/>
      <use height="100%" width="100%" xlink:href="#h" transform="translate(40) scale(.05)"/>
      <use height="100%" width="100%" xlink:href="#o" transform="translate(50) scale(.05)"/>
    </g>
    <g id="an">
      <use height="100%" width="100%" xlink:href="#n" transform="scale(.05)"/>
      <use height="100%" width="100%" xlink:href="#d" transform="translate(10) scale(.05)"/>
      <use height="100%" width="100%" xlink:href="#j" transform="translate(16) scale(.05)"/>
      <use height="100%" width="100%" xlink:href="#k" transform="translate(26) scale(.05)"/>
      <use height="100%" width="100%" xlink:href="#j" transform="translate(35) scale(.05)"/>
      <use height="100%" width="100%" xlink:href="#i" transform="translate(45) scale(.05)"/>
      <use height="100%" width="100%" xlink:href="#e" transform="translate(55) scale(.05)"/>
      <use height="100%" width="100%" xlink:href="#l" transform="translate(60) scale(.05)"/>
      <use height="100%" width="100%" xlink:href="#h" transform="translate(64) scale(.05)"/>
      <use height="100%" width="100%" xlink:href="#i" transform="translate(74) scale(.05)"/>
    </g>
    <path id="A" d="M30 0v-248h33v221h125V0H30"/>
    <g id="ao">
      <use height="100%" width="100%" xlink:href="#A" transform="scale(.05)"/>
      <use height="100%" width="100%" xlink:href="#c" transform="translate(10) scale(.05)"/>
      <use height="100%" width="100%" xlink:href="#n" transform="translate(20) scale(.05)"/>
      <use height="100%" width="100%" xlink:href="#e" transform="translate(30) scale(.05)"/>
      <use height="100%" width="100%" xlink:href="#h" transform="translate(35) scale(.05)"/>
      <use height="100%" width="100%" xlink:href="#n" transform="translate(45) scale(.05)"/>
    </g>
    <g id="ap">
      <use height="100%" width="100%" xlink:href="#v" transform="scale(.05)"/>
      <use height="100%" width="100%" xlink:href="#h" transform="translate(9) scale(.05)"/>
      <use height="100%" width="100%" xlink:href="#i" transform="translate(19) scale(.05)"/>
      <use height="100%" width="100%" xlink:href="#i" transform="translate(29) scale(.05)"/>
      <use height="100%" width="100%" xlink:href="#j" transform="translate(39) scale(.05)"/>
      <use height="100%" width="100%" xlink:href="#v" transform="translate(49) scale(.05)"/>
      <use height="100%" width="100%" xlink:href="#e" transform="translate(58) scale(.05)"/>
      <use height="100%" width="100%" xlink:href="#l" transform="translate(63) scale(.05)"/>
      <use height="100%" width="100%" xlink:href="#i" transform="translate(67) scale(.05)"/>
      <use height="100%" width="100%" xlink:href="#t" transform="translate(77) scale(.05)"/>
    </g>
    <g id="aq">
      <use height="100%" width="100%" xlink:href="#e" transform="scale(.05)"/>
      <use height="100%" width="100%" xlink:href="#g" transform="translate(5) scale(.05)"/>
      <use height="100%" width="100%" xlink:href="#d" transform="translate(15) scale(.05)"/>
      <use height="100%" width="100%" xlink:href="#h" transform="translate(21) scale(.05)"/>
      <use height="100%" width="100%" xlink:href="#s" transform="translate(31) scale(.05)"/>
      <use height="100%" width="100%" xlink:href="#t" transform="translate(41) scale(.05)"/>
      <use height="100%" width="100%" xlink:href="#g" transform="translate(51) scale(.05)"/>
    </g>
    <g id="ar">
      <use height="100%" width="100%" xlink:href="#z" transform="scale(.05)"/>
      <use height="100%" width="100%" xlink:href="#j" transform="translate(13) scale(.05)"/>
      <use height="100%" width="100%" xlink:href="#x" transform="translate(23) scale(.05)"/>
    </g>
    <g id="as">
      <use height="100%" width="100%" xlink:href="#l" transform="scale(.05)"/>
      <use height="100%" width="100%" xlink:href="#i" transform="translate(4) scale(.05)"/>
      <use height="100%" width="100%" xlink:href="#e" transform="translate(14) scale(.05)"/>
      <use height="100%" width="100%" xlink:href="#j" transform="translate(19) scale(.05)"/>
      <use height="100%" width="100%" xlink:href="#d" transform="translate(29) scale(.05)"/>
      <use height="100%" width="100%" xlink:href="#y" transform="translate(35) scale(.05)"/>
      <use height="100%" width="100%" xlink:href="#c" transform="translate(40) scale(.05)"/>
      <use height="100%" width="100%" xlink:href="#v" transform="translate(50) scale(.05)"/>
      <use height="100%" width="100%" xlink:href="#j" transform="translate(59) scale(.05)"/>
    </g>
    <path id="B" d="M160-131c35 5 61 23 61 61C221 17 115-2 30 0v-248c76 3 177-17 177 60 0 33-19 50-47 57zm-97-11c50-1 110 9 110-42 0-47-63-36-110-37zm0 115c55-2 124 14 124-45 0-56-70-42-124-44v89"/>
    <g id="at">
      <use height="100%" width="100%" xlink:href="#B" transform="scale(.11111)"/>
      <use height="100%" width="100%" xlink:href="#j" transform="translate(27) scale(.11111)"/>
      <use height="100%" width="100%" xlink:href="#y" transform="translate(49) scale(.11111)"/>
      <use height="100%" width="100%" xlink:href="#h" transform="translate(60) scale(.11111)"/>
      <use height="100%" width="100%" xlink:href="#d" transform="translate(82) scale(.11111)"/>
      <use height="100%" width="100%" xlink:href="#j" transform="translate(95) scale(.11111)"/>
    </g>
    <path id="C" d="M240 0l2-218c-23 76-54 145-80 218h-23L58-218 59 0H30v-248h44l77 211c21-75 51-140 76-211h43V0h-30"/>
    <g id="au">
      <use height="100%" width="100%" xlink:href="#C" transform="scale(.07407)"/>
      <use height="100%" width="100%" xlink:href="#s" transform="translate(22) scale(.07407)"/>
      <use height="100%" width="100%" xlink:href="#o" transform="translate(37) scale(.07407)"/>
      <use height="100%" width="100%" xlink:href="#e" transform="translate(43) scale(.07407)"/>
      <use height="100%" width="100%" xlink:href="#l" transform="translate(50) scale(.07407)"/>
      <use height="100%" width="100%" xlink:href="#n" transform="translate(56) scale(.07407)"/>
      <use height="100%" width="100%" xlink:href="#o" transform="translate(71) scale(.07407)"/>
      <use height="100%" width="100%" xlink:href="#j" transform="translate(77) scale(.07407)"/>
    </g>
    <g id="av">
      <use height="100%" width="100%" xlink:href="#m" transform="scale(.07407)"/>
      <use height="100%" width="100%" xlink:href="#j" transform="translate(15) scale(.07407)"/>
      <use height="100%" width="100%" xlink:href="#q" transform="translate(30) scale(.07407)"/>
      <use height="100%" width="100%" xlink:href="#l" transform="translate(43) scale(.07407)"/>
      <use height="100%" width="100%" xlink:href="#v" transform="translate(49) scale(.07407)"/>
      <use height="100%" width="100%" xlink:href="#j" transform="translate(62) scale(.07407)"/>
      <use height="100%" width="100%" xlink:href="#k" transform="translate(77) scale(.07407)"/>
    </g>
    <g id="aw">
      <use height="100%" width="100%" xlink:href="#k" transform="scale(.07407)"/>
      <use height="100%" width="100%" xlink:href="#p" transform="translate(13) scale(.07407)"/>
      <use height="100%" width="100%" xlink:href="#i" transform="translate(27) scale(.07407)"/>
      <use height="100%" width="100%" xlink:href="#v" transform="translate(41) scale(.07407)"/>
      <use height="100%" width="100%" xlink:href="#l" transform="translate(55) scale(.07407)"/>
      <use height="100%" width="100%" xlink:href="#i" transform="translate(61) scale(.07407)"/>
      <use height="100%" width="100%" xlink:href="#t" transform="translate(75) scale(.07407)"/>
    </g>
    <g id="ax">
      <use height="100%" width="100%" xlink:href="#z" transform="scale(.07407)"/>
      <use height="100%" width="100%" xlink:href="#l" transform="translate(19) scale(.07407)"/>
      <use height="100%" width="100%" xlink:href="#e" transform="translate(25) scale(.07407)"/>
      <use height="100%" width="100%" xlink:href="#g" transform="translate(32) scale(.07407)"/>
    </g>
    <g id="ay">
      <use height="100%" width="100%" xlink:href="#z" transform="scale(.07407)"/>
      <use height="100%" width="100%" xlink:href="#g" transform="translate(19) scale(.07407)"/>
      <use height="100%" width="100%" xlink:href="#l" transform="translate(34) scale(.07407)"/>
      <use height="100%" width="100%" xlink:href="#v" transform="translate(40) scale(.07407)"/>
      <use height="100%" width="100%" xlink:href="#g" transform="translate(53) scale(.07407)"/>
    </g>
    <g id="az">
      <use height="100%" width="100%" xlink:href="#k" transform="scale(.07407)"/>
      <use height="100%" width="100%" xlink:href="#e" transform="translate(13) scale(.07407)"/>
      <use height="100%" width="100%" xlink:href="#h" transform="translate(21) scale(.07407)"/>
      <use height="100%" width="100%" xlink:href="#d" transform="translate(36) scale(.07407)"/>
      <use height="100%" width="100%" xlink:href="#j" transform="translate(44) scale(.07407)"/>
      <use height="100%" width="100%" xlink:href="#k" transform="translate(59) scale(.07407)"/>
    </g>
    <path id="D" d="M33 0v-38h34V0H33"/>
    <g id="aA">
      <use height="100%" width="100%" xlink:href="#m" transform="scale(.07407)"/>
      <use height="100%" width="100%" xlink:href="#c" transform="translate(15) scale(.07407)"/>
      <use height="100%" width="100%" xlink:href="#e" transform="translate(30) scale(.07407)"/>
      <use height="100%" width="100%" xlink:href="#c" transform="translate(37) scale(.07407)"/>
      <use height="100%" width="100%" xlink:href="#D" transform="translate(52) scale(.07407)"/>
    </g>
    <path id="E" d="M33 0v-248h34V0H33"/>
    <g id="aB">
      <use height="100%" width="100%" xlink:href="#E" transform="scale(.05)"/>
      <use height="100%" width="100%" xlink:href="#i" transform="translate(5) scale(.05)"/>
      <use height="100%" width="100%" xlink:href="#e" transform="translate(15) scale(.05)"/>
      <use height="100%" width="100%" xlink:href="#j" transform="translate(20) scale(.05)"/>
      <use height="100%" width="100%" xlink:href="#d" transform="translate(30) scale(.05)"/>
      <use height="100%" width="100%" xlink:href="#i" transform="translate(36) scale(.05)"/>
      <use height="100%" width="100%" xlink:href="#j" transform="translate(46) scale(.05)"/>
      <use height="100%" width="100%" xlink:href="#e" transform="translate(56) scale(.05)"/>
    </g>
    <path id="F" d="M143 0L79-87 56-68V0H24v-261h32v163l83-92h37l-77 82L181 0h-38"/>
    <g id="aC">
      <use height="100%" width="100%" xlink:href="#m" transform="scale(.05)"/>
      <use height="100%" width="100%" xlink:href="#j" transform="translate(10) scale(.05)"/>
      <use height="100%" width="100%" xlink:href="#k" transform="translate(20) scale(.05)"/>
      <use height="100%" width="100%" xlink:href="#F" transform="translate(29) scale(.05)"/>
      <use height="100%" width="100%" xlink:href="#e" transform="translate(38) scale(.05)"/>
      <use height="100%" width="100%" xlink:href="#h" transform="translate(43) scale(.05)"/>
      <use height="100%" width="100%" xlink:href="#n" transform="translate(53) scale(.05)"/>
    </g>
    <g id="aD">
      <use height="100%" width="100%" xlink:href="#c" transform="scale(.05)"/>
      <use height="100%" width="100%" xlink:href="#n" transform="translate(10) scale(.05)"/>
      <use height="100%" width="100%" xlink:href="#n" transform="translate(20) scale(.05)"/>
      <use height="100%" width="100%" xlink:href="#o" transform="translate(30) scale(.05)"/>
      <use height="100%" width="100%" xlink:href="#l" transform="translate(34) scale(.05)"/>
      <use height="100%" width="100%" xlink:href="#v" transform="translate(38) scale(.05)"/>
      <use height="100%" width="100%" xlink:href="#c" transform="translate(47) scale(.05)"/>
      <use height="100%" width="100%" xlink:href="#e" transform="translate(57) scale(.05)"/>
      <use height="100%" width="100%" xlink:href="#l" transform="translate(62) scale(.05)"/>
      <use height="100%" width="100%" xlink:href="#h" transform="translate(66) scale(.05)"/>
      <use height="100%" width="100%" xlink:href="#i" transform="translate(76) scale(.05)"/>
    </g>
    <g id="aE">
      <use height="100%" width="100%" xlink:href="#f" transform="scale(.05)"/>
      <use height="100%" width="100%" xlink:href="#g" transform="translate(12) scale(.05)"/>
      <use height="100%" width="100%" xlink:href="#h" transform="translate(22) scale(.05)"/>
      <use height="100%" width="100%" xlink:href="#i" transform="translate(32) scale(.05)"/>
      <use height="100%" width="100%" xlink:href="#j" transform="translate(42) scale(.05)"/>
    </g>
    <g id="aF">
      <use height="100%" width="100%" xlink:href="#v" transform="scale(.05)"/>
      <use height="100%" width="100%" xlink:href="#h" transform="translate(9) scale(.05)"/>
      <use height="100%" width="100%" xlink:href="#i" transform="translate(19) scale(.05)"/>
      <use height="100%" width="100%" xlink:href="#i" transform="translate(29) scale(.05)"/>
      <use height="100%" width="100%" xlink:href="#j" transform="translate(39) scale(.05)"/>
      <use height="100%" width="100%" xlink:href="#v" transform="translate(49) scale(.05)"/>
      <use height="100%" width="100%" xlink:href="#e" transform="translate(58) scale(.05)"/>
      <use height="100%" width="100%" xlink:href="#l" transform="translate(63) scale(.05)"/>
      <use height="100%" width="100%" xlink:href="#i" transform="translate(67) scale(.05)"/>
      <use height="100%" width="100%" xlink:href="#t" transform="translate(77) scale(.05)"/>
    </g>
    <g id="aG">
      <use height="100%" width="100%" xlink:href="#e" transform="scale(.05)"/>
      <use height="100%" width="100%" xlink:href="#g" transform="translate(5) scale(.05)"/>
      <use height="100%" width="100%" xlink:href="#d" transform="translate(15) scale(.05)"/>
      <use height="100%" width="100%" xlink:href="#h" transform="translate(21) scale(.05)"/>
      <use height="100%" width="100%" xlink:href="#s" transform="translate(31) scale(.05)"/>
      <use height="100%" width="100%" xlink:href="#t" transform="translate(41) scale(.05)"/>
      <use height="100%" width="100%" xlink:href="#g" transform="translate(51) scale(.05)"/>
    </g>
    <g id="aH">
      <use height="100%" width="100%" xlink:href="#z" transform="scale(.05)"/>
      <use height="100%" width="100%" xlink:href="#j" transform="translate(13) scale(.05)"/>
      <use height="100%" width="100%" xlink:href="#x" transform="translate(23) scale(.05)"/>
    </g>
    <g id="aI">
      <use height="100%" width="100%" xlink:href="#a" transform="scale(.05)"/>
      <use height="100%" width="100%" xlink:href="#j" transform="translate(12) scale(.05)"/>
      <use height="100%" width="100%" xlink:href="#d" transform="translate(22) scale(.05)"/>
      <use height="100%" width="100%" xlink:href="#q" transform="translate(28) scale(.05)"/>
      <use height="100%" width="100%" xlink:href="#j" transform="translate(37) scale(.05)"/>
      <use height="100%" width="100%" xlink:href="#d" transform="translate(47) scale(.05)"/>
    </g>
  </defs>
  <path d="M813 528h14c13 0 23 2 23 5v81c0 2-10 4-23 4h-14c-13 0-23-2-23-4v-81c0-3 10-5 23-5z" fill="#29aae1"/>
  <path d="M794 535h52v74h-52zm17-4h17l1 1h-18v-1zm2 83l-1 1-1-1 1-1 1 1zm9 0l-1 1-1-1 1-1 1 1zm8 0l-2 1-1-1 1-1 2 1z" fill="#fff"/>
  <path d="M796 536h48v71h-48z" fill="gray"/>
  <use height="100%" width="100%" transform="translate(768 637)" xlink:href="#G"/>
  <use height="100%" width="100%" transform="translate(820 637)" xlink:href="#H"/>
  <path d="M1073 528h14c13 0 23 2 23 5v81c0 2-10 4-23 4h-14c-13 0-23-2-23-4v-81c0-3 10-5 23-5z" fill="#29aae1"/>
  <path d="M1054 535h52v74h-52zm17-4h17l1 1h-18v-1zm2 83l-1 1-1-1 1-1 1 1zm9 0l-1 1-1-1 1-1 1 1zm8 0l-2 1-1-1 1-1 2 1z" fill="#fff"/>
  <path d="M1056 536h48v71h-48z" fill="gray"/>
  <use height="100%" width="100%" transform="translate(1028 637)" xlink:href="#G"/>
  <use height="100%" width="100%" transform="translate(1080 637)" xlink:href="#H"/>
  <path d="M882 283h134c10 0 10 0 10 12v76c0 12 0 12-10 12H882c-10 0-10 0-10-12v-76c0-12 0-12 10-12z" fill="#29aae1"/>
  <path d="M882 293h135v78H882v-78z" fill="#fff"/>
  <path d="M884 296h131v72H884v-72z" fill="gray"/>
  <path d="M865 406h170v17H865z" fill="#29aae1"/>
  <path d="M911 387h118l6 20H917l-6-20z" fill="#29aae1"/>
  <path d="M987 387H871l-6 19h116l6-19z" fill="#29aae1"/>
  <path d="M920 391h102l4 13H924z" fill="#fff"/>
  <path d="M962 391h-85l-4 13h86z" fill="#fff"/>
  <use height="100%" width="100%" transform="translate(852 437)" xlink:href="#I"/>
  <use height="100%" width="100%" transform="translate(957 437)" xlink:href="#J"/>
  <use height="100%" width="100%" transform="translate(1018 437)" xlink:href="#K"/>
  <use height="100%" width="100%" transform="translate(925 459)" xlink:href="#L"/>
  <path d="M740 21h420v186H740z" fill="none"/>
  <use height="100%" width="100%" transform="translate(749 58)" xlink:href="#M"/>
  <use height="100%" width="100%" transform="translate(878 58)" xlink:href="#N"/>
  <use height="100%" width="100%" transform="translate(1018 58)" xlink:href="#O"/>
  <use height="100%" width="100%" transform="translate(764 95)" xlink:href="#P"/>
  <use height="100%" width="100%" transform="translate(787 95)" xlink:href="#Q"/>
  <use height="100%" width="100%" transform="translate(867 95)" xlink:href="#R"/>
  <use height="100%" width="100%" transform="translate(963 95)" xlink:href="#S"/>
  <use height="100%" width="100%" transform="translate(986 95)" xlink:href="#T"/>
  <use height="100%" width="100%" transform="translate(1067 95)" xlink:href="#U"/>
  <use height="100%" width="100%" transform="translate(769 127)" xlink:href="#V"/>
  <use height="100%" width="100%" transform="translate(814 127)" xlink:href="#W"/>
  <use height="100%" width="100%" transform="translate(889 127)" xlink:href="#X"/>
  <use height="100%" width="100%" transform="translate(928 127)" xlink:href="#Y"/>
  <use height="100%" width="100%" transform="translate(1013 127)" xlink:href="#Z"/>
  <use height="100%" width="100%" transform="translate(1108 127)" xlink:href="#aa"/>
  <use height="100%" width="100%" transform="translate(769 159)" xlink:href="#ab"/>
  <use height="100%" width="100%" transform="translate(870 159)" xlink:href="#ac"/>
  <use height="100%" width="100%" transform="translate(962 159)" xlink:href="#ad"/>
  <use height="100%" width="100%" transform="translate(1059 159)" xlink:href="#S"/>
  <use height="100%" width="100%" transform="translate(1082 159)" xlink:href="#ae"/>
  <use height="100%" width="100%" transform="translate(899 191)" xlink:href="#af"/>
  <path d="M820 528V368h52" fill="none" stroke="#000" stroke-width="2"/>
  <path d="M872 368l-15 5v-10z"/>
  <path d="M872 367v2l-16 5v-12zm-14 4l11-3-11-3z"/>
  <path d="M1080 528V368h-54" fill="none" stroke="#000" stroke-width="2"/>
  <path d="M1041 373l-15-5 15-5z"/>
  <path d="M1042 374l-16-5v-2l16-5zm-12-6l10 3v-6z"/>
  <path d="M830 639h240v75H830z" fill="none"/>
  <use height="100%" width="100%" transform="translate(840 669)" xlink:href="#ag"/>
  <use height="100%" width="100%" transform="translate(908 669)" xlink:href="#ah"/>
  <use height="100%" width="100%" transform="translate(942 669)" xlink:href="#ai"/>
  <use height="100%" width="100%" transform="translate(1010 669)" xlink:href="#aj"/>
  <use height="100%" width="100%" transform="translate(838 691)" xlink:href="#ak"/>
  <use height="100%" width="100%" transform="translate(900 691)" xlink:href="#al"/>
  <use height="100%" width="100%" transform="translate(920 691)" xlink:href="#am"/>
  <use height="100%" width="100%" transform="translate(978 691)" xlink:href="#an"/>
  <path d="M37 520h134c10 0 10 0 10 12v76c0 12 0 12-10 12H37c-10 0-10 0-10-12v-76c0-12 0-12 10-12z" fill="#29aae1"/>
  <path d="M37 530h135v77H37v-77z" fill="#fff"/>
  <path d="M39 533h131v72H39v-72z" fill="gray"/>
  <path d="M20 643h170v17H20z" fill="#29aae1"/>
  <path d="M66 624h118l6 20H72l-6-20z" fill="#29aae1"/>
  <path d="M142 624H26l-6 19h116l6-19z" fill="#29aae1"/>
  <path d="M75 628h102l4 13H79z" fill="#fff"/>
  <path d="M117 628H32l-4 13h86z" fill="#fff"/>
  <use height="100%" width="100%" transform="translate(-1 674)" xlink:href="#ao"/>
  <use height="100%" width="100%" transform="translate(59 674)" xlink:href="#ap"/>
  <use height="100%" width="100%" transform="translate(150 674)" xlink:href="#aq"/>
  <use height="100%" width="100%" transform="translate(52 696)" xlink:href="#ar"/>
  <use height="100%" width="100%" transform="translate(89 696)" xlink:href="#as"/>
  <path d="M140 1h420v120H140z" fill="none"/>
  <use height="100%" width="100%" transform="translate(149 38)" xlink:href="#at"/>
  <use height="100%" width="100%" transform="translate(278 38)" xlink:href="#N"/>
  <use height="100%" width="100%" transform="translate(418 38)" xlink:href="#O"/>
  <use height="100%" width="100%" transform="translate(179 75)" xlink:href="#au"/>
  <use height="100%" width="100%" transform="translate(278 75)" xlink:href="#av"/>
  <use height="100%" width="100%" transform="translate(376 75)" xlink:href="#aw"/>
  <use height="100%" width="100%" transform="translate(474 75)" xlink:href="#ax"/>
  <use height="100%" width="100%" transform="translate(180 107)" xlink:href="#T"/>
  <use height="100%" width="100%" transform="translate(261 107)" xlink:href="#ay"/>
  <use height="100%" width="100%" transform="translate(337 107)" xlink:href="#az"/>
  <use height="100%" width="100%" transform="translate(416 107)" xlink:href="#V"/>
  <use height="100%" width="100%" transform="translate(461 107)" xlink:href="#aA"/>
  <path d="M433 420v8c0 16-16 32-35 32H296c-19 0-35-16-35-32v-8z" fill="#7d7c7c"/>
  <path d="M327 336c18 0 33 11 40 28 10-7 24-4 31 7 3 4 4 8 4 13 18 1 31 20 31 34v4c0 15-16 31-35 31H296c-19 0-35-16-35-31v-4c0-12 9-28 22-33v-1c0-27 20-48 44-48z" fill="#d2d3d3"/>
  <path d="M364 438l-4-2c-7-8-19-8-26 0-2 3-5 3-7 0-2-2-2-5 0-7 11-12 29-12 40 0 2 2 2 5 0 7l-3 2z" fill="#fff"/>
  <path d="M377 423l-4-1a35 35 0 0 0-53 0c-2 2-5 1-6-1-2-2-2-5 0-7 18-20 48-20 66 0 2 2 2 6 0 8l-3 1z" fill="#fff"/>
  <path d="M391 409l-3-2a54 54 0 0 0-82 0c-2 2-5 2-7 0s-2-5 0-7c27-29 69-29 96 0 2 2 2 5 0 7l-4 2z" fill="#fff"/>
  <use height="100%" width="100%" transform="translate(316 474)" xlink:href="#aB"/>
  <path d="M279 520h136c11 0 11 0 11 12v79c0 12 0 12-11 12H279c-11 0-11 0-11-12v-79c0-12 0-12 11-12z" fill="#29aae1"/>
  <path d="M279 530h137v80H279z" fill="#fff"/>
  <path d="M280 533h135v74H280z" fill="gray"/>
  <path d="M261 647h174v17H261zm47-20h121l6 20H315l-7-20z" fill="#29aae1"/>
  <path d="M386 627H267l-6 20h119l6-20z" fill="#29aae1"/>
  <path d="M318 631h104l4 13H322z" fill="#fff"/>
  <path d="M360 631h-87l-3 13h87z" fill="#fff"/>
  <g transform="translate(-300 -479)">
    <use height="100%" width="100%" transform="translate(542 1157)" xlink:href="#ao"/>
    <use height="100%" width="100%" transform="translate(602 1157)" xlink:href="#ap"/>
    <use height="100%" width="100%" transform="translate(694 1157)" xlink:href="#aq"/>
    <use height="100%" width="100%" transform="translate(571 1179)" xlink:href="#aC"/>
    <use height="100%" width="100%" transform="translate(639 1179)" xlink:href="#aD"/>
  </g>
  <path d="M583 545h14c13 0 23 2 23 5v81c0 2-10 4-23 4h-14c-13 0-23-2-23-4v-81c0-3 10-5 23-5z" fill="#29aae1"/>
  <path d="M564 552h52v74h-52zm17-4h17l1 1h-18v-1zm2 83l-1 1-1-1 1-1 1 1zm9 0l-1 1-1-1 1-1 1 1zm8 0l-2 1-1-1 1-1 2 1z" fill="#fff"/>
  <path d="M566 553h48v71h-48z" fill="gray"/>
  <g transform="translate(-300 -479)">
    <use height="100%" width="100%" transform="translate(838 1128)" xlink:href="#G"/>
    <use height="100%" width="100%" transform="translate(890 1128)" xlink:href="#aE"/>
    <use height="100%" width="100%" transform="translate(847 1150)" xlink:href="#aF"/>
    <use height="100%" width="100%" transform="translate(841 1172)" xlink:href="#aG"/>
    <use height="100%" width="100%" transform="translate(907 1172)" xlink:href="#aH"/>
    <use height="100%" width="100%" transform="translate(856 1193)" xlink:href="#as"/>
  </g>
  <path d="M105 520V408h156" fill="none" stroke="#000" stroke-width="2"/>
  <path d="M261 408l-14 5v-10z"/>
  <path d="M263 408v1l-17 5v-12zm-15 3l10-3-10-3z"/>
  <path d="M590 545V408H433" fill="none" stroke="#000" stroke-width="2"/>
  <path d="M447 413l-14-5 14-5z"/>
  <path d="M448 414l-17-6 17-6zm-12-6l10 3v-6z"/>
  <path d="M348 520v-20h-1v-20" fill="none" stroke="#000" stroke-width="2"/>
  <path d="M352 494h-10l5-14z"/>
  <path d="M353 495h-12l6-18zm-9-2h6l-3-10z"/>
  <path d="M312 141h70v120h-70z" fill="#29aae1"/>
  <path d="M339 224h35l1 2-1 1h-35l-2-1c0-2 0-2 2-2zm0 7h35l2 1c0 2 0 2-2 2h-35c-2 0-2 0-2-2l2-1zm0 7h35c2 0 2 0 2 2s0 2-2 2h-35c-2 0-2 0-2-2s0-2 2-2zm32-39c0 3-2 6-5 6s-6-3-6-6 2-5 6-5c3 0 5 2 5 5z" fill="#fff"/>
  <path d="M369 199c0 2-2 4-3 4s-4-2-4-4 2-3 4-3c1 0 3 1 3 3z" fill="#7fcced"/>
  <use height="100%" width="100%" transform="translate(321 280)" xlink:href="#aI"/>
  <path d="M347 341v-50" fill="none" stroke="#000" stroke-width="2"/>
  <path d="M348 342l-1-1h1zm4-37h-10l5-14z"/>
  <path d="M353 306h-12l6-18zm-9-2h6l-3-10z"/>
</svg>