<svg xmlns:lucid="lucid" xmlns="http://www.w3.org/2000/svg" xmlns:xlink="http://www.w3.org/1999/xlink" width="1160.95" height="801.402">
  <g lucid:page-tab-id="0_0" transform="translate(-290.05 -379)">
    <path d="M512.5 380h735v57h-735z" fill="none"/>
    <use xlink:href="#a" transform="translate(562.593 427.667)" width="100%" height="100%"/>
    <use xlink:href="#b" transform="translate(771.481 427.667)" width="100%" height="100%"/>
    <use xlink:href="#c" transform="translate(963.778 427.667)" width="100%" height="100%"/>
    <path d="M1103.22 967h13.56c12.9 0 23.28 1.98 23.28 4.5v81c0 2.52-10.38 4.5-23.28 4.5h-13.56c-12.84 0-23.22-1.98-23.22-4.5v-81c0-2.52 10.38-4.5 23.22-4.5z" fill="#29aae1"/>
    <path d="M1084.2 974.2h51.66v73.53h-51.66zm17.16-4.14h16.74c.42 0 .78.27.78.54s-.36.54-.78.54h-16.74c-.42 0-.78-.27-.78-.54s.36-.54.78-.54zm2.16 82.62c0 .63-.48 1.08-1.14 1.08-.6 0-1.14-.45-1.14-1.08 0-.54.54-1.08 1.14-1.08.66 0 1.14.54 1.14 1.08zm8.28 0c0 .63-.48 1.08-1.14 1.08-.6 0-1.08-.45-1.08-1.08 0-.54.48-1.08 1.08-1.08.66 0 1.14.54 1.14 1.08zm7.86 0c0 .63-.54 1.08-1.14 1.08-.66 0-1.14-.45-1.14-1.08 0-.54.48-1.08 1.14-1.08.6 0 1.14.54 1.14 1.08z" fill="#fff"/>
    <path d="M1085.64 975.46h48.72v70.92h-48.72z" fill="gray"/>
    <use xlink:href="#d" transform="translate(1057.55 1075.6)" width="100%" height="100%"/>
    <use xlink:href="#e" transform="translate(1110.45 1075.6)" width="100%" height="100%"/>
    <path d="M1363.22 967h13.56c12.9 0 23.28 1.98 23.28 4.5v81c0 2.52-10.38 4.5-23.28 4.5h-13.56c-12.84 0-23.22-1.98-23.22-4.5v-81c0-2.52 10.38-4.5 23.22-4.5z" fill="#29aae1"/>
    <path d="M1344.2 974.2h51.66v73.53h-51.66zm17.16-4.14h16.74c.42 0 .78.27.78.54s-.36.54-.78.54h-16.74c-.42 0-.78-.27-.78-.54s.36-.54.78-.54zm2.16 82.62c0 .63-.48 1.08-1.14 1.08-.6 0-1.14-.45-1.14-1.08 0-.54.54-1.08 1.14-1.08.66 0 1.14.54 1.14 1.08zm8.28 0c0 .63-.48 1.08-1.14 1.08-.6 0-1.08-.45-1.08-1.08 0-.54.48-1.08 1.08-1.08.66 0 1.14.54 1.14 1.08zm7.86 0c0 .63-.54 1.08-1.14 1.08-.66 0-1.14-.45-1.14-1.08 0-.54.48-1.08 1.14-1.08.6 0 1.14.54 1.14 1.08z" fill="#fff"/>
    <path d="M1345.64 975.46h48.72v70.92h-48.72z" fill="gray"/>
    <use xlink:href="#d" transform="translate(1317.55 1075.6)" width="100%" height="100%"/>
    <use xlink:href="#e" transform="translate(1370.45 1075.6)" width="100%" height="100%"/>
    <path d="M1172.17 722h133.8c10.36 0 10.36 0 10.36 11.76v76.72c0 11.76 0 11.76-10.37 11.76h-133.8c-10.36 0-10.36 0-10.36-11.76v-76.72c0-11.76 0-11.76 10.37-11.76z" fill="#29aae1"/>
    <path d="M1172.17 731.8h134.64v77.7h-134.63v-77.7z" fill="#fff"/>
    <path d="M1173.87 734.74h131.24v71.82h-131.23v-71.82z" fill="gray"/>
    <path d="M1155 845.34h169.83V862H1155z" fill="#29aae1"/>
    <path d="M1201.4 825.88h117.48l5.95 19.74h-117.47l-5.95-19.74z" fill="#29aae1"/>
    <path d="M1276.9 825.88h-115.95l-5.95 19.6h115.94l5.95-19.6z" fill="#29aae1"/>
    <path d="M1210.42 829.66h101.66l4.08 13.16H1214.5z" fill="#fff"/>
    <path d="M1252.24 829.66h-85.34l-3.4 13.16h85.34z" fill="#fff"/>
    <use xlink:href="#f" transform="translate(1141.6 876.4)" width="100%" height="100%"/>
    <use xlink:href="#g" transform="translate(1247.5 876.4)" width="100%" height="100%"/>
    <use xlink:href="#h" transform="translate(1308.4 876.4)" width="100%" height="100%"/>
    <use xlink:href="#i" transform="translate(1215.05 898)" width="100%" height="100%"/>
    <path d="M1030 460h420v186h-420z" fill="none"/>
    <use xlink:href="#j" transform="translate(1039.278 497)" width="100%" height="100%"/>
    <use xlink:href="#k" transform="translate(1167.833 497)" width="100%" height="100%"/>
    <use xlink:href="#l" transform="translate(1307.611 497)" width="100%" height="100%"/>
    <use xlink:href="#m" transform="translate(1053.593 534.333)" width="100%" height="100%"/>
    <use xlink:href="#n" transform="translate(1077.296 534.333)" width="100%" height="100%"/>
    <use xlink:href="#o" transform="translate(1157.222 534.333)" width="100%" height="100%"/>
    <use xlink:href="#p" transform="translate(1253.37 534.333)" width="100%" height="100%"/>
    <use xlink:href="#q" transform="translate(1275.593 534.333)" width="100%" height="100%"/>
    <use xlink:href="#r" transform="translate(1356.926 534.333)" width="100%" height="100%"/>
    <use xlink:href="#s" transform="translate(1059.518 566.333)" width="100%" height="100%"/>
    <use xlink:href="#t" transform="translate(1103.963 566.333)" width="100%" height="100%"/>
    <use xlink:href="#u" transform="translate(1179.296 566.333)" width="100%" height="100%"/>
    <use xlink:href="#v" transform="translate(1217.74 566.333)" width="100%" height="100%"/>
    <use xlink:href="#w" transform="translate(1303.444 566.333)" width="100%" height="100%"/>
    <use xlink:href="#x" transform="translate(1398.26 566.333)" width="100%" height="100%"/>
    <use xlink:href="#y" transform="translate(1059.444 598.333)" width="100%" height="100%"/>
    <use xlink:href="#z" transform="translate(1160.185 598.333)" width="100%" height="100%"/>
    <use xlink:href="#A" transform="translate(1251.815 598.333)" width="100%" height="100%"/>
    <use xlink:href="#p" transform="translate(1349.518 598.333)" width="100%" height="100%"/>
    <use xlink:href="#B" transform="translate(1371.74 598.333)" width="100%" height="100%"/>
    <use xlink:href="#C" transform="translate(1188.963 630.333)" width="100%" height="100%"/>
    <path d="M1110 967V807h51.8" fill="none" stroke="#000" stroke-width="2"/>
    <path d="M1161.8 807l-14.27 4.64v-9.28z"/>
    <path d="M1161.8 805.95v2.1l-15.27 4.96v-12zm-13.27 4.3l10.03-3.25-10.03-3.26z"/>
    <path d="M1370 967V807h-53.5" fill="none" stroke="#000" stroke-width="2"/>
    <path d="M1330.77 811.64L1316.5 807l14.27-4.64z"/>
    <path d="M1331.77 813l-15.44-5v-2l15.44-5zm-12.03-6l10.03 3.26v-6.52z"/>
    <path d="M327.17 985.96h133.8c10.36 0 10.36 0 10.36 11.76v76.72c0 11.76 0 11.76-10.37 11.76h-133.8c-10.36 0-10.36 0-10.36-11.76v-76.72c0-11.76 0-11.76 10.37-11.76z" fill="#29aae1"/>
    <path d="M327.17 995.76H461.8v77.7H327.18v-77.7z" fill="#fff"/>
    <path d="M328.87 998.7H460.1v71.82H328.88V998.7z" fill="gray"/>
    <path d="M310 1109.3h169.83v16.66H310z" fill="#29aae1"/>
    <path d="M356.4 1089.84h117.5l5.95 19.74H362.36l-5.95-19.74z" fill="#29aae1"/>
    <path d="M431.9 1089.84H315.94l-5.95 19.6h115.94l5.95-19.6z" fill="#29aae1"/>
    <path d="M365.42 1093.62h101.66l4.08 13.16H369.5z" fill="#fff"/>
    <path d="M407.24 1093.62H321.9l-3.4 13.16h85.34z" fill="#fff"/>
    <use xlink:href="#D" transform="translate(288.55 1140.358)" width="100%" height="100%"/>
    <use xlink:href="#E" transform="translate(348.55 1140.358)" width="100%" height="100%"/>
    <use xlink:href="#F" transform="translate(440.5 1140.358)" width="100%" height="100%"/>
    <use xlink:href="#G" transform="translate(341.575 1161.958)" width="100%" height="100%"/>
    <use xlink:href="#H" transform="translate(379.525 1161.958)" width="100%" height="100%"/>
    <path d="M427 460h420v160H427z" fill="none"/>
    <use xlink:href="#I" transform="translate(436.167 516)" width="100%" height="100%"/>
    <use xlink:href="#J" transform="translate(564.944 516)" width="100%" height="100%"/>
    <use xlink:href="#K" transform="translate(704.722 516)" width="100%" height="100%"/>
    <use xlink:href="#L" transform="translate(466.185 553.333)" width="100%" height="100%"/>
    <use xlink:href="#M" transform="translate(565.148 553.333)" width="100%" height="100%"/>
    <use xlink:href="#N" transform="translate(662.852 553.333)" width="100%" height="100%"/>
    <use xlink:href="#O" transform="translate(760.556 553.333)" width="100%" height="100%"/>
    <use xlink:href="#P" transform="translate(466.815 585.333)" width="100%" height="100%"/>
    <use xlink:href="#Q" transform="translate(548.148 585.333)" width="100%" height="100%"/>
    <use xlink:href="#R" transform="translate(623.556 585.333)" width="100%" height="100%"/>
    <use xlink:href="#S" transform="translate(703.481 585.333)" width="100%" height="100%"/>
    <use xlink:href="#T" transform="translate(747.926 585.333)" width="100%" height="100%"/>
    <path d="M722.98 885.7v8.6c0 15.63-15.65 31.77-34.73 31.77h-102.5c-19.08 0-34.73-16.14-34.73-31.77v-8.6z" fill="#7d7c7c"/>
    <path d="M617.2 802c17.73 0 32.7 10.67 40.1 28.4 10.13-7.64 24.06-4.82 30.94 6.44 2.58 4 3.8 8.1 3.96 12.9 17.37 1.64 30.78 20.06 30.78 34.72v3.17c0 15.7-15.65 31.67-34.74 31.67h-102.5c-19.1 0-34.74-15.96-34.74-31.67v-3.17c0-12.2 9.3-28.86 22.2-32.96v-1.4c.16-26.63 19.76-48.22 44-48.1z" fill="#d2d3d3"/>
    <path d="M653.7 904.03c-1.35 0-2.5-.53-3.46-1.58-7.34-8.06-19.16-8.06-26.5 0-1.9 2.1-5 2.1-6.9 0-1.9-2.1-1.9-5.52 0-7.62 11.13-12.27 29.17-12.27 40.3 0 1.9 2.1 1.9 5.52 0 7.6-.94 1.05-2.1 1.57-3.45 1.6z" fill="#fff"/>
    <path d="M666.98 889.42c-1.4-.03-2.5-.54-3.47-1.6-14.68-16.1-38.38-16.1-53 0-2.08 1.87-5.2 1.5-6.86-.82-1.46-1.98-1.46-4.7-.07-6.7 18.5-20.3 48.37-20.3 66.87 0 1.88 2.13 1.88 5.53-.07 7.63-.9 1.02-2.07 1.56-3.4 1.56z" fill="#fff"/>
    <path d="M681.27 874.92c-1.37 0-2.46-.52-3.44-1.58-22.53-24.87-59.12-24.87-81.64 0-1.98 2.1-5.03 2.1-6.9 0-1.97-2.1-1.97-5.52 0-7.63 26.36-29.04 69.05-29.04 95.42 0 1.96 2.12 1.96 5.53.1 7.64-1 1.06-2.17 1.58-3.55 1.58z" fill="#fff"/>
    <use xlink:href="#U" transform="translate(606.525 940.484)" width="100%" height="100%"/>
    <path d="M568.57 986H705.5c10.63 0 10.63 0 10.63 12.1v78.9c0 12.1 0 12.1-10.62 12.1H568.58c-10.6 0-10.6 0-10.6-12.1v-78.9c0-12.1 0-12.1 10.6-12.1z" fill="#29aae1"/>
    <path d="M568.57 996.08h137.8V1076h-137.8z" fill="#fff"/>
    <path d="M570.3 999.1h134.34v73.88H570.3z" fill="gray"/>
    <path d="M551 1112.86h173.83V1130H551z" fill="#29aae1"/>
    <path d="M598.5 1092.85h120.24l6.1 20.3H604.58l-6.1-20.3z" fill="#29aae1"/>
    <path d="M675.76 1092.85H557.1L551 1113h118.67l6.1-20.15z" fill="#29aae1"/>
    <path d="M607.72 1096.74h104.06l4.17 13.53H611.9z" fill="#fff"/>
    <path d="M650.53 1096.74h-87.35l-3.48 13.53h87.35z" fill="#fff"/>
    <use xlink:href="#D" transform="translate(531.55 1144.4)" width="100%" height="100%"/>
    <use xlink:href="#E" transform="translate(591.55 1144.4)" width="100%" height="100%"/>
    <use xlink:href="#F" transform="translate(683.5 1144.4)" width="100%" height="100%"/>
    <use xlink:href="#V" transform="translate(561.075 1166)" width="100%" height="100%"/>
    <use xlink:href="#W" transform="translate(629.075 1166)" width="100%" height="100%"/>
    <path d="M873.22 1011h13.56c12.9 0 23.28 1.98 23.28 4.5v81c0 2.52-10.38 4.5-23.28 4.5h-13.56c-12.84 0-23.22-1.98-23.22-4.5v-81c0-2.52 10.38-4.5 23.22-4.5z" fill="#29aae1"/>
    <path d="M854.2 1018.2h51.66v73.53H854.2zm17.16-4.14h16.74c.42 0 .78.27.78.54s-.36.54-.78.54h-16.74c-.42 0-.78-.27-.78-.54s.36-.54.78-.54zm2.16 82.62c0 .63-.48 1.08-1.14 1.08-.6 0-1.14-.45-1.14-1.08 0-.54.54-1.08 1.14-1.08.66 0 1.14.54 1.14 1.08zm8.28 0c0 .63-.48 1.08-1.14 1.08-.6 0-1.08-.45-1.08-1.08 0-.54.48-1.08 1.08-1.08.66 0 1.14.54 1.14 1.08zm7.86 0c0 .63-.54 1.08-1.14 1.08-.66 0-1.14-.45-1.14-1.08 0-.54.48-1.08 1.14-1.08.6 0 1.14.54 1.14 1.08z" fill="#fff"/>
    <path d="M855.64 1019.46h48.72v70.92h-48.72z" fill="gray"/>
    <use xlink:href="#X" transform="translate(827.55 1115.4)" width="100%" height="100%"/>
    <use xlink:href="#Y" transform="translate(880.45 1115.4)" width="100%" height="100%"/>
    <use xlink:href="#Z" transform="translate(836.525 1137)" width="100%" height="100%"/>
    <use xlink:href="#aa" transform="translate(830.55 1158.6)" width="100%" height="100%"/>
    <use xlink:href="#ab" transform="translate(896.5 1158.6)" width="100%" height="100%"/>
    <use xlink:href="#H" transform="translate(845.55 1180.2)" width="100%" height="100%"/>
    <path d="M395 985.96V874.04h156" fill="none" stroke="#000" stroke-width="2"/>
    <path d="M551 874.04l-14.27 4.64v-9.27z"/>
    <path d="M553.1 873.67l-.34.85-17.03 5.53v-12.02zm-15.37 3.63l10.03-3.26-10.03-3.26z"/>
    <path d="M880 1011V874.04H723" fill="none" stroke="#000" stroke-width="2"/>
    <path d="M737.27 878.68L723 874.04l14.27-4.63z"/>
    <path d="M738.27 880.05l-17.17-5.57-.32-.77 17.5-5.67zm-12.03-6l10.03 3.25v-6.52z"/>
    <path d="M638 986v-19.96h-1v-19.96" fill="none" stroke="#000" stroke-width="2"/>
    <path d="M641.64 960.35h-9.28l4.64-14.27z"/>
    <path d="M643 961.35h-12l6-18.5zm-9.26-2h6.52L637 949.32z"/>
    <path d="M1120 1078h240v74.8h-240z" fill="none"/>
    <g>
      <use xlink:href="#ac" transform="translate(1129.6 1108.3)" width="100%" height="100%"/>
      <use xlink:href="#ad" transform="translate(1198.5 1108.3)" width="100%" height="100%"/>
      <use xlink:href="#ae" transform="translate(1232.5 1108.3)" width="100%" height="100%"/>
      <use xlink:href="#af" transform="translate(1300.5 1108.3)" width="100%" height="100%"/>
      <use xlink:href="#ag" transform="translate(1127.65 1129.9)" width="100%" height="100%"/>
      <use xlink:href="#ah" transform="translate(1189.55 1129.9)" width="100%" height="100%"/>
      <use xlink:href="#ai" transform="translate(1209.55 1129.9)" width="100%" height="100%"/>
      <use xlink:href="#aj" transform="translate(1268.45 1129.9)" width="100%" height="100%"/>
    </g>
    <path d="M602 607h70.07v120.12H602z" fill="#29aae1"/>
    <path d="M628.74 690.4h35.63c1.12 0 1.12 0 1.12 1.2 0 1.08 0 1.08-1.13 1.08h-35.63c-1.2 0-1.2 0-1.2-1.08 0-1.2 0-1.2 1.2-1.2zm.06 6.12h35.5c1.54 0 1.54 0 1.54 1.56v.36c0 1.56 0 1.56-1.54 1.56h-35.5c-1.6 0-1.6 0-1.6-1.56v-.36c0-1.56 0-1.56 1.6-1.56zm.15 7.56h35.56c1.55 0 1.55 0 1.55 1.56v.36c0 1.56 0 1.56-1.54 1.56h-35.55c-1.54 0-1.54 0-1.54-1.56v-.36c0-1.56 0-1.56 1.55-1.56zm32.41-38.76c0 3.12-2.52 5.64-5.74 5.64s-5.8-2.52-5.8-5.64c0-3.12 2.58-5.64 5.8-5.64 3.22 0 5.74 2.52 5.74 5.64z" fill="#fff"/>
    <path d="M659.05 665.32c0 1.92-1.54 3.48-3.5 3.48s-3.57-1.56-3.57-3.48 1.6-3.48 3.57-3.48c1.96 0 3.5 1.56 3.5 3.48z" fill="#7fcced"/>
    <g>
      <use xlink:href="#ak" transform="translate(610.55 745.6)" width="100%" height="100%"/>
    </g>
    <path d="M637 806.98V757" fill="none" stroke="#000" stroke-width="2"/>
    <path d="M638 807.6l-1-.62h1zm3.64-36.33h-9.28L637 757z"/>
    <path d="M643 772.27h-12l6-18.5zm-9.26-2h6.52L637 760.24z"/>
    <defs>
      <path d="M266 0h-40l-56-210L115 0H75L2-248h35L96-30l15-64 43-154h32l59 218 59-218h35" id="al"/>
      <path d="M100-194c62-1 85 37 85 99 1 63-27 99-86 99S16-35 15-95c0-66 28-99 85-99zM99-20c44 1 53-31 53-75 0-43-8-75-51-75s-53 32-53 75 10 74 51 75" id="am"/>
      <path d="M114-163C36-179 61-72 57 0H25l-1-190h30c1 12-1 29 2 39 6-27 23-49 58-41v29" id="an"/>
      <path d="M135-143c-3-34-86-38-87 0 15 53 115 12 119 90S17 21 10-45l28-5c4 36 97 45 98 0-10-56-113-15-118-90-4-57 82-63 122-42 12 7 21 19 24 35" id="ao"/>
      <path d="M106-169C34-169 62-67 57 0H25v-261h32l-1 103c12-21 28-36 61-36 89 0 53 116 60 194h-32v-121c2-32-8-49-39-48" id="ap"/>
      <path d="M24-231v-30h32v30zM24 0v-190h32V0H24" id="aq"/>
      <path d="M115-194c55 1 70 41 70 98S169 2 115 4C84 4 66-9 55-30l1 105H24l-1-265h31l2 30c10-21 28-34 59-34zm-8 174c40 0 45-34 45-75s-6-73-45-74c-42 0-51 32-51 76 0 43 10 73 51 73" id="ar"/>
      <g id="a">
        <use transform="scale(.14815)" xlink:href="#al" width="100%" height="100%"/>
        <use transform="matrix(.14815 0 0 .14815 49.185 0)" xlink:href="#am" width="100%" height="100%"/>
        <use transform="matrix(.14815 0 0 .14815 78.815 0)" xlink:href="#an" width="100%" height="100%"/>
        <use transform="matrix(.14815 0 0 .14815 96.444 0)" xlink:href="#ao" width="100%" height="100%"/>
        <use transform="matrix(.14815 0 0 .14815 123.111 0)" xlink:href="#ap" width="100%" height="100%"/>
        <use transform="matrix(.14815 0 0 .14815 152.74 0)" xlink:href="#aq" width="100%" height="100%"/>
        <use transform="matrix(.14815 0 0 .14815 164.444 0)" xlink:href="#ar" width="100%" height="100%"/>
      </g>
      <path d="M185-189c-5-48-123-54-124 2 14 75 158 14 163 119 3 78-121 87-175 55-17-10-28-26-33-46l33-7c5 56 141 63 141-1 0-78-155-14-162-118-5-82 145-84 179-34 5 7 8 16 11 25" id="as"/>
      <path d="M100-194c63 0 86 42 84 106H49c0 40 14 67 53 68 26 1 43-12 49-29l28 8c-11 28-37 45-77 45C44 4 14-33 15-96c1-61 26-98 85-98zm52 81c6-60-76-77-97-28-3 7-6 17-6 28h103" id="at"/>
      <path d="M108 0H70L1-190h34L89-25l56-165h34" id="au"/>
      <path d="M96-169c-40 0-48 33-48 73s9 75 48 75c24 0 41-14 43-38l32 2c-6 37-31 61-74 61-59 0-76-41-82-99-10-93 101-131 147-64 4 7 5 14 7 22l-32 3c-4-21-16-35-41-35" id="av"/>
      <g id="b">
        <use transform="scale(.14815)" xlink:href="#as" width="100%" height="100%"/>
        <use transform="matrix(.14815 0 0 .14815 35.556 0)" xlink:href="#at" width="100%" height="100%"/>
        <use transform="matrix(.14815 0 0 .14815 65.185 0)" xlink:href="#an" width="100%" height="100%"/>
        <use transform="matrix(.14815 0 0 .14815 82.815 0)" xlink:href="#au" width="100%" height="100%"/>
        <use transform="matrix(.14815 0 0 .14815 109.481 0)" xlink:href="#aq" width="100%" height="100%"/>
        <use transform="matrix(.14815 0 0 .14815 121.185 0)" xlink:href="#av" width="100%" height="100%"/>
        <use transform="matrix(.14815 0 0 .14815 147.852 0)" xlink:href="#at" width="100%" height="100%"/>
      </g>
      <path d="M140-251c81 0 123 46 123 126C263-46 219 4 140 4 59 4 17-45 17-125s42-126 123-126zm0 227c63 0 89-41 89-101s-29-99-89-99c-61 0-89 39-89 99S79-25 140-24" id="aw"/>
      <path d="M177-190C167-65 218 103 67 71c-23-6-38-20-44-43l32-5c15 47 100 32 89-28v-30C133-14 115 1 83 1 29 1 15-40 15-95c0-56 16-97 71-98 29-1 48 16 59 35 1-10 0-23 2-32zM94-22c36 0 50-32 50-73 0-42-14-75-50-75-39 0-46 34-46 75s6 73 46 73" id="ax"/>
      <path d="M141-36C126-15 110 5 73 4 37 3 15-17 15-53c-1-64 63-63 125-63 3-35-9-54-41-54-24 1-41 7-42 31l-33-3c5-37 33-52 76-52 45 0 72 20 72 64v82c-1 20 7 32 28 27v20c-31 9-61-2-59-35zM48-53c0 20 12 33 32 33 41-3 63-29 60-74-43 2-92-5-92 41" id="ay"/>
      <path d="M117-194c89-4 53 116 60 194h-32v-121c0-31-8-49-39-48C34-167 62-67 57 0H25l-1-190h30c1 10-1 24 2 32 11-22 29-35 61-36" id="az"/>
      <path d="M9 0v-24l116-142H16v-24h144v24L44-24h123V0H9" id="aA"/>
      <g id="c">
        <use transform="scale(.14815)" xlink:href="#aw" width="100%" height="100%"/>
        <use transform="matrix(.14815 0 0 .14815 41.481 0)" xlink:href="#an" width="100%" height="100%"/>
        <use transform="matrix(.14815 0 0 .14815 59.111 0)" xlink:href="#ax" width="100%" height="100%"/>
        <use transform="matrix(.14815 0 0 .14815 88.74 0)" xlink:href="#ay" width="100%" height="100%"/>
        <use transform="matrix(.14815 0 0 .14815 118.37 0)" xlink:href="#az" width="100%" height="100%"/>
        <use transform="matrix(.14815 0 0 .14815 148 0)" xlink:href="#aq" width="100%" height="100%"/>
        <use transform="matrix(.14815 0 0 .14815 159.704 0)" xlink:href="#aA" width="100%" height="100%"/>
        <use transform="matrix(.14815 0 0 .14815 186.37 0)" xlink:href="#at" width="100%" height="100%"/>
        <use transform="matrix(.14815 0 0 .14815 216 0)" xlink:href="#an" width="100%" height="100%"/>
      </g>
      <path d="M210-169c-67 3-38 105-44 169h-31v-121c0-29-5-50-35-48C34-165 62-65 56 0H25l-1-190h30c1 10-1 24 2 32 10-44 99-50 107 0 11-21 27-35 58-36 85-2 47 119 55 194h-31v-121c0-29-5-49-35-48" id="aB"/>
      <path d="M59-47c-2 24 18 29 38 22v24C64 9 27 4 27-40v-127H5v-23h24l9-43h21v43h35v23H59v120" id="aC"/>
      <g id="d">
        <use transform="scale(.05)" xlink:href="#as" width="100%" height="100%"/>
        <use transform="translate(12) scale(.05)" xlink:href="#aB" width="100%" height="100%"/>
        <use transform="translate(26.95) scale(.05)" xlink:href="#ay" width="100%" height="100%"/>
        <use transform="translate(36.95) scale(.05)" xlink:href="#an" width="100%" height="100%"/>
        <use transform="translate(42.9) scale(.05)" xlink:href="#aC" width="100%" height="100%"/>
      </g>
      <path d="M30-248c87 1 191-15 191 75 0 78-77 80-158 76V0H30zm33 125c57 0 124 11 124-50 0-59-68-47-124-48v98" id="aD"/>
      <g id="e">
        <use transform="scale(.05)" xlink:href="#aD" width="100%" height="100%"/>
        <use transform="translate(12) scale(.05)" xlink:href="#ap" width="100%" height="100%"/>
        <use transform="translate(22) scale(.05)" xlink:href="#am" width="100%" height="100%"/>
        <use transform="translate(32) scale(.05)" xlink:href="#az" width="100%" height="100%"/>
        <use transform="translate(42) scale(.05)" xlink:href="#at" width="100%" height="100%"/>
      </g>
      <g id="f">
        <use transform="scale(.05)" xlink:href="#aD" width="100%" height="100%"/>
        <use transform="translate(12) scale(.05)" xlink:href="#an" width="100%" height="100%"/>
        <use transform="translate(17.95) scale(.05)" xlink:href="#at" width="100%" height="100%"/>
        <use transform="translate(27.95) scale(.05)" xlink:href="#ao" width="100%" height="100%"/>
        <use transform="translate(36.95) scale(.05)" xlink:href="#at" width="100%" height="100%"/>
        <use transform="translate(46.95) scale(.05)" xlink:href="#az" width="100%" height="100%"/>
        <use transform="translate(56.95) scale(.05)" xlink:href="#aC" width="100%" height="100%"/>
        <use transform="translate(61.95) scale(.05)" xlink:href="#ay" width="100%" height="100%"/>
        <use transform="translate(71.95) scale(.05)" xlink:href="#aC" width="100%" height="100%"/>
        <use transform="translate(76.95) scale(.05)" xlink:href="#aq" width="100%" height="100%"/>
        <use transform="translate(80.9) scale(.05)" xlink:href="#am" width="100%" height="100%"/>
        <use transform="translate(90.9) scale(.05)" xlink:href="#az" width="100%" height="100%"/>
      </g>
      <path d="M85-194c31 0 48 13 60 33l-1-100h32l1 261h-30c-2-10 0-23-3-31C134-8 116 4 85 4 32 4 16-35 15-94c0-66 23-100 70-100zm9 24c-40 0-46 34-46 75 0 40 6 74 45 74 42 0 51-32 51-76 0-42-9-74-50-73" id="aE"/>
      <path d="M24 0v-261h32V0H24" id="aF"/>
      <path d="M179-190L93 31C79 59 56 82 12 73V49c39 6 53-20 64-50L1-190h34L92-34l54-156h33" id="aG"/>
      <g id="g">
        <use transform="scale(.05)" xlink:href="#aE" width="100%" height="100%"/>
        <use transform="translate(10) scale(.05)" xlink:href="#aq" width="100%" height="100%"/>
        <use transform="translate(13.95) scale(.05)" xlink:href="#ao" width="100%" height="100%"/>
        <use transform="translate(22.95) scale(.05)" xlink:href="#ar" width="100%" height="100%"/>
        <use transform="translate(32.95) scale(.05)" xlink:href="#aF" width="100%" height="100%"/>
        <use transform="translate(36.9) scale(.05)" xlink:href="#ay" width="100%" height="100%"/>
        <use transform="translate(46.9) scale(.05)" xlink:href="#aG" width="100%" height="100%"/>
      </g>
      <g id="h">
        <use transform="scale(.05)" xlink:href="#ay" width="100%" height="100%"/>
        <use transform="translate(10) scale(.05)" xlink:href="#az" width="100%" height="100%"/>
        <use transform="translate(20) scale(.05)" xlink:href="#aE" width="100%" height="100%"/>
      </g>
      <g id="i">
        <use transform="scale(.05)" xlink:href="#ao" width="100%" height="100%"/>
        <use transform="translate(9) scale(.05)" xlink:href="#at" width="100%" height="100%"/>
        <use transform="translate(19) scale(.05)" xlink:href="#an" width="100%" height="100%"/>
        <use transform="translate(24.95) scale(.05)" xlink:href="#au" width="100%" height="100%"/>
        <use transform="translate(33.95) scale(.05)" xlink:href="#at" width="100%" height="100%"/>
        <use transform="translate(43.95) scale(.05)" xlink:href="#an" width="100%" height="100%"/>
      </g>
      <path d="M30-248c118-7 216 8 213 122C240-48 200 0 122 0H30zM63-27c89 8 146-16 146-99s-60-101-146-95v194" id="aH"/>
      <path d="M84 4C-5 8 30-112 23-190h32v120c0 31 7 50 39 49 72-2 45-101 50-169h31l1 190h-30c-1-10 1-25-2-33-11 22-28 36-60 37" id="aI"/>
      <g id="j">
        <use transform="scale(.11111)" xlink:href="#aH" width="100%" height="100%"/>
        <use transform="translate(28.778) scale(.11111)" xlink:href="#aI" width="100%" height="100%"/>
        <use transform="translate(51) scale(.11111)" xlink:href="#an" width="100%" height="100%"/>
        <use transform="translate(64.222) scale(.11111)" xlink:href="#aq" width="100%" height="100%"/>
        <use transform="translate(73) scale(.11111)" xlink:href="#az" width="100%" height="100%"/>
        <use transform="translate(95.222) scale(.11111)" xlink:href="#ax" width="100%" height="100%"/>
      </g>
      <path d="M212-179c-10-28-35-45-73-45-59 0-87 40-87 99 0 60 29 101 89 101 43 0 62-24 78-52l27 14C228-24 195 4 139 4 59 4 22-46 18-125c-6-104 99-153 187-111 19 9 31 26 39 46" id="aJ"/>
      <g id="k">
        <use transform="scale(.11111)" xlink:href="#aJ" width="100%" height="100%"/>
        <use transform="translate(28.778) scale(.11111)" xlink:href="#ap" width="100%" height="100%"/>
        <use transform="translate(51) scale(.11111)" xlink:href="#aI" width="100%" height="100%"/>
        <use transform="translate(73.222) scale(.11111)" xlink:href="#an" width="100%" height="100%"/>
        <use transform="translate(86.444) scale(.11111)" xlink:href="#av" width="100%" height="100%"/>
        <use transform="translate(106.444) scale(.11111)" xlink:href="#ap" width="100%" height="100%"/>
      </g>
      <g id="l">
        <use transform="scale(.11111)" xlink:href="#as" width="100%" height="100%"/>
        <use transform="translate(26.667) scale(.11111)" xlink:href="#at" width="100%" height="100%"/>
        <use transform="translate(48.889) scale(.11111)" xlink:href="#an" width="100%" height="100%"/>
        <use transform="translate(62.111) scale(.11111)" xlink:href="#au" width="100%" height="100%"/>
        <use transform="translate(82.111) scale(.11111)" xlink:href="#aq" width="100%" height="100%"/>
        <use transform="translate(90.889) scale(.11111)" xlink:href="#av" width="100%" height="100%"/>
        <use transform="translate(110.889) scale(.11111)" xlink:href="#at" width="100%" height="100%"/>
      </g>
      <path d="M205 0l-28-72H64L36 0H1l101-248h38L239 0zm-38-99l-47-123c-12 45-31 82-46 123h93" id="aK"/>
      <use transform="scale(.07407)" xlink:href="#aK" id="m" width="100%" height="100%"/>
      <g id="n">
        <use transform="scale(.07407)" xlink:href="#aF" width="100%" height="100%"/>
        <use transform="matrix(.07407 0 0 .07407 5.852 0)" xlink:href="#ay" width="100%" height="100%"/>
        <use transform="matrix(.07407 0 0 .07407 20.667 0)" xlink:href="#ar" width="100%" height="100%"/>
        <use transform="matrix(.07407 0 0 .07407 35.481 0)" xlink:href="#aC" width="100%" height="100%"/>
        <use transform="matrix(.07407 0 0 .07407 42.889 0)" xlink:href="#am" width="100%" height="100%"/>
        <use transform="matrix(.07407 0 0 .07407 57.704 0)" xlink:href="#ar" width="100%" height="100%"/>
      </g>
      <g id="o">
        <use transform="scale(.07407)" xlink:href="#an" width="100%" height="100%"/>
        <use transform="matrix(.07407 0 0 .07407 8.815 0)" xlink:href="#aI" width="100%" height="100%"/>
        <use transform="matrix(.07407 0 0 .07407 23.63 0)" xlink:href="#az" width="100%" height="100%"/>
        <use transform="matrix(.07407 0 0 .07407 38.444 0)" xlink:href="#az" width="100%" height="100%"/>
        <use transform="matrix(.07407 0 0 .07407 53.26 0)" xlink:href="#aq" width="100%" height="100%"/>
        <use transform="matrix(.07407 0 0 .07407 59.111 0)" xlink:href="#az" width="100%" height="100%"/>
        <use transform="matrix(.07407 0 0 .07407 73.926 0)" xlink:href="#ax" width="100%" height="100%"/>
      </g>
      <use transform="scale(.07407)" xlink:href="#ay" id="p" width="100%" height="100%"/>
      <g id="q">
        <use transform="scale(.07407)" xlink:href="#ao" width="100%" height="100%"/>
        <use transform="matrix(.07407 0 0 .07407 13.333 0)" xlink:href="#at" width="100%" height="100%"/>
        <use transform="matrix(.07407 0 0 .07407 28.148 0)" xlink:href="#an" width="100%" height="100%"/>
        <use transform="matrix(.07407 0 0 .07407 36.963 0)" xlink:href="#au" width="100%" height="100%"/>
        <use transform="matrix(.07407 0 0 .07407 50.296 0)" xlink:href="#at" width="100%" height="100%"/>
        <use transform="matrix(.07407 0 0 .07407 65.111 0)" xlink:href="#an" width="100%" height="100%"/>
      </g>
      <g id="r">
        <use transform="scale(.07407)" xlink:href="#ax" width="100%" height="100%"/>
        <use transform="matrix(.07407 0 0 .07407 14.815 0)" xlink:href="#aq" width="100%" height="100%"/>
        <use transform="matrix(.07407 0 0 .07407 20.667 0)" xlink:href="#au" width="100%" height="100%"/>
        <use transform="matrix(.07407 0 0 .07407 34 0)" xlink:href="#aq" width="100%" height="100%"/>
        <use transform="matrix(.07407 0 0 .07407 39.852 0)" xlink:href="#az" width="100%" height="100%"/>
        <use transform="matrix(.07407 0 0 .07407 54.667 0)" xlink:href="#ax" width="100%" height="100%"/>
      </g>
      <g id="s">
        <use transform="scale(.07407)" xlink:href="#aC" width="100%" height="100%"/>
        <use transform="matrix(.07407 0 0 .07407 7.407 0)" xlink:href="#ap" width="100%" height="100%"/>
        <use transform="matrix(.07407 0 0 .07407 22.222 0)" xlink:href="#at" width="100%" height="100%"/>
      </g>
      <path d="M115-194c53 0 69 39 70 98 0 66-23 100-70 100C84 3 66-7 56-30L54 0H23l1-261h32v101c10-23 28-34 59-34zm-8 174c40 0 45-34 45-75 0-40-5-75-45-74-42 0-51 32-51 76 0 43 10 73 51 73" id="aL"/>
      <g id="t">
        <use transform="scale(.07407)" xlink:href="#ay" width="100%" height="100%"/>
        <use transform="matrix(.07407 0 0 .07407 14.815 0)" xlink:href="#aL" width="100%" height="100%"/>
        <use transform="matrix(.07407 0 0 .07407 29.63 0)" xlink:href="#aq" width="100%" height="100%"/>
        <use transform="matrix(.07407 0 0 .07407 35.481 0)" xlink:href="#aF" width="100%" height="100%"/>
        <use transform="matrix(.07407 0 0 .07407 41.333 0)" xlink:href="#aq" width="100%" height="100%"/>
        <use transform="matrix(.07407 0 0 .07407 47.185 0)" xlink:href="#aC" width="100%" height="100%"/>
        <use transform="matrix(.07407 0 0 .07407 54.593 0)" xlink:href="#aG" width="100%" height="100%"/>
      </g>
      <path d="M101-234c-31-9-42 10-38 44h38v23H63V0H32v-167H5v-23h27c-7-52 17-82 69-68v24" id="aM"/>
      <g id="u">
        <use transform="scale(.07407)" xlink:href="#aM" width="100%" height="100%"/>
        <use transform="matrix(.07407 0 0 .07407 7.407 0)" xlink:href="#am" width="100%" height="100%"/>
        <use transform="matrix(.07407 0 0 .07407 22.222 0)" xlink:href="#an" width="100%" height="100%"/>
      </g>
      <g id="v">
        <use transform="scale(.07407)" xlink:href="#aB" width="100%" height="100%"/>
        <use transform="matrix(.07407 0 0 .07407 22.148 0)" xlink:href="#am" width="100%" height="100%"/>
        <use transform="matrix(.07407 0 0 .07407 36.963 0)" xlink:href="#aL" width="100%" height="100%"/>
        <use transform="matrix(.07407 0 0 .07407 51.778 0)" xlink:href="#aq" width="100%" height="100%"/>
        <use transform="matrix(.07407 0 0 .07407 57.63 0)" xlink:href="#aF" width="100%" height="100%"/>
        <use transform="matrix(.07407 0 0 .07407 63.481 0)" xlink:href="#at" width="100%" height="100%"/>
      </g>
      <g id="w">
        <use transform="scale(.07407)" xlink:href="#ar" width="100%" height="100%"/>
        <use transform="matrix(.07407 0 0 .07407 14.815 0)" xlink:href="#ap" width="100%" height="100%"/>
        <use transform="matrix(.07407 0 0 .07407 29.63 0)" xlink:href="#am" width="100%" height="100%"/>
        <use transform="matrix(.07407 0 0 .07407 44.444 0)" xlink:href="#az" width="100%" height="100%"/>
        <use transform="matrix(.07407 0 0 .07407 59.26 0)" xlink:href="#at" width="100%" height="100%"/>
        <use transform="matrix(.07407 0 0 .07407 74.074 0)" xlink:href="#ao" width="100%" height="100%"/>
      </g>
      <g id="x">
        <use transform="scale(.07407)" xlink:href="#aC" width="100%" height="100%"/>
        <use transform="matrix(.07407 0 0 .07407 7.407 0)" xlink:href="#am" width="100%" height="100%"/>
      </g>
      <g id="y">
        <use transform="scale(.07407)" xlink:href="#av" width="100%" height="100%"/>
        <use transform="matrix(.07407 0 0 .07407 13.333 0)" xlink:href="#am" width="100%" height="100%"/>
        <use transform="matrix(.07407 0 0 .07407 28.148 0)" xlink:href="#az" width="100%" height="100%"/>
        <use transform="matrix(.07407 0 0 .07407 42.963 0)" xlink:href="#az" width="100%" height="100%"/>
        <use transform="matrix(.07407 0 0 .07407 57.778 0)" xlink:href="#at" width="100%" height="100%"/>
        <use transform="matrix(.07407 0 0 .07407 72.593 0)" xlink:href="#av" width="100%" height="100%"/>
        <use transform="matrix(.07407 0 0 .07407 85.926 0)" xlink:href="#aC" width="100%" height="100%"/>
      </g>
      <g id="z">
        <use transform="scale(.07407)" xlink:href="#aE" width="100%" height="100%"/>
        <use transform="matrix(.07407 0 0 .07407 14.815 0)" xlink:href="#aq" width="100%" height="100%"/>
        <use transform="matrix(.07407 0 0 .07407 20.667 0)" xlink:href="#an" width="100%" height="100%"/>
        <use transform="matrix(.07407 0 0 .07407 29.481 0)" xlink:href="#at" width="100%" height="100%"/>
        <use transform="matrix(.07407 0 0 .07407 44.296 0)" xlink:href="#av" width="100%" height="100%"/>
        <use transform="matrix(.07407 0 0 .07407 57.63 0)" xlink:href="#aC" width="100%" height="100%"/>
        <use transform="matrix(.07407 0 0 .07407 65.037 0)" xlink:href="#aF" width="100%" height="100%"/>
        <use transform="matrix(.07407 0 0 .07407 70.889 0)" xlink:href="#aG" width="100%" height="100%"/>
      </g>
      <g id="A">
        <use transform="scale(.07407)" xlink:href="#aC" width="100%" height="100%"/>
        <use transform="matrix(.07407 0 0 .07407 7.407 0)" xlink:href="#ap" width="100%" height="100%"/>
        <use transform="matrix(.07407 0 0 .07407 22.222 0)" xlink:href="#an" width="100%" height="100%"/>
        <use transform="matrix(.07407 0 0 .07407 31.037 0)" xlink:href="#am" width="100%" height="100%"/>
        <use transform="matrix(.07407 0 0 .07407 45.852 0)" xlink:href="#aI" width="100%" height="100%"/>
        <use transform="matrix(.07407 0 0 .07407 60.667 0)" xlink:href="#ax" width="100%" height="100%"/>
        <use transform="matrix(.07407 0 0 .07407 75.481 0)" xlink:href="#ap" width="100%" height="100%"/>
      </g>
      <path d="M206 0h-36l-40-164L89 0H53L-1-190h32L70-26l43-164h34l41 164 42-164h31" id="aN"/>
      <g id="B">
        <use transform="scale(.07407)" xlink:href="#aN" width="100%" height="100%"/>
        <use transform="matrix(.07407 0 0 .07407 19.185 0)" xlink:href="#at" width="100%" height="100%"/>
        <use transform="matrix(.07407 0 0 .07407 34 0)" xlink:href="#aL" width="100%" height="100%"/>
      </g>
      <g id="C">
        <use transform="scale(.07407)" xlink:href="#aq" width="100%" height="100%"/>
        <use transform="matrix(.07407 0 0 .07407 5.852 0)" xlink:href="#az" width="100%" height="100%"/>
        <use transform="matrix(.07407 0 0 .07407 20.667 0)" xlink:href="#aC" width="100%" height="100%"/>
        <use transform="matrix(.07407 0 0 .07407 28.074 0)" xlink:href="#at" width="100%" height="100%"/>
        <use transform="matrix(.07407 0 0 .07407 42.889 0)" xlink:href="#an" width="100%" height="100%"/>
        <use transform="matrix(.07407 0 0 .07407 51.704 0)" xlink:href="#aM" width="100%" height="100%"/>
        <use transform="matrix(.07407 0 0 .07407 59.111 0)" xlink:href="#ay" width="100%" height="100%"/>
        <use transform="matrix(.07407 0 0 .07407 73.926 0)" xlink:href="#av" width="100%" height="100%"/>
        <use transform="matrix(.07407 0 0 .07407 87.26 0)" xlink:href="#at" width="100%" height="100%"/>
      </g>
      <path d="M30 0v-248h33v221h125V0H30" id="aO"/>
      <g id="D">
        <use transform="scale(.05)" xlink:href="#aO" width="100%" height="100%"/>
        <use transform="translate(10) scale(.05)" xlink:href="#ay" width="100%" height="100%"/>
        <use transform="translate(20) scale(.05)" xlink:href="#ar" width="100%" height="100%"/>
        <use transform="translate(30) scale(.05)" xlink:href="#aC" width="100%" height="100%"/>
        <use transform="translate(35) scale(.05)" xlink:href="#am" width="100%" height="100%"/>
        <use transform="translate(45) scale(.05)" xlink:href="#ar" width="100%" height="100%"/>
      </g>
      <g id="E">
        <use transform="scale(.05)" xlink:href="#av" width="100%" height="100%"/>
        <use transform="translate(9) scale(.05)" xlink:href="#am" width="100%" height="100%"/>
        <use transform="translate(19) scale(.05)" xlink:href="#az" width="100%" height="100%"/>
        <use transform="translate(29) scale(.05)" xlink:href="#az" width="100%" height="100%"/>
        <use transform="translate(39) scale(.05)" xlink:href="#at" width="100%" height="100%"/>
        <use transform="translate(49) scale(.05)" xlink:href="#av" width="100%" height="100%"/>
        <use transform="translate(58) scale(.05)" xlink:href="#aC" width="100%" height="100%"/>
        <use transform="translate(63) scale(.05)" xlink:href="#aq" width="100%" height="100%"/>
        <use transform="translate(66.95) scale(.05)" xlink:href="#az" width="100%" height="100%"/>
        <use transform="translate(76.95) scale(.05)" xlink:href="#ax" width="100%" height="100%"/>
      </g>
      <g id="F">
        <use transform="scale(.05)" xlink:href="#aC" width="100%" height="100%"/>
        <use transform="translate(5) scale(.05)" xlink:href="#ap" width="100%" height="100%"/>
        <use transform="translate(15) scale(.05)" xlink:href="#an" width="100%" height="100%"/>
        <use transform="translate(20.95) scale(.05)" xlink:href="#am" width="100%" height="100%"/>
        <use transform="translate(30.95) scale(.05)" xlink:href="#aI" width="100%" height="100%"/>
        <use transform="translate(40.95) scale(.05)" xlink:href="#ax" width="100%" height="100%"/>
        <use transform="translate(50.95) scale(.05)" xlink:href="#ap" width="100%" height="100%"/>
      </g>
      <g id="G">
        <use transform="scale(.05)" xlink:href="#aN" width="100%" height="100%"/>
        <use transform="translate(12.95) scale(.05)" xlink:href="#at" width="100%" height="100%"/>
        <use transform="translate(22.95) scale(.05)" xlink:href="#aL" width="100%" height="100%"/>
      </g>
      <g id="H">
        <use transform="scale(.05)" xlink:href="#aq" width="100%" height="100%"/>
        <use transform="translate(3.95) scale(.05)" xlink:href="#az" width="100%" height="100%"/>
        <use transform="translate(13.95) scale(.05)" xlink:href="#aC" width="100%" height="100%"/>
        <use transform="translate(18.95) scale(.05)" xlink:href="#at" width="100%" height="100%"/>
        <use transform="translate(28.95) scale(.05)" xlink:href="#an" width="100%" height="100%"/>
        <use transform="translate(34.9) scale(.05)" xlink:href="#aM" width="100%" height="100%"/>
        <use transform="translate(39.9) scale(.05)" xlink:href="#ay" width="100%" height="100%"/>
        <use transform="translate(49.9) scale(.05)" xlink:href="#av" width="100%" height="100%"/>
        <use transform="translate(58.9) scale(.05)" xlink:href="#at" width="100%" height="100%"/>
      </g>
      <path d="M160-131c35 5 61 23 61 61C221 17 115-2 30 0v-248c76 3 177-17 177 60 0 33-19 50-47 57zm-97-11c50-1 110 9 110-42 0-47-63-36-110-37zm0 115c55-2 124 14 124-45 0-56-70-42-124-44v89" id="aP"/>
      <g id="I">
        <use transform="scale(.11111)" xlink:href="#aP" width="100%" height="100%"/>
        <use transform="translate(26.667) scale(.11111)" xlink:href="#at" width="100%" height="100%"/>
        <use transform="translate(48.889) scale(.11111)" xlink:href="#aM" width="100%" height="100%"/>
        <use transform="translate(60) scale(.11111)" xlink:href="#am" width="100%" height="100%"/>
        <use transform="translate(82.222) scale(.11111)" xlink:href="#an" width="100%" height="100%"/>
        <use transform="translate(95.444) scale(.11111)" xlink:href="#at" width="100%" height="100%"/>
      </g>
      <g id="J">
        <use transform="scale(.11111)" xlink:href="#aJ" width="100%" height="100%"/>
        <use transform="translate(28.778) scale(.11111)" xlink:href="#ap" width="100%" height="100%"/>
        <use transform="translate(51) scale(.11111)" xlink:href="#aI" width="100%" height="100%"/>
        <use transform="translate(73.222) scale(.11111)" xlink:href="#an" width="100%" height="100%"/>
        <use transform="translate(86.444) scale(.11111)" xlink:href="#av" width="100%" height="100%"/>
        <use transform="translate(106.444) scale(.11111)" xlink:href="#ap" width="100%" height="100%"/>
      </g>
      <g id="K">
        <use transform="scale(.11111)" xlink:href="#as" width="100%" height="100%"/>
        <use transform="translate(26.667) scale(.11111)" xlink:href="#at" width="100%" height="100%"/>
        <use transform="translate(48.889) scale(.11111)" xlink:href="#an" width="100%" height="100%"/>
        <use transform="translate(62.111) scale(.11111)" xlink:href="#au" width="100%" height="100%"/>
        <use transform="translate(82.111) scale(.11111)" xlink:href="#aq" width="100%" height="100%"/>
        <use transform="translate(90.889) scale(.11111)" xlink:href="#av" width="100%" height="100%"/>
        <use transform="translate(110.889) scale(.11111)" xlink:href="#at" width="100%" height="100%"/>
      </g>
      <path d="M240 0l2-218c-23 76-54 145-80 218h-23L58-218 59 0H30v-248h44l77 211c21-75 51-140 76-211h43V0h-30" id="aQ"/>
      <g id="L">
        <use transform="scale(.07407)" xlink:href="#aQ" width="100%" height="100%"/>
        <use transform="matrix(.07407 0 0 .07407 22.148 0)" xlink:href="#aI" width="100%" height="100%"/>
        <use transform="matrix(.07407 0 0 .07407 36.963 0)" xlink:href="#aF" width="100%" height="100%"/>
        <use transform="matrix(.07407 0 0 .07407 42.815 0)" xlink:href="#aC" width="100%" height="100%"/>
        <use transform="matrix(.07407 0 0 .07407 50.222 0)" xlink:href="#aq" width="100%" height="100%"/>
        <use transform="matrix(.07407 0 0 .07407 56.074 0)" xlink:href="#ar" width="100%" height="100%"/>
        <use transform="matrix(.07407 0 0 .07407 70.889 0)" xlink:href="#aF" width="100%" height="100%"/>
        <use transform="matrix(.07407 0 0 .07407 76.74 0)" xlink:href="#at" width="100%" height="100%"/>
      </g>
      <g id="M">
        <use transform="scale(.07407)" xlink:href="#aE" width="100%" height="100%"/>
        <use transform="matrix(.07407 0 0 .07407 14.815 0)" xlink:href="#at" width="100%" height="100%"/>
        <use transform="matrix(.07407 0 0 .07407 29.63 0)" xlink:href="#au" width="100%" height="100%"/>
        <use transform="matrix(.07407 0 0 .07407 42.963 0)" xlink:href="#aq" width="100%" height="100%"/>
        <use transform="matrix(.07407 0 0 .07407 48.815 0)" xlink:href="#av" width="100%" height="100%"/>
        <use transform="matrix(.07407 0 0 .07407 62.148 0)" xlink:href="#at" width="100%" height="100%"/>
        <use transform="matrix(.07407 0 0 .07407 76.963 0)" xlink:href="#ao" width="100%" height="100%"/>
      </g>
      <g id="N">
        <use transform="scale(.07407)" xlink:href="#ao" width="100%" height="100%"/>
        <use transform="matrix(.07407 0 0 .07407 13.333 0)" xlink:href="#aG" width="100%" height="100%"/>
        <use transform="matrix(.07407 0 0 .07407 26.667 0)" xlink:href="#az" width="100%" height="100%"/>
        <use transform="matrix(.07407 0 0 .07407 41.481 0)" xlink:href="#av" width="100%" height="100%"/>
        <use transform="matrix(.07407 0 0 .07407 54.815 0)" xlink:href="#aq" width="100%" height="100%"/>
        <use transform="matrix(.07407 0 0 .07407 60.667 0)" xlink:href="#az" width="100%" height="100%"/>
        <use transform="matrix(.07407 0 0 .07407 75.481 0)" xlink:href="#ax" width="100%" height="100%"/>
      </g>
      <g id="O">
        <use transform="scale(.07407)" xlink:href="#aN" width="100%" height="100%"/>
        <use transform="matrix(.07407 0 0 .07407 19.185 0)" xlink:href="#aq" width="100%" height="100%"/>
        <use transform="matrix(.07407 0 0 .07407 25.037 0)" xlink:href="#aC" width="100%" height="100%"/>
        <use transform="matrix(.07407 0 0 .07407 32.444 0)" xlink:href="#ap" width="100%" height="100%"/>
      </g>
      <g id="P">
        <use transform="scale(.07407)" xlink:href="#ao" width="100%" height="100%"/>
        <use transform="matrix(.07407 0 0 .07407 13.333 0)" xlink:href="#at" width="100%" height="100%"/>
        <use transform="matrix(.07407 0 0 .07407 28.148 0)" xlink:href="#an" width="100%" height="100%"/>
        <use transform="matrix(.07407 0 0 .07407 36.963 0)" xlink:href="#au" width="100%" height="100%"/>
        <use transform="matrix(.07407 0 0 .07407 50.296 0)" xlink:href="#at" width="100%" height="100%"/>
        <use transform="matrix(.07407 0 0 .07407 65.111 0)" xlink:href="#an" width="100%" height="100%"/>
      </g>
      <g id="Q">
        <use transform="scale(.07407)" xlink:href="#aN" width="100%" height="100%"/>
        <use transform="matrix(.07407 0 0 .07407 19.185 0)" xlink:href="#ap" width="100%" height="100%"/>
        <use transform="matrix(.07407 0 0 .07407 34 0)" xlink:href="#aq" width="100%" height="100%"/>
        <use transform="matrix(.07407 0 0 .07407 39.852 0)" xlink:href="#av" width="100%" height="100%"/>
        <use transform="matrix(.07407 0 0 .07407 53.185 0)" xlink:href="#ap" width="100%" height="100%"/>
      </g>
      <g id="R">
        <use transform="scale(.07407)" xlink:href="#ao" width="100%" height="100%"/>
        <use transform="matrix(.07407 0 0 .07407 13.333 0)" xlink:href="#aC" width="100%" height="100%"/>
        <use transform="matrix(.07407 0 0 .07407 20.74 0)" xlink:href="#am" width="100%" height="100%"/>
        <use transform="matrix(.07407 0 0 .07407 35.556 0)" xlink:href="#an" width="100%" height="100%"/>
        <use transform="matrix(.07407 0 0 .07407 44.37 0)" xlink:href="#at" width="100%" height="100%"/>
        <use transform="matrix(.07407 0 0 .07407 59.185 0)" xlink:href="#ao" width="100%" height="100%"/>
      </g>
      <g id="S">
        <use transform="scale(.07407)" xlink:href="#aC" width="100%" height="100%"/>
        <use transform="matrix(.07407 0 0 .07407 7.407 0)" xlink:href="#ap" width="100%" height="100%"/>
        <use transform="matrix(.07407 0 0 .07407 22.222 0)" xlink:href="#at" width="100%" height="100%"/>
      </g>
      <path d="M33 0v-38h34V0H33" id="aR"/>
      <g id="T">
        <use transform="scale(.07407)" xlink:href="#aE" width="100%" height="100%"/>
        <use transform="matrix(.07407 0 0 .07407 14.815 0)" xlink:href="#ay" width="100%" height="100%"/>
        <use transform="matrix(.07407 0 0 .07407 29.63 0)" xlink:href="#aC" width="100%" height="100%"/>
        <use transform="matrix(.07407 0 0 .07407 37.037 0)" xlink:href="#ay" width="100%" height="100%"/>
        <use transform="matrix(.07407 0 0 .07407 51.852 0)" xlink:href="#aR" width="100%" height="100%"/>
      </g>
      <path d="M33 0v-248h34V0H33" id="aS"/>
      <g id="U">
        <use transform="scale(.05)" xlink:href="#aS" width="100%" height="100%"/>
        <use transform="translate(5) scale(.05)" xlink:href="#az" width="100%" height="100%"/>
        <use transform="translate(15) scale(.05)" xlink:href="#aC" width="100%" height="100%"/>
        <use transform="translate(20) scale(.05)" xlink:href="#at" width="100%" height="100%"/>
        <use transform="translate(30) scale(.05)" xlink:href="#an" width="100%" height="100%"/>
        <use transform="translate(35.95) scale(.05)" xlink:href="#az" width="100%" height="100%"/>
        <use transform="translate(45.95) scale(.05)" xlink:href="#at" width="100%" height="100%"/>
        <use transform="translate(55.95) scale(.05)" xlink:href="#aC" width="100%" height="100%"/>
      </g>
      <path d="M143 0L79-87 56-68V0H24v-261h32v163l83-92h37l-77 82L181 0h-38" id="aT"/>
      <g id="V">
        <use transform="scale(.05)" xlink:href="#aE" width="100%" height="100%"/>
        <use transform="translate(10) scale(.05)" xlink:href="#at" width="100%" height="100%"/>
        <use transform="translate(20) scale(.05)" xlink:href="#ao" width="100%" height="100%"/>
        <use transform="translate(29) scale(.05)" xlink:href="#aT" width="100%" height="100%"/>
        <use transform="translate(38) scale(.05)" xlink:href="#aC" width="100%" height="100%"/>
        <use transform="translate(43) scale(.05)" xlink:href="#am" width="100%" height="100%"/>
        <use transform="translate(53) scale(.05)" xlink:href="#ar" width="100%" height="100%"/>
      </g>
      <g id="W">
        <use transform="scale(.05)" xlink:href="#ay" width="100%" height="100%"/>
        <use transform="translate(10) scale(.05)" xlink:href="#ar" width="100%" height="100%"/>
        <use transform="translate(20) scale(.05)" xlink:href="#ar" width="100%" height="100%"/>
        <use transform="translate(30) scale(.05)" xlink:href="#aF" width="100%" height="100%"/>
        <use transform="translate(33.95) scale(.05)" xlink:href="#aq" width="100%" height="100%"/>
        <use transform="translate(37.9) scale(.05)" xlink:href="#av" width="100%" height="100%"/>
        <use transform="translate(46.9) scale(.05)" xlink:href="#ay" width="100%" height="100%"/>
        <use transform="translate(56.9) scale(.05)" xlink:href="#aC" width="100%" height="100%"/>
        <use transform="translate(61.9) scale(.05)" xlink:href="#aq" width="100%" height="100%"/>
        <use transform="translate(65.85) scale(.05)" xlink:href="#am" width="100%" height="100%"/>
        <use transform="translate(75.85) scale(.05)" xlink:href="#az" width="100%" height="100%"/>
      </g>
      <g id="X">
        <use transform="scale(.05)" xlink:href="#as" width="100%" height="100%"/>
        <use transform="translate(12) scale(.05)" xlink:href="#aB" width="100%" height="100%"/>
        <use transform="translate(26.95) scale(.05)" xlink:href="#ay" width="100%" height="100%"/>
        <use transform="translate(36.95) scale(.05)" xlink:href="#an" width="100%" height="100%"/>
        <use transform="translate(42.9) scale(.05)" xlink:href="#aC" width="100%" height="100%"/>
      </g>
      <g id="Y">
        <use transform="scale(.05)" xlink:href="#aD" width="100%" height="100%"/>
        <use transform="translate(12) scale(.05)" xlink:href="#ap" width="100%" height="100%"/>
        <use transform="translate(22) scale(.05)" xlink:href="#am" width="100%" height="100%"/>
        <use transform="translate(32) scale(.05)" xlink:href="#az" width="100%" height="100%"/>
        <use transform="translate(42) scale(.05)" xlink:href="#at" width="100%" height="100%"/>
      </g>
      <g id="Z">
        <use transform="scale(.05)" xlink:href="#av" width="100%" height="100%"/>
        <use transform="translate(9) scale(.05)" xlink:href="#am" width="100%" height="100%"/>
        <use transform="translate(19) scale(.05)" xlink:href="#az" width="100%" height="100%"/>
        <use transform="translate(29) scale(.05)" xlink:href="#az" width="100%" height="100%"/>
        <use transform="translate(39) scale(.05)" xlink:href="#at" width="100%" height="100%"/>
        <use transform="translate(49) scale(.05)" xlink:href="#av" width="100%" height="100%"/>
        <use transform="translate(58) scale(.05)" xlink:href="#aC" width="100%" height="100%"/>
        <use transform="translate(63) scale(.05)" xlink:href="#aq" width="100%" height="100%"/>
        <use transform="translate(66.95) scale(.05)" xlink:href="#az" width="100%" height="100%"/>
        <use transform="translate(76.95) scale(.05)" xlink:href="#ax" width="100%" height="100%"/>
      </g>
      <g id="aa">
        <use transform="scale(.05)" xlink:href="#aC" width="100%" height="100%"/>
        <use transform="translate(5) scale(.05)" xlink:href="#ap" width="100%" height="100%"/>
        <use transform="translate(15) scale(.05)" xlink:href="#an" width="100%" height="100%"/>
        <use transform="translate(20.95) scale(.05)" xlink:href="#am" width="100%" height="100%"/>
        <use transform="translate(30.95) scale(.05)" xlink:href="#aI" width="100%" height="100%"/>
        <use transform="translate(40.95) scale(.05)" xlink:href="#ax" width="100%" height="100%"/>
        <use transform="translate(50.95) scale(.05)" xlink:href="#ap" width="100%" height="100%"/>
      </g>
      <g id="ab">
        <use transform="scale(.05)" xlink:href="#aN" width="100%" height="100%"/>
        <use transform="translate(12.95) scale(.05)" xlink:href="#at" width="100%" height="100%"/>
        <use transform="translate(22.95) scale(.05)" xlink:href="#aL" width="100%" height="100%"/>
      </g>
      <g id="ac">
        <use transform="scale(.05)" xlink:href="#aH" width="100%" height="100%"/>
        <use transform="translate(12.95) scale(.05)" xlink:href="#at" width="100%" height="100%"/>
        <use transform="translate(22.95) scale(.05)" xlink:href="#au" width="100%" height="100%"/>
        <use transform="translate(31.95) scale(.05)" xlink:href="#aq" width="100%" height="100%"/>
        <use transform="translate(35.9) scale(.05)" xlink:href="#av" width="100%" height="100%"/>
        <use transform="translate(44.9) scale(.05)" xlink:href="#at" width="100%" height="100%"/>
        <use transform="translate(54.9) scale(.05)" xlink:href="#ao" width="100%" height="100%"/>
      </g>
      <g id="ad">
        <use transform="scale(.05)" xlink:href="#av" width="100%" height="100%"/>
        <use transform="translate(9) scale(.05)" xlink:href="#ay" width="100%" height="100%"/>
        <use transform="translate(19) scale(.05)" xlink:href="#az" width="100%" height="100%"/>
      </g>
      <g id="ae">
        <use transform="scale(.05)" xlink:href="#av" width="100%" height="100%"/>
        <use transform="translate(9) scale(.05)" xlink:href="#am" width="100%" height="100%"/>
        <use transform="translate(19) scale(.05)" xlink:href="#az" width="100%" height="100%"/>
        <use transform="translate(29) scale(.05)" xlink:href="#az" width="100%" height="100%"/>
        <use transform="translate(39) scale(.05)" xlink:href="#at" width="100%" height="100%"/>
        <use transform="translate(49) scale(.05)" xlink:href="#av" width="100%" height="100%"/>
        <use transform="translate(58) scale(.05)" xlink:href="#aC" width="100%" height="100%"/>
      </g>
      <g id="af">
        <use transform="scale(.05)" xlink:href="#aE" width="100%" height="100%"/>
        <use transform="translate(10) scale(.05)" xlink:href="#aI" width="100%" height="100%"/>
        <use transform="translate(20) scale(.05)" xlink:href="#an" width="100%" height="100%"/>
        <use transform="translate(25.95) scale(.05)" xlink:href="#aq" width="100%" height="100%"/>
        <use transform="translate(29.9) scale(.05)" xlink:href="#az" width="100%" height="100%"/>
        <use transform="translate(39.9) scale(.05)" xlink:href="#ax" width="100%" height="100%"/>
      </g>
      <g id="ag">
        <use transform="scale(.05)" xlink:href="#ao" width="100%" height="100%"/>
        <use transform="translate(9) scale(.05)" xlink:href="#at" width="100%" height="100%"/>
        <use transform="translate(19) scale(.05)" xlink:href="#an" width="100%" height="100%"/>
        <use transform="translate(24.95) scale(.05)" xlink:href="#au" width="100%" height="100%"/>
        <use transform="translate(33.95) scale(.05)" xlink:href="#aq" width="100%" height="100%"/>
        <use transform="translate(37.9) scale(.05)" xlink:href="#av" width="100%" height="100%"/>
        <use transform="translate(46.9) scale(.05)" xlink:href="#at" width="100%" height="100%"/>
      </g>
      <g id="ah">
        <use transform="scale(.05)" xlink:href="#aC" width="100%" height="100%"/>
        <use transform="translate(5) scale(.05)" xlink:href="#am" width="100%" height="100%"/>
      </g>
      <g id="ai">
        <use transform="scale(.05)" xlink:href="#av" width="100%" height="100%"/>
        <use transform="translate(9) scale(.05)" xlink:href="#am" width="100%" height="100%"/>
        <use transform="translate(19) scale(.05)" xlink:href="#az" width="100%" height="100%"/>
        <use transform="translate(29) scale(.05)" xlink:href="#aC" width="100%" height="100%"/>
        <use transform="translate(34) scale(.05)" xlink:href="#an" width="100%" height="100%"/>
        <use transform="translate(39.95) scale(.05)" xlink:href="#am" width="100%" height="100%"/>
        <use transform="translate(49.95) scale(.05)" xlink:href="#aF" width="100%" height="100%"/>
      </g>
      <g id="aj">
        <use transform="scale(.05)" xlink:href="#ar" width="100%" height="100%"/>
        <use transform="translate(10) scale(.05)" xlink:href="#an" width="100%" height="100%"/>
        <use transform="translate(15.95) scale(.05)" xlink:href="#at" width="100%" height="100%"/>
        <use transform="translate(25.95) scale(.05)" xlink:href="#ao" width="100%" height="100%"/>
        <use transform="translate(34.95) scale(.05)" xlink:href="#at" width="100%" height="100%"/>
        <use transform="translate(44.95) scale(.05)" xlink:href="#az" width="100%" height="100%"/>
        <use transform="translate(54.95) scale(.05)" xlink:href="#aC" width="100%" height="100%"/>
        <use transform="translate(59.95) scale(.05)" xlink:href="#aq" width="100%" height="100%"/>
        <use transform="translate(63.9) scale(.05)" xlink:href="#am" width="100%" height="100%"/>
        <use transform="translate(73.9) scale(.05)" xlink:href="#az" width="100%" height="100%"/>
      </g>
      <g id="ak">
        <use transform="scale(.05)" xlink:href="#as" width="100%" height="100%"/>
        <use transform="translate(12) scale(.05)" xlink:href="#at" width="100%" height="100%"/>
        <use transform="translate(22) scale(.05)" xlink:href="#an" width="100%" height="100%"/>
        <use transform="translate(27.95) scale(.05)" xlink:href="#au" width="100%" height="100%"/>
        <use transform="translate(36.95) scale(.05)" xlink:href="#at" width="100%" height="100%"/>
        <use transform="translate(46.95) scale(.05)" xlink:href="#an" width="100%" height="100%"/>
      </g>
    </defs>
  </g>
</svg>