<svg xmlns="http://www.w3.org/2000/svg" xmlns:xlink="http://www.w3.org/1999/xlink" width="1160.95" height="714.8">
  <defs>
    <path id="a" d="M185-189c-5-48-123-54-124 2 14 75 158 14 163 119 3 78-121 87-175 55-17-10-28-26-33-46l33-7c5 56 141 63 141-1 0-78-155-14-162-118-5-82 145-84 179-34 5 7 8 16 11 25"/>
    <path id="b" d="M210-169c-67 3-38 105-44 169h-31v-121c0-29-5-50-35-48C34-165 62-65 56 0H25l-1-190h30c1 10-1 24 2 32 10-44 99-50 107 0 11-21 27-35 58-36 85-2 47 119 55 194h-31v-121c0-29-5-49-35-48"/>
    <path id="c" d="M141-36C126-15 110 5 73 4 37 3 15-17 15-53c-1-64 63-63 125-63 3-35-9-54-41-54-24 1-41 7-42 31l-33-3c5-37 33-52 76-52 45 0 72 20 72 64v82c-1 20 7 32 28 27v20c-31 9-61-2-59-35zM48-53c0 20 12 33 32 33 41-3 63-29 60-74-43 2-92-5-92 41"/>
    <path id="d" d="M114-163C36-179 61-72 57 0H25l-1-190h30c1 12-1 29 2 39 6-27 23-49 58-41v29"/>
    <path id="e" d="M59-47c-2 24 18 29 38 22v24C64 9 27 4 27-40v-127H5v-23h24l9-43h21v43h35v23H59v120"/>
    <g id="G">
      <use height="100%" width="100%" xlink:href="#a" transform="scale(.05)"/>
      <use height="100%" width="100%" xlink:href="#b" transform="translate(12) scale(.05)"/>
      <use height="100%" width="100%" xlink:href="#c" transform="translate(26.95) scale(.05)"/>
      <use height="100%" width="100%" xlink:href="#d" transform="translate(36.95) scale(.05)"/>
      <use height="100%" width="100%" xlink:href="#e" transform="translate(42.9) scale(.05)"/>
    </g>
    <path id="f" d="M30-248c87 1 191-15 191 75 0 78-77 80-158 76V0H30zm33 125c57 0 124 11 124-50 0-59-68-47-124-48v98"/>
    <path id="g" d="M106-169C34-169 62-67 57 0H25v-261h32l-1 103c12-21 28-36 61-36 89 0 53 116 60 194h-32v-121c2-32-8-49-39-48"/>
    <path id="h" d="M100-194c62-1 85 37 85 99 1 63-27 99-86 99S16-35 15-95c0-66 28-99 85-99zM99-20c44 1 53-31 53-75 0-43-8-75-51-75s-53 32-53 75 10 74 51 75"/>
    <path id="i" d="M117-194c89-4 53 116 60 194h-32v-121c0-31-8-49-39-48C34-167 62-67 57 0H25l-1-190h30c1 10-1 24 2 32 11-22 29-35 61-36"/>
    <path id="j" d="M100-194c63 0 86 42 84 106H49c0 40 14 67 53 68 26 1 43-12 49-29l28 8c-11 28-37 45-77 45C44 4 14-33 15-96c1-61 26-98 85-98zm52 81c6-60-76-77-97-28-3 7-6 17-6 28h103"/>
    <g id="H">
      <use height="100%" width="100%" xlink:href="#f" transform="scale(.05)"/>
      <use height="100%" width="100%" xlink:href="#g" transform="translate(12) scale(.05)"/>
      <use height="100%" width="100%" xlink:href="#h" transform="translate(22) scale(.05)"/>
      <use height="100%" width="100%" xlink:href="#i" transform="translate(32) scale(.05)"/>
      <use height="100%" width="100%" xlink:href="#j" transform="translate(42) scale(.05)"/>
    </g>
    <path id="k" d="M135-143c-3-34-86-38-87 0 15 53 115 12 119 90S17 21 10-45l28-5c4 36 97 45 98 0-10-56-113-15-118-90-4-57 82-63 122-42 12 7 21 19 24 35"/>
    <path id="l" d="M24-231v-30h32v30zM24 0v-190h32V0H24"/>
    <g id="I">
      <use height="100%" width="100%" xlink:href="#f" transform="scale(.05)"/>
      <use height="100%" width="100%" xlink:href="#d" transform="translate(12) scale(.05)"/>
      <use height="100%" width="100%" xlink:href="#j" transform="translate(17.95) scale(.05)"/>
      <use height="100%" width="100%" xlink:href="#k" transform="translate(27.95) scale(.05)"/>
      <use height="100%" width="100%" xlink:href="#j" transform="translate(36.95) scale(.05)"/>
      <use height="100%" width="100%" xlink:href="#i" transform="translate(46.95) scale(.05)"/>
      <use height="100%" width="100%" xlink:href="#e" transform="translate(56.95) scale(.05)"/>
      <use height="100%" width="100%" xlink:href="#c" transform="translate(61.95) scale(.05)"/>
      <use height="100%" width="100%" xlink:href="#e" transform="translate(71.95) scale(.05)"/>
      <use height="100%" width="100%" xlink:href="#l" transform="translate(76.95) scale(.05)"/>
      <use height="100%" width="100%" xlink:href="#h" transform="translate(80.9) scale(.05)"/>
      <use height="100%" width="100%" xlink:href="#i" transform="translate(90.9) scale(.05)"/>
    </g>
    <path id="m" d="M85-194c31 0 48 13 60 33l-1-100h32l1 261h-30c-2-10 0-23-3-31C134-8 116 4 85 4 32 4 16-35 15-94c0-66 23-100 70-100zm9 24c-40 0-46 34-46 75 0 40 6 74 45 74 42 0 51-32 51-76 0-42-9-74-50-73"/>
    <path id="n" d="M115-194c55 1 70 41 70 98S169 2 115 4C84 4 66-9 55-30l1 105H24l-1-265h31l2 30c10-21 28-34 59-34zm-8 174c40 0 45-34 45-75s-6-73-45-74c-42 0-51 32-51 76 0 43 10 73 51 73"/>
    <path id="o" d="M24 0v-261h32V0H24"/>
    <path id="p" d="M179-190L93 31C79 59 56 82 12 73V49c39 6 53-20 64-50L1-190h34L92-34l54-156h33"/>
    <g id="J">
      <use height="100%" width="100%" xlink:href="#m" transform="scale(.05)"/>
      <use height="100%" width="100%" xlink:href="#l" transform="translate(10) scale(.05)"/>
      <use height="100%" width="100%" xlink:href="#k" transform="translate(13.95) scale(.05)"/>
      <use height="100%" width="100%" xlink:href="#n" transform="translate(22.95) scale(.05)"/>
      <use height="100%" width="100%" xlink:href="#o" transform="translate(32.95) scale(.05)"/>
      <use height="100%" width="100%" xlink:href="#c" transform="translate(36.9) scale(.05)"/>
      <use height="100%" width="100%" xlink:href="#p" transform="translate(46.9) scale(.05)"/>
    </g>
    <g id="K">
      <use height="100%" width="100%" xlink:href="#c" transform="scale(.05)"/>
      <use height="100%" width="100%" xlink:href="#i" transform="translate(10) scale(.05)"/>
      <use height="100%" width="100%" xlink:href="#m" transform="translate(20) scale(.05)"/>
    </g>
    <path id="q" d="M108 0H70L1-190h34L89-25l56-165h34"/>
    <g id="L">
      <use height="100%" width="100%" xlink:href="#k" transform="scale(.05)"/>
      <use height="100%" width="100%" xlink:href="#j" transform="translate(9) scale(.05)"/>
      <use height="100%" width="100%" xlink:href="#d" transform="translate(19) scale(.05)"/>
      <use height="100%" width="100%" xlink:href="#q" transform="translate(24.95) scale(.05)"/>
      <use height="100%" width="100%" xlink:href="#j" transform="translate(33.95) scale(.05)"/>
      <use height="100%" width="100%" xlink:href="#d" transform="translate(43.95) scale(.05)"/>
    </g>
    <path id="r" d="M30-248c118-7 216 8 213 122C240-48 200 0 122 0H30zM63-27c89 8 146-16 146-99s-60-101-146-95v194"/>
    <path id="s" d="M84 4C-5 8 30-112 23-190h32v120c0 31 7 50 39 49 72-2 45-101 50-169h31l1 190h-30c-1-10 1-25-2-33-11 22-28 36-60 37"/>
    <path id="t" d="M177-190C167-65 218 103 67 71c-23-6-38-20-44-43l32-5c15 47 100 32 89-28v-30C133-14 115 1 83 1 29 1 15-40 15-95c0-56 16-97 71-98 29-1 48 16 59 35 1-10 0-23 2-32zM94-22c36 0 50-32 50-73 0-42-14-75-50-75-39 0-46 34-46 75s6 73 46 73"/>
    <g id="M">
      <use height="100%" width="100%" xlink:href="#r" transform="scale(.11111)"/>
      <use height="100%" width="100%" xlink:href="#s" transform="translate(28.778) scale(.11111)"/>
      <use height="100%" width="100%" xlink:href="#d" transform="translate(51) scale(.11111)"/>
      <use height="100%" width="100%" xlink:href="#l" transform="translate(64.222) scale(.11111)"/>
      <use height="100%" width="100%" xlink:href="#i" transform="translate(73) scale(.11111)"/>
      <use height="100%" width="100%" xlink:href="#t" transform="translate(95.222) scale(.11111)"/>
    </g>
    <path id="u" d="M212-179c-10-28-35-45-73-45-59 0-87 40-87 99 0 60 29 101 89 101 43 0 62-24 78-52l27 14C228-24 195 4 139 4 59 4 22-46 18-125c-6-104 99-153 187-111 19 9 31 26 39 46"/>
    <path id="v" d="M96-169c-40 0-48 33-48 73s9 75 48 75c24 0 41-14 43-38l32 2c-6 37-31 61-74 61-59 0-76-41-82-99-10-93 101-131 147-64 4 7 5 14 7 22l-32 3c-4-21-16-35-41-35"/>
    <g id="N">
      <use height="100%" width="100%" xlink:href="#u" transform="scale(.11111)"/>
      <use height="100%" width="100%" xlink:href="#g" transform="translate(28.778) scale(.11111)"/>
      <use height="100%" width="100%" xlink:href="#s" transform="translate(51) scale(.11111)"/>
      <use height="100%" width="100%" xlink:href="#d" transform="translate(73.222) scale(.11111)"/>
      <use height="100%" width="100%" xlink:href="#v" transform="translate(86.444) scale(.11111)"/>
      <use height="100%" width="100%" xlink:href="#g" transform="translate(106.444) scale(.11111)"/>
    </g>
    <g id="O">
      <use height="100%" width="100%" xlink:href="#a" transform="scale(.11111)"/>
      <use height="100%" width="100%" xlink:href="#j" transform="translate(26.667) scale(.11111)"/>
      <use height="100%" width="100%" xlink:href="#d" transform="translate(48.889) scale(.11111)"/>
      <use height="100%" width="100%" xlink:href="#q" transform="translate(62.111) scale(.11111)"/>
      <use height="100%" width="100%" xlink:href="#l" transform="translate(82.111) scale(.11111)"/>
      <use height="100%" width="100%" xlink:href="#v" transform="translate(90.889) scale(.11111)"/>
      <use height="100%" width="100%" xlink:href="#j" transform="translate(110.889) scale(.11111)"/>
    </g>
    <path id="w" d="M205 0l-28-72H64L36 0H1l101-248h38L239 0zm-38-99l-47-123c-12 45-31 82-46 123h93"/>
    <use height="100%" width="100%" id="P" xlink:href="#w" transform="scale(.07407)"/>
    <g id="Q">
      <use height="100%" width="100%" xlink:href="#o" transform="scale(.07407)"/>
      <use height="100%" width="100%" xlink:href="#c" transform="matrix(.07407 0 0 .07407 5.852 0)"/>
      <use height="100%" width="100%" xlink:href="#n" transform="matrix(.07407 0 0 .07407 20.667 0)"/>
      <use height="100%" width="100%" xlink:href="#e" transform="matrix(.07407 0 0 .07407 35.481 0)"/>
      <use height="100%" width="100%" xlink:href="#h" transform="matrix(.07407 0 0 .07407 42.889 0)"/>
      <use height="100%" width="100%" xlink:href="#n" transform="matrix(.07407 0 0 .07407 57.704 0)"/>
    </g>
    <g id="R">
      <use height="100%" width="100%" xlink:href="#d" transform="scale(.07407)"/>
      <use height="100%" width="100%" xlink:href="#s" transform="matrix(.07407 0 0 .07407 8.815 0)"/>
      <use height="100%" width="100%" xlink:href="#i" transform="matrix(.07407 0 0 .07407 23.63 0)"/>
      <use height="100%" width="100%" xlink:href="#i" transform="matrix(.07407 0 0 .07407 38.444 0)"/>
      <use height="100%" width="100%" xlink:href="#l" transform="matrix(.07407 0 0 .07407 53.26 0)"/>
      <use height="100%" width="100%" xlink:href="#i" transform="matrix(.07407 0 0 .07407 59.111 0)"/>
      <use height="100%" width="100%" xlink:href="#t" transform="matrix(.07407 0 0 .07407 73.926 0)"/>
    </g>
    <use height="100%" width="100%" id="S" xlink:href="#c" transform="scale(.07407)"/>
    <g id="T">
      <use height="100%" width="100%" xlink:href="#k" transform="scale(.07407)"/>
      <use height="100%" width="100%" xlink:href="#j" transform="matrix(.07407 0 0 .07407 13.333 0)"/>
      <use height="100%" width="100%" xlink:href="#d" transform="matrix(.07407 0 0 .07407 28.148 0)"/>
      <use height="100%" width="100%" xlink:href="#q" transform="matrix(.07407 0 0 .07407 36.963 0)"/>
      <use height="100%" width="100%" xlink:href="#j" transform="matrix(.07407 0 0 .07407 50.296 0)"/>
      <use height="100%" width="100%" xlink:href="#d" transform="matrix(.07407 0 0 .07407 65.111 0)"/>
    </g>
    <g id="U">
      <use height="100%" width="100%" xlink:href="#t" transform="scale(.07407)"/>
      <use height="100%" width="100%" xlink:href="#l" transform="matrix(.07407 0 0 .07407 14.815 0)"/>
      <use height="100%" width="100%" xlink:href="#q" transform="matrix(.07407 0 0 .07407 20.667 0)"/>
      <use height="100%" width="100%" xlink:href="#l" transform="matrix(.07407 0 0 .07407 34 0)"/>
      <use height="100%" width="100%" xlink:href="#i" transform="matrix(.07407 0 0 .07407 39.852 0)"/>
      <use height="100%" width="100%" xlink:href="#t" transform="matrix(.07407 0 0 .07407 54.667 0)"/>
    </g>
    <g id="V">
      <use height="100%" width="100%" xlink:href="#e" transform="scale(.07407)"/>
      <use height="100%" width="100%" xlink:href="#g" transform="matrix(.07407 0 0 .07407 7.407 0)"/>
      <use height="100%" width="100%" xlink:href="#j" transform="matrix(.07407 0 0 .07407 22.222 0)"/>
    </g>
    <path id="x" d="M115-194c53 0 69 39 70 98 0 66-23 100-70 100C84 3 66-7 56-30L54 0H23l1-261h32v101c10-23 28-34 59-34zm-8 174c40 0 45-34 45-75 0-40-5-75-45-74-42 0-51 32-51 76 0 43 10 73 51 73"/>
    <g id="W">
      <use height="100%" width="100%" xlink:href="#c" transform="scale(.07407)"/>
      <use height="100%" width="100%" xlink:href="#x" transform="matrix(.07407 0 0 .07407 14.815 0)"/>
      <use height="100%" width="100%" xlink:href="#l" transform="matrix(.07407 0 0 .07407 29.63 0)"/>
      <use height="100%" width="100%" xlink:href="#o" transform="matrix(.07407 0 0 .07407 35.481 0)"/>
      <use height="100%" width="100%" xlink:href="#l" transform="matrix(.07407 0 0 .07407 41.333 0)"/>
      <use height="100%" width="100%" xlink:href="#e" transform="matrix(.07407 0 0 .07407 47.185 0)"/>
      <use height="100%" width="100%" xlink:href="#p" transform="matrix(.07407 0 0 .07407 54.593 0)"/>
    </g>
    <path id="y" d="M101-234c-31-9-42 10-38 44h38v23H63V0H32v-167H5v-23h27c-7-52 17-82 69-68v24"/>
    <g id="X">
      <use height="100%" width="100%" xlink:href="#y" transform="scale(.07407)"/>
      <use height="100%" width="100%" xlink:href="#h" transform="matrix(.07407 0 0 .07407 7.407 0)"/>
      <use height="100%" width="100%" xlink:href="#d" transform="matrix(.07407 0 0 .07407 22.222 0)"/>
    </g>
    <g id="Y">
      <use height="100%" width="100%" xlink:href="#b" transform="scale(.07407)"/>
      <use height="100%" width="100%" xlink:href="#h" transform="matrix(.07407 0 0 .07407 22.148 0)"/>
      <use height="100%" width="100%" xlink:href="#x" transform="matrix(.07407 0 0 .07407 36.963 0)"/>
      <use height="100%" width="100%" xlink:href="#l" transform="matrix(.07407 0 0 .07407 51.778 0)"/>
      <use height="100%" width="100%" xlink:href="#o" transform="matrix(.07407 0 0 .07407 57.63 0)"/>
      <use height="100%" width="100%" xlink:href="#j" transform="matrix(.07407 0 0 .07407 63.481 0)"/>
    </g>
    <g id="Z">
      <use height="100%" width="100%" xlink:href="#n" transform="scale(.07407)"/>
      <use height="100%" width="100%" xlink:href="#g" transform="matrix(.07407 0 0 .07407 14.815 0)"/>
      <use height="100%" width="100%" xlink:href="#h" transform="matrix(.07407 0 0 .07407 29.63 0)"/>
      <use height="100%" width="100%" xlink:href="#i" transform="matrix(.07407 0 0 .07407 44.444 0)"/>
      <use height="100%" width="100%" xlink:href="#j" transform="matrix(.07407 0 0 .07407 59.26 0)"/>
      <use height="100%" width="100%" xlink:href="#k" transform="matrix(.07407 0 0 .07407 74.074 0)"/>
    </g>
    <g id="aa">
      <use height="100%" width="100%" xlink:href="#e" transform="scale(.07407)"/>
      <use height="100%" width="100%" xlink:href="#h" transform="matrix(.07407 0 0 .07407 7.407 0)"/>
    </g>
    <g id="ab">
      <use height="100%" width="100%" xlink:href="#v" transform="scale(.07407)"/>
      <use height="100%" width="100%" xlink:href="#h" transform="matrix(.07407 0 0 .07407 13.333 0)"/>
      <use height="100%" width="100%" xlink:href="#i" transform="matrix(.07407 0 0 .07407 28.148 0)"/>
      <use height="100%" width="100%" xlink:href="#i" transform="matrix(.07407 0 0 .07407 42.963 0)"/>
      <use height="100%" width="100%" xlink:href="#j" transform="matrix(.07407 0 0 .07407 57.778 0)"/>
      <use height="100%" width="100%" xlink:href="#v" transform="matrix(.07407 0 0 .07407 72.593 0)"/>
      <use height="100%" width="100%" xlink:href="#e" transform="matrix(.07407 0 0 .07407 85.926 0)"/>
    </g>
    <g id="ac">
      <use height="100%" width="100%" xlink:href="#m" transform="scale(.07407)"/>
      <use height="100%" width="100%" xlink:href="#l" transform="matrix(.07407 0 0 .07407 14.815 0)"/>
      <use height="100%" width="100%" xlink:href="#d" transform="matrix(.07407 0 0 .07407 20.667 0)"/>
      <use height="100%" width="100%" xlink:href="#j" transform="matrix(.07407 0 0 .07407 29.481 0)"/>
      <use height="100%" width="100%" xlink:href="#v" transform="matrix(.07407 0 0 .07407 44.296 0)"/>
      <use height="100%" width="100%" xlink:href="#e" transform="matrix(.07407 0 0 .07407 57.63 0)"/>
      <use height="100%" width="100%" xlink:href="#o" transform="matrix(.07407 0 0 .07407 65.037 0)"/>
      <use height="100%" width="100%" xlink:href="#p" transform="matrix(.07407 0 0 .07407 70.889 0)"/>
    </g>
    <g id="ad">
      <use height="100%" width="100%" xlink:href="#e" transform="scale(.07407)"/>
      <use height="100%" width="100%" xlink:href="#g" transform="matrix(.07407 0 0 .07407 7.407 0)"/>
      <use height="100%" width="100%" xlink:href="#d" transform="matrix(.07407 0 0 .07407 22.222 0)"/>
      <use height="100%" width="100%" xlink:href="#h" transform="matrix(.07407 0 0 .07407 31.037 0)"/>
      <use height="100%" width="100%" xlink:href="#s" transform="matrix(.07407 0 0 .07407 45.852 0)"/>
      <use height="100%" width="100%" xlink:href="#t" transform="matrix(.07407 0 0 .07407 60.667 0)"/>
      <use height="100%" width="100%" xlink:href="#g" transform="matrix(.07407 0 0 .07407 75.481 0)"/>
    </g>
    <path id="z" d="M206 0h-36l-40-164L89 0H53L-1-190h32L70-26l43-164h34l41 164 42-164h31"/>
    <g id="ae">
      <use height="100%" width="100%" xlink:href="#z" transform="scale(.07407)"/>
      <use height="100%" width="100%" xlink:href="#j" transform="matrix(.07407 0 0 .07407 19.185 0)"/>
      <use height="100%" width="100%" xlink:href="#x" transform="matrix(.07407 0 0 .07407 34 0)"/>
    </g>
    <g id="af">
      <use height="100%" width="100%" xlink:href="#l" transform="scale(.07407)"/>
      <use height="100%" width="100%" xlink:href="#i" transform="matrix(.07407 0 0 .07407 5.852 0)"/>
      <use height="100%" width="100%" xlink:href="#e" transform="matrix(.07407 0 0 .07407 20.667 0)"/>
      <use height="100%" width="100%" xlink:href="#j" transform="matrix(.07407 0 0 .07407 28.074 0)"/>
      <use height="100%" width="100%" xlink:href="#d" transform="matrix(.07407 0 0 .07407 42.889 0)"/>
      <use height="100%" width="100%" xlink:href="#y" transform="matrix(.07407 0 0 .07407 51.704 0)"/>
      <use height="100%" width="100%" xlink:href="#c" transform="matrix(.07407 0 0 .07407 59.111 0)"/>
      <use height="100%" width="100%" xlink:href="#v" transform="matrix(.07407 0 0 .07407 73.926 0)"/>
      <use height="100%" width="100%" xlink:href="#j" transform="matrix(.07407 0 0 .07407 87.26 0)"/>
    </g>
    <g id="ag">
      <use height="100%" width="100%" xlink:href="#r" transform="scale(.05)"/>
      <use height="100%" width="100%" xlink:href="#j" transform="translate(12.95) scale(.05)"/>
      <use height="100%" width="100%" xlink:href="#q" transform="translate(22.95) scale(.05)"/>
      <use height="100%" width="100%" xlink:href="#l" transform="translate(31.95) scale(.05)"/>
      <use height="100%" width="100%" xlink:href="#v" transform="translate(35.9) scale(.05)"/>
      <use height="100%" width="100%" xlink:href="#j" transform="translate(44.9) scale(.05)"/>
      <use height="100%" width="100%" xlink:href="#k" transform="translate(54.9) scale(.05)"/>
    </g>
    <g id="ah">
      <use height="100%" width="100%" xlink:href="#v" transform="scale(.05)"/>
      <use height="100%" width="100%" xlink:href="#c" transform="translate(9) scale(.05)"/>
      <use height="100%" width="100%" xlink:href="#i" transform="translate(19) scale(.05)"/>
    </g>
    <g id="ai">
      <use height="100%" width="100%" xlink:href="#v" transform="scale(.05)"/>
      <use height="100%" width="100%" xlink:href="#h" transform="translate(9) scale(.05)"/>
      <use height="100%" width="100%" xlink:href="#i" transform="translate(19) scale(.05)"/>
      <use height="100%" width="100%" xlink:href="#i" transform="translate(29) scale(.05)"/>
      <use height="100%" width="100%" xlink:href="#j" transform="translate(39) scale(.05)"/>
      <use height="100%" width="100%" xlink:href="#v" transform="translate(49) scale(.05)"/>
      <use height="100%" width="100%" xlink:href="#e" transform="translate(58) scale(.05)"/>
    </g>
    <g id="aj">
      <use height="100%" width="100%" xlink:href="#m" transform="scale(.05)"/>
      <use height="100%" width="100%" xlink:href="#s" transform="translate(10) scale(.05)"/>
      <use height="100%" width="100%" xlink:href="#d" transform="translate(20) scale(.05)"/>
      <use height="100%" width="100%" xlink:href="#l" transform="translate(25.95) scale(.05)"/>
      <use height="100%" width="100%" xlink:href="#i" transform="translate(29.9) scale(.05)"/>
      <use height="100%" width="100%" xlink:href="#t" transform="translate(39.9) scale(.05)"/>
    </g>
    <g id="ak">
      <use height="100%" width="100%" xlink:href="#k" transform="scale(.05)"/>
      <use height="100%" width="100%" xlink:href="#j" transform="translate(9) scale(.05)"/>
      <use height="100%" width="100%" xlink:href="#d" transform="translate(19) scale(.05)"/>
      <use height="100%" width="100%" xlink:href="#q" transform="translate(24.95) scale(.05)"/>
      <use height="100%" width="100%" xlink:href="#l" transform="translate(33.95) scale(.05)"/>
      <use height="100%" width="100%" xlink:href="#v" transform="translate(37.9) scale(.05)"/>
      <use height="100%" width="100%" xlink:href="#j" transform="translate(46.9) scale(.05)"/>
    </g>
    <g id="al">
      <use height="100%" width="100%" xlink:href="#e" transform="scale(.05)"/>
      <use height="100%" width="100%" xlink:href="#h" transform="translate(5) scale(.05)"/>
    </g>
    <g id="am">
      <use height="100%" width="100%" xlink:href="#v" transform="scale(.05)"/>
      <use height="100%" width="100%" xlink:href="#h" transform="translate(9) scale(.05)"/>
      <use height="100%" width="100%" xlink:href="#i" transform="translate(19) scale(.05)"/>
      <use height="100%" width="100%" xlink:href="#e" transform="translate(29) scale(.05)"/>
      <use height="100%" width="100%" xlink:href="#d" transform="translate(34) scale(.05)"/>
      <use height="100%" width="100%" xlink:href="#h" transform="translate(39.95) scale(.05)"/>
      <use height="100%" width="100%" xlink:href="#o" transform="translate(49.95) scale(.05)"/>
    </g>
    <g id="an">
      <use height="100%" width="100%" xlink:href="#n" transform="scale(.05)"/>
      <use height="100%" width="100%" xlink:href="#d" transform="translate(10) scale(.05)"/>
      <use height="100%" width="100%" xlink:href="#j" transform="translate(15.95) scale(.05)"/>
      <use height="100%" width="100%" xlink:href="#k" transform="translate(25.95) scale(.05)"/>
      <use height="100%" width="100%" xlink:href="#j" transform="translate(34.95) scale(.05)"/>
      <use height="100%" width="100%" xlink:href="#i" transform="translate(44.95) scale(.05)"/>
      <use height="100%" width="100%" xlink:href="#e" transform="translate(54.95) scale(.05)"/>
      <use height="100%" width="100%" xlink:href="#l" transform="translate(59.95) scale(.05)"/>
      <use height="100%" width="100%" xlink:href="#h" transform="translate(63.9) scale(.05)"/>
      <use height="100%" width="100%" xlink:href="#i" transform="translate(73.9) scale(.05)"/>
    </g>
    <path id="A" d="M30 0v-248h33v221h125V0H30"/>
    <g id="ao">
      <use height="100%" width="100%" xlink:href="#A" transform="scale(.05)"/>
      <use height="100%" width="100%" xlink:href="#c" transform="translate(10) scale(.05)"/>
      <use height="100%" width="100%" xlink:href="#n" transform="translate(20) scale(.05)"/>
      <use height="100%" width="100%" xlink:href="#e" transform="translate(30) scale(.05)"/>
      <use height="100%" width="100%" xlink:href="#h" transform="translate(35) scale(.05)"/>
      <use height="100%" width="100%" xlink:href="#n" transform="translate(45) scale(.05)"/>
    </g>
    <g id="ap">
      <use height="100%" width="100%" xlink:href="#v" transform="scale(.05)"/>
      <use height="100%" width="100%" xlink:href="#h" transform="translate(9) scale(.05)"/>
      <use height="100%" width="100%" xlink:href="#i" transform="translate(19) scale(.05)"/>
      <use height="100%" width="100%" xlink:href="#i" transform="translate(29) scale(.05)"/>
      <use height="100%" width="100%" xlink:href="#j" transform="translate(39) scale(.05)"/>
      <use height="100%" width="100%" xlink:href="#v" transform="translate(49) scale(.05)"/>
      <use height="100%" width="100%" xlink:href="#e" transform="translate(58) scale(.05)"/>
      <use height="100%" width="100%" xlink:href="#l" transform="translate(63) scale(.05)"/>
      <use height="100%" width="100%" xlink:href="#i" transform="translate(66.95) scale(.05)"/>
      <use height="100%" width="100%" xlink:href="#t" transform="translate(76.95) scale(.05)"/>
    </g>
    <g id="aq">
      <use height="100%" width="100%" xlink:href="#e" transform="scale(.05)"/>
      <use height="100%" width="100%" xlink:href="#g" transform="translate(5) scale(.05)"/>
      <use height="100%" width="100%" xlink:href="#d" transform="translate(15) scale(.05)"/>
      <use height="100%" width="100%" xlink:href="#h" transform="translate(20.95) scale(.05)"/>
      <use height="100%" width="100%" xlink:href="#s" transform="translate(30.95) scale(.05)"/>
      <use height="100%" width="100%" xlink:href="#t" transform="translate(40.95) scale(.05)"/>
      <use height="100%" width="100%" xlink:href="#g" transform="translate(50.95) scale(.05)"/>
    </g>
    <g id="ar">
      <use height="100%" width="100%" xlink:href="#z" transform="scale(.05)"/>
      <use height="100%" width="100%" xlink:href="#j" transform="translate(12.95) scale(.05)"/>
      <use height="100%" width="100%" xlink:href="#x" transform="translate(22.95) scale(.05)"/>
    </g>
    <g id="as">
      <use height="100%" width="100%" xlink:href="#l" transform="scale(.05)"/>
      <use height="100%" width="100%" xlink:href="#i" transform="translate(3.95) scale(.05)"/>
      <use height="100%" width="100%" xlink:href="#e" transform="translate(13.95) scale(.05)"/>
      <use height="100%" width="100%" xlink:href="#j" transform="translate(18.95) scale(.05)"/>
      <use height="100%" width="100%" xlink:href="#d" transform="translate(28.95) scale(.05)"/>
      <use height="100%" width="100%" xlink:href="#y" transform="translate(34.9) scale(.05)"/>
      <use height="100%" width="100%" xlink:href="#c" transform="translate(39.9) scale(.05)"/>
      <use height="100%" width="100%" xlink:href="#v" transform="translate(49.9) scale(.05)"/>
      <use height="100%" width="100%" xlink:href="#j" transform="translate(58.9) scale(.05)"/>
    </g>
    <path id="B" d="M160-131c35 5 61 23 61 61C221 17 115-2 30 0v-248c76 3 177-17 177 60 0 33-19 50-47 57zm-97-11c50-1 110 9 110-42 0-47-63-36-110-37zm0 115c55-2 124 14 124-45 0-56-70-42-124-44v89"/>
    <g id="at">
      <use height="100%" width="100%" xlink:href="#B" transform="scale(.11111)"/>
      <use height="100%" width="100%" xlink:href="#j" transform="translate(26.667) scale(.11111)"/>
      <use height="100%" width="100%" xlink:href="#y" transform="translate(48.889) scale(.11111)"/>
      <use height="100%" width="100%" xlink:href="#h" transform="translate(60) scale(.11111)"/>
      <use height="100%" width="100%" xlink:href="#d" transform="translate(82.222) scale(.11111)"/>
      <use height="100%" width="100%" xlink:href="#j" transform="translate(95.444) scale(.11111)"/>
    </g>
    <path id="C" d="M240 0l2-218c-23 76-54 145-80 218h-23L58-218 59 0H30v-248h44l77 211c21-75 51-140 76-211h43V0h-30"/>
    <g id="au">
      <use height="100%" width="100%" xlink:href="#C" transform="scale(.07407)"/>
      <use height="100%" width="100%" xlink:href="#s" transform="matrix(.07407 0 0 .07407 22.148 0)"/>
      <use height="100%" width="100%" xlink:href="#o" transform="matrix(.07407 0 0 .07407 36.963 0)"/>
      <use height="100%" width="100%" xlink:href="#e" transform="matrix(.07407 0 0 .07407 42.815 0)"/>
      <use height="100%" width="100%" xlink:href="#l" transform="matrix(.07407 0 0 .07407 50.222 0)"/>
      <use height="100%" width="100%" xlink:href="#n" transform="matrix(.07407 0 0 .07407 56.074 0)"/>
      <use height="100%" width="100%" xlink:href="#o" transform="matrix(.07407 0 0 .07407 70.889 0)"/>
      <use height="100%" width="100%" xlink:href="#j" transform="matrix(.07407 0 0 .07407 76.74 0)"/>
    </g>
    <g id="av">
      <use height="100%" width="100%" xlink:href="#m" transform="scale(.07407)"/>
      <use height="100%" width="100%" xlink:href="#j" transform="matrix(.07407 0 0 .07407 14.815 0)"/>
      <use height="100%" width="100%" xlink:href="#q" transform="matrix(.07407 0 0 .07407 29.63 0)"/>
      <use height="100%" width="100%" xlink:href="#l" transform="matrix(.07407 0 0 .07407 42.963 0)"/>
      <use height="100%" width="100%" xlink:href="#v" transform="matrix(.07407 0 0 .07407 48.815 0)"/>
      <use height="100%" width="100%" xlink:href="#j" transform="matrix(.07407 0 0 .07407 62.148 0)"/>
      <use height="100%" width="100%" xlink:href="#k" transform="matrix(.07407 0 0 .07407 76.963 0)"/>
    </g>
    <g id="aw">
      <use height="100%" width="100%" xlink:href="#k" transform="scale(.07407)"/>
      <use height="100%" width="100%" xlink:href="#p" transform="matrix(.07407 0 0 .07407 13.333 0)"/>
      <use height="100%" width="100%" xlink:href="#i" transform="matrix(.07407 0 0 .07407 26.667 0)"/>
      <use height="100%" width="100%" xlink:href="#v" transform="matrix(.07407 0 0 .07407 41.481 0)"/>
      <use height="100%" width="100%" xlink:href="#l" transform="matrix(.07407 0 0 .07407 54.815 0)"/>
      <use height="100%" width="100%" xlink:href="#i" transform="matrix(.07407 0 0 .07407 60.667 0)"/>
      <use height="100%" width="100%" xlink:href="#t" transform="matrix(.07407 0 0 .07407 75.481 0)"/>
    </g>
    <g id="ax">
      <use height="100%" width="100%" xlink:href="#z" transform="scale(.07407)"/>
      <use height="100%" width="100%" xlink:href="#l" transform="matrix(.07407 0 0 .07407 19.185 0)"/>
      <use height="100%" width="100%" xlink:href="#e" transform="matrix(.07407 0 0 .07407 25.037 0)"/>
      <use height="100%" width="100%" xlink:href="#g" transform="matrix(.07407 0 0 .07407 32.444 0)"/>
    </g>
    <g id="ay">
      <use height="100%" width="100%" xlink:href="#z" transform="scale(.07407)"/>
      <use height="100%" width="100%" xlink:href="#g" transform="matrix(.07407 0 0 .07407 19.185 0)"/>
      <use height="100%" width="100%" xlink:href="#l" transform="matrix(.07407 0 0 .07407 34 0)"/>
      <use height="100%" width="100%" xlink:href="#v" transform="matrix(.07407 0 0 .07407 39.852 0)"/>
      <use height="100%" width="100%" xlink:href="#g" transform="matrix(.07407 0 0 .07407 53.185 0)"/>
    </g>
    <g id="az">
      <use height="100%" width="100%" xlink:href="#k" transform="scale(.07407)"/>
      <use height="100%" width="100%" xlink:href="#e" transform="matrix(.07407 0 0 .07407 13.333 0)"/>
      <use height="100%" width="100%" xlink:href="#h" transform="matrix(.07407 0 0 .07407 20.74 0)"/>
      <use height="100%" width="100%" xlink:href="#d" transform="matrix(.07407 0 0 .07407 35.556 0)"/>
      <use height="100%" width="100%" xlink:href="#j" transform="matrix(.07407 0 0 .07407 44.37 0)"/>
      <use height="100%" width="100%" xlink:href="#k" transform="matrix(.07407 0 0 .07407 59.185 0)"/>
    </g>
    <path id="D" d="M33 0v-38h34V0H33"/>
    <g id="aA">
      <use height="100%" width="100%" xlink:href="#m" transform="scale(.07407)"/>
      <use height="100%" width="100%" xlink:href="#c" transform="matrix(.07407 0 0 .07407 14.815 0)"/>
      <use height="100%" width="100%" xlink:href="#e" transform="matrix(.07407 0 0 .07407 29.63 0)"/>
      <use height="100%" width="100%" xlink:href="#c" transform="matrix(.07407 0 0 .07407 37.037 0)"/>
      <use height="100%" width="100%" xlink:href="#D" transform="matrix(.07407 0 0 .07407 51.852 0)"/>
    </g>
    <path id="E" d="M33 0v-248h34V0H33"/>
    <g id="aB">
      <use height="100%" width="100%" xlink:href="#E" transform="scale(.05)"/>
      <use height="100%" width="100%" xlink:href="#i" transform="translate(5) scale(.05)"/>
      <use height="100%" width="100%" xlink:href="#e" transform="translate(15) scale(.05)"/>
      <use height="100%" width="100%" xlink:href="#j" transform="translate(20) scale(.05)"/>
      <use height="100%" width="100%" xlink:href="#d" transform="translate(30) scale(.05)"/>
      <use height="100%" width="100%" xlink:href="#i" transform="translate(35.95) scale(.05)"/>
      <use height="100%" width="100%" xlink:href="#j" transform="translate(45.95) scale(.05)"/>
      <use height="100%" width="100%" xlink:href="#e" transform="translate(55.95) scale(.05)"/>
    </g>
    <path id="F" d="M143 0L79-87 56-68V0H24v-261h32v163l83-92h37l-77 82L181 0h-38"/>
    <g id="aC">
      <use height="100%" width="100%" xlink:href="#m" transform="scale(.05)"/>
      <use height="100%" width="100%" xlink:href="#j" transform="translate(10) scale(.05)"/>
      <use height="100%" width="100%" xlink:href="#k" transform="translate(20) scale(.05)"/>
      <use height="100%" width="100%" xlink:href="#F" transform="translate(29) scale(.05)"/>
      <use height="100%" width="100%" xlink:href="#e" transform="translate(38) scale(.05)"/>
      <use height="100%" width="100%" xlink:href="#h" transform="translate(43) scale(.05)"/>
      <use height="100%" width="100%" xlink:href="#n" transform="translate(53) scale(.05)"/>
    </g>
    <g id="aD">
      <use height="100%" width="100%" xlink:href="#c" transform="scale(.05)"/>
      <use height="100%" width="100%" xlink:href="#n" transform="translate(10) scale(.05)"/>
      <use height="100%" width="100%" xlink:href="#n" transform="translate(20) scale(.05)"/>
      <use height="100%" width="100%" xlink:href="#o" transform="translate(30) scale(.05)"/>
      <use height="100%" width="100%" xlink:href="#l" transform="translate(33.95) scale(.05)"/>
      <use height="100%" width="100%" xlink:href="#v" transform="translate(37.9) scale(.05)"/>
      <use height="100%" width="100%" xlink:href="#c" transform="translate(46.9) scale(.05)"/>
      <use height="100%" width="100%" xlink:href="#e" transform="translate(56.9) scale(.05)"/>
      <use height="100%" width="100%" xlink:href="#l" transform="translate(61.9) scale(.05)"/>
      <use height="100%" width="100%" xlink:href="#h" transform="translate(65.85) scale(.05)"/>
      <use height="100%" width="100%" xlink:href="#i" transform="translate(75.85) scale(.05)"/>
    </g>
    <g id="aE">
      <use height="100%" width="100%" xlink:href="#f" transform="scale(.05)"/>
      <use height="100%" width="100%" xlink:href="#g" transform="translate(12) scale(.05)"/>
      <use height="100%" width="100%" xlink:href="#h" transform="translate(22) scale(.05)"/>
      <use height="100%" width="100%" xlink:href="#i" transform="translate(32) scale(.05)"/>
      <use height="100%" width="100%" xlink:href="#j" transform="translate(42) scale(.05)"/>
    </g>
    <g id="aF">
      <use height="100%" width="100%" xlink:href="#v" transform="scale(.05)"/>
      <use height="100%" width="100%" xlink:href="#h" transform="translate(9) scale(.05)"/>
      <use height="100%" width="100%" xlink:href="#i" transform="translate(19) scale(.05)"/>
      <use height="100%" width="100%" xlink:href="#i" transform="translate(29) scale(.05)"/>
      <use height="100%" width="100%" xlink:href="#j" transform="translate(39) scale(.05)"/>
      <use height="100%" width="100%" xlink:href="#v" transform="translate(49) scale(.05)"/>
      <use height="100%" width="100%" xlink:href="#e" transform="translate(58) scale(.05)"/>
      <use height="100%" width="100%" xlink:href="#l" transform="translate(63) scale(.05)"/>
      <use height="100%" width="100%" xlink:href="#i" transform="translate(66.95) scale(.05)"/>
      <use height="100%" width="100%" xlink:href="#t" transform="translate(76.95) scale(.05)"/>
    </g>
    <g id="aG">
      <use height="100%" width="100%" xlink:href="#e" transform="scale(.05)"/>
      <use height="100%" width="100%" xlink:href="#g" transform="translate(5) scale(.05)"/>
      <use height="100%" width="100%" xlink:href="#d" transform="translate(15) scale(.05)"/>
      <use height="100%" width="100%" xlink:href="#h" transform="translate(20.95) scale(.05)"/>
      <use height="100%" width="100%" xlink:href="#s" transform="translate(30.95) scale(.05)"/>
      <use height="100%" width="100%" xlink:href="#t" transform="translate(40.95) scale(.05)"/>
      <use height="100%" width="100%" xlink:href="#g" transform="translate(50.95) scale(.05)"/>
    </g>
    <g id="aH">
      <use height="100%" width="100%" xlink:href="#z" transform="scale(.05)"/>
      <use height="100%" width="100%" xlink:href="#j" transform="translate(12.95) scale(.05)"/>
      <use height="100%" width="100%" xlink:href="#x" transform="translate(22.95) scale(.05)"/>
    </g>
    <g id="aI">
      <use height="100%" width="100%" xlink:href="#a" transform="scale(.05)"/>
      <use height="100%" width="100%" xlink:href="#j" transform="translate(12) scale(.05)"/>
      <use height="100%" width="100%" xlink:href="#d" transform="translate(22) scale(.05)"/>
      <use height="100%" width="100%" xlink:href="#q" transform="translate(27.95) scale(.05)"/>
      <use height="100%" width="100%" xlink:href="#j" transform="translate(36.95) scale(.05)"/>
      <use height="100%" width="100%" xlink:href="#d" transform="translate(46.95) scale(.05)"/>
    </g>
  </defs>
  <path d="M813.17 528h13.56c12.9 0 23.28 1.98 23.28 4.5v81c0 2.52-10.38 4.5-23.28 4.5h-13.56c-12.84 0-23.22-1.98-23.22-4.5v-81c0-2.52 10.38-4.5 23.22-4.5z" fill="#29aae1"/>
  <path d="M794.15 535.2h51.66v73.53h-51.66zm17.16-4.14h16.74c.42 0 .78.27.78.54s-.36.54-.78.54h-16.74c-.42 0-.78-.27-.78-.54s.36-.54.78-.54zm2.16 82.62c0 .63-.48 1.08-1.14 1.08-.6 0-1.14-.45-1.14-1.08 0-.54.54-1.08 1.14-1.08.66 0 1.14.54 1.14 1.08zm8.28 0c0 .63-.48 1.08-1.14 1.08-.6 0-1.08-.45-1.08-1.08 0-.54.48-1.08 1.08-1.08.66 0 1.14.54 1.14 1.08zm7.86 0c0 .63-.54 1.08-1.14 1.08-.66 0-1.14-.45-1.14-1.08 0-.54.48-1.08 1.14-1.08.6 0 1.14.54 1.14 1.08z" fill="#fff"/>
  <path d="M795.59 536.46h48.72v70.92h-48.72z" fill="gray"/>
  <use height="100%" width="100%" transform="translate(767.5 636.6)" xlink:href="#G"/>
  <use height="100%" width="100%" transform="translate(820.4 636.6)" xlink:href="#H"/>
  <path d="M1073.17 528h13.56c12.9 0 23.28 1.98 23.28 4.5v81c0 2.52-10.38 4.5-23.28 4.5h-13.56c-12.84 0-23.22-1.98-23.22-4.5v-81c0-2.52 10.38-4.5 23.22-4.5z" fill="#29aae1"/>
  <path d="M1054.15 535.2h51.66v73.53h-51.66zm17.16-4.14h16.74c.42 0 .78.27.78.54s-.36.54-.78.54h-16.74c-.42 0-.78-.27-.78-.54s.36-.54.78-.54zm2.16 82.62c0 .63-.48 1.08-1.14 1.08-.6 0-1.14-.45-1.14-1.08 0-.54.54-1.08 1.14-1.08.66 0 1.14.54 1.14 1.08zm8.28 0c0 .63-.48 1.08-1.14 1.08-.6 0-1.08-.45-1.08-1.08 0-.54.48-1.08 1.08-1.08.66 0 1.14.54 1.14 1.08zm7.86 0c0 .63-.54 1.08-1.14 1.08-.66 0-1.14-.45-1.14-1.08 0-.54.48-1.08 1.14-1.08.6 0 1.14.54 1.14 1.08z" fill="#fff"/>
  <path d="M1055.59 536.46h48.72v70.92h-48.72z" fill="gray"/>
  <use height="100%" width="100%" transform="translate(1027.5 636.6)" xlink:href="#G"/>
  <use height="100%" width="100%" transform="translate(1080.4 636.6)" xlink:href="#H"/>
  <path d="M882.12 283h133.8c10.36 0 10.36 0 10.36 11.76v76.72c0 11.76 0 11.76-10.37 11.76h-133.8c-10.36 0-10.36 0-10.36-11.76v-76.72c0-11.76 0-11.76 10.37-11.76z" fill="#29aae1"/>
  <path d="M882.12 292.8h134.64v77.7H882.13v-77.7z" fill="#fff"/>
  <path d="M883.82 295.74h131.24v71.82H883.83v-71.82z" fill="gray"/>
  <path d="M864.95 406.34h169.83V423H864.95z" fill="#29aae1"/>
  <path d="M911.35 386.88h117.48l5.95 19.74H917.31l-5.95-19.74z" fill="#29aae1"/>
  <path d="M986.85 386.88H870.9l-5.95 19.6h115.94l5.95-19.6z" fill="#29aae1"/>
  <path d="M920.37 390.66h101.66l4.08 13.16H924.45z" fill="#fff"/>
  <path d="M962.19 390.66h-85.34l-3.4 13.16h85.34z" fill="#fff"/>
  <use height="100%" width="100%" transform="translate(851.55 437.4)" xlink:href="#I"/>
  <use height="100%" width="100%" transform="translate(957.45 437.4)" xlink:href="#J"/>
  <use height="100%" width="100%" transform="translate(1018.35 437.4)" xlink:href="#K"/>
  <use height="100%" width="100%" transform="translate(925 459)" xlink:href="#L"/>
  <path d="M739.95 21h420v186h-420z" fill="none"/>
  <use height="100%" width="100%" transform="translate(749.228 58)" xlink:href="#M"/>
  <use height="100%" width="100%" transform="translate(877.783 58)" xlink:href="#N"/>
  <use height="100%" width="100%" transform="translate(1017.561 58)" xlink:href="#O"/>
  <use height="100%" width="100%" transform="translate(763.543 95.333)" xlink:href="#P"/>
  <use height="100%" width="100%" transform="translate(787.246 95.333)" xlink:href="#Q"/>
  <use height="100%" width="100%" transform="translate(867.172 95.333)" xlink:href="#R"/>
  <use height="100%" width="100%" transform="translate(963.32 95.333)" xlink:href="#S"/>
  <use height="100%" width="100%" transform="translate(985.543 95.333)" xlink:href="#T"/>
  <use height="100%" width="100%" transform="translate(1066.876 95.333)" xlink:href="#U"/>
  <use height="100%" width="100%" transform="translate(769.468 127.333)" xlink:href="#V"/>
  <use height="100%" width="100%" transform="translate(813.913 127.333)" xlink:href="#W"/>
  <use height="100%" width="100%" transform="translate(889.246 127.333)" xlink:href="#X"/>
  <use height="100%" width="100%" transform="translate(927.69 127.333)" xlink:href="#Y"/>
  <use height="100%" width="100%" transform="translate(1013.394 127.333)" xlink:href="#Z"/>
  <use height="100%" width="100%" transform="translate(1108.21 127.333)" xlink:href="#aa"/>
  <use height="100%" width="100%" transform="translate(769.394 159.333)" xlink:href="#ab"/>
  <use height="100%" width="100%" transform="translate(870.135 159.333)" xlink:href="#ac"/>
  <use height="100%" width="100%" transform="translate(961.765 159.333)" xlink:href="#ad"/>
  <use height="100%" width="100%" transform="translate(1059.468 159.333)" xlink:href="#S"/>
  <use height="100%" width="100%" transform="translate(1081.69 159.333)" xlink:href="#ae"/>
  <use height="100%" width="100%" transform="translate(898.913 191.333)" xlink:href="#af"/>
  <path d="M819.95 528V368h51.8" fill="none" stroke="#000" stroke-width="2"/>
  <path d="M871.75 368l-14.27 4.64v-9.28z"/>
  <path d="M871.75 366.95v2.1l-15.27 4.96v-12zm-13.27 4.3l10.03-3.25-10.03-3.26z"/>
  <path d="M1079.95 528V368h-53.5" fill="none" stroke="#000" stroke-width="2"/>
  <path d="M1040.72 372.64l-14.27-4.64 14.27-4.64z"/>
  <path d="M1041.72 374l-15.44-5v-2l15.44-5zm-12.03-6l10.03 3.26v-6.52z"/>
  <path d="M829.95 639h240v74.8h-240z" fill="none"/>
  <use height="100%" width="100%" transform="translate(839.55 669.3)" xlink:href="#ag"/>
  <use height="100%" width="100%" transform="translate(908.45 669.3)" xlink:href="#ah"/>
  <use height="100%" width="100%" transform="translate(942.45 669.3)" xlink:href="#ai"/>
  <use height="100%" width="100%" transform="translate(1010.45 669.3)" xlink:href="#aj"/>
  <use height="100%" width="100%" transform="translate(837.6 690.9)" xlink:href="#ak"/>
  <use height="100%" width="100%" transform="translate(899.5 690.9)" xlink:href="#al"/>
  <use height="100%" width="100%" transform="translate(919.5 690.9)" xlink:href="#am"/>
  <use height="100%" width="100%" transform="translate(978.4 690.9)" xlink:href="#an"/>
  <path d="M37.12 519.96h133.8c10.36 0 10.36 0 10.36 11.76v76.72c0 11.76 0 11.76-10.37 11.76H37.11c-10.36 0-10.36 0-10.36-11.76v-76.72c0-11.76 0-11.76 10.37-11.76z" fill="#29aae1"/>
  <path d="M37.12 529.76h134.63v77.7H37.13v-77.7z" fill="#fff"/>
  <path d="M38.82 532.7h131.23v71.82H38.83V532.7z" fill="gray"/>
  <path d="M19.95 643.3h169.83v16.66H19.95z" fill="#29aae1"/>
  <path d="M66.35 623.84h117.5l5.95 19.74H72.31l-5.95-19.74z" fill="#29aae1"/>
  <path d="M141.85 623.84H25.89l-5.95 19.6h115.94l5.95-19.6z" fill="#29aae1"/>
  <path d="M75.37 627.62h101.66l4.08 13.16H79.45z" fill="#fff"/>
  <path d="M117.19 627.62H31.85l-3.4 13.16h85.34z" fill="#fff"/>
  <use height="100%" width="100%" transform="translate(-1.5 674.358)" xlink:href="#ao"/>
  <use height="100%" width="100%" transform="translate(58.5 674.358)" xlink:href="#ap"/>
  <use height="100%" width="100%" transform="translate(150.45 674.358)" xlink:href="#aq"/>
  <use height="100%" width="100%" transform="translate(51.525 695.958)" xlink:href="#ar"/>
  <use height="100%" width="100%" transform="translate(89.475 695.958)" xlink:href="#as"/>
  <path d="M139.95 1h420v120h-420z" fill="none"/>
  <use height="100%" width="100%" transform="translate(149.117 38)" xlink:href="#at"/>
  <use height="100%" width="100%" transform="translate(277.894 38)" xlink:href="#N"/>
  <use height="100%" width="100%" transform="translate(417.672 38)" xlink:href="#O"/>
  <use height="100%" width="100%" transform="translate(179.135 75.333)" xlink:href="#au"/>
  <use height="100%" width="100%" transform="translate(278.098 75.333)" xlink:href="#av"/>
  <use height="100%" width="100%" transform="translate(375.802 75.333)" xlink:href="#aw"/>
  <use height="100%" width="100%" transform="translate(473.506 75.333)" xlink:href="#ax"/>
  <use height="100%" width="100%" transform="translate(179.765 107.333)" xlink:href="#T"/>
  <use height="100%" width="100%" transform="translate(261.098 107.333)" xlink:href="#ay"/>
  <use height="100%" width="100%" transform="translate(336.506 107.333)" xlink:href="#az"/>
  <use height="100%" width="100%" transform="translate(416.431 107.333)" xlink:href="#V"/>
  <use height="100%" width="100%" transform="translate(460.876 107.333)" xlink:href="#aA"/>
  <path d="M432.93 419.7v8.6c0 15.63-15.65 31.77-34.73 31.77H295.7c-19.08 0-34.73-16.14-34.73-31.77v-8.6z" fill="#7d7c7c"/>
  <path d="M327.15 336c17.73 0 32.7 10.67 40.1 28.4 10.13-7.64 24.06-4.82 30.94 6.44 2.58 4 3.8 8.1 3.96 12.9 17.37 1.64 30.78 20.06 30.78 34.72v3.17c0 15.7-15.65 31.67-34.74 31.67h-102.5c-19.1 0-34.74-15.96-34.74-31.67v-3.17c0-12.2 9.3-28.86 22.2-32.96v-1.4c.16-26.63 19.76-48.22 44-48.1z" fill="#d2d3d3"/>
  <path d="M363.65 438.03c-1.35 0-2.5-.53-3.46-1.58-7.34-8.06-19.16-8.06-26.5 0-1.9 2.1-5 2.1-6.9 0-1.9-2.1-1.9-5.52 0-7.62 11.13-12.27 29.17-12.27 40.3 0 1.9 2.1 1.9 5.52 0 7.6-.94 1.05-2.1 1.57-3.45 1.6z" fill="#fff"/>
  <path d="M376.93 423.42c-1.4-.03-2.5-.54-3.47-1.6-14.68-16.1-38.38-16.1-53 0-2.08 1.87-5.2 1.5-6.86-.82-1.46-1.98-1.46-4.7-.07-6.7 18.5-20.3 48.37-20.3 66.87 0 1.88 2.13 1.88 5.53-.07 7.63-.9 1.02-2.07 1.56-3.4 1.56z" fill="#fff"/>
  <path d="M391.22 408.92c-1.37 0-2.46-.52-3.44-1.58-22.53-24.87-59.12-24.87-81.64 0-1.98 2.1-5.03 2.1-6.9 0-1.97-2.1-1.97-5.52 0-7.63 26.36-29.04 69.05-29.04 95.42 0 1.96 2.12 1.96 5.53.1 7.64-1 1.06-2.17 1.58-3.55 1.58z" fill="#fff"/>
  <use height="100%" width="100%" transform="translate(316.475 474.484)" xlink:href="#aB"/>
  <path d="M278.52 520h136.93c10.63 0 10.63 0 10.63 12.1V611c0 12.1 0 12.1-10.62 12.1H278.53c-10.6 0-10.6 0-10.6-12.1v-78.9c0-12.1 0-12.1 10.6-12.1z" fill="#29aae1"/>
  <path d="M278.52 530.08h137.8V610h-137.8z" fill="#fff"/>
  <path d="M280.25 533.1h134.34v73.88H280.25z" fill="gray"/>
  <path d="M260.95 646.86h173.83V664H260.95z" fill="#29aae1"/>
  <path d="M308.45 626.85h120.24l6.1 20.3H314.53l-6.1-20.3z" fill="#29aae1"/>
  <path d="M385.71 626.85H267.05l-6.1 20.15h118.67l6.1-20.15z" fill="#29aae1"/>
  <path d="M317.67 630.74h104.06l4.17 13.53H321.85z" fill="#fff"/>
  <path d="M360.48 630.74h-87.35l-3.48 13.53H357z" fill="#fff"/>
  <g transform="translate(-300.05 -479)">
    <use height="100%" width="100%" transform="translate(541.55 1157.4)" xlink:href="#ao"/>
    <use height="100%" width="100%" transform="translate(601.55 1157.4)" xlink:href="#ap"/>
    <use height="100%" width="100%" transform="translate(693.5 1157.4)" xlink:href="#aq"/>
    <use height="100%" width="100%" transform="translate(571.075 1179)" xlink:href="#aC"/>
    <use height="100%" width="100%" transform="translate(639.075 1179)" xlink:href="#aD"/>
  </g>
  <path d="M583.17 545h13.56c12.9 0 23.28 1.98 23.28 4.5v81c0 2.52-10.38 4.5-23.28 4.5h-13.56c-12.84 0-23.22-1.98-23.22-4.5v-81c0-2.52 10.38-4.5 23.22-4.5z" fill="#29aae1"/>
  <path d="M564.15 552.2h51.66v73.53h-51.66zm17.16-4.14h16.74c.42 0 .78.27.78.54s-.36.54-.78.54h-16.74c-.42 0-.78-.27-.78-.54s.36-.54.78-.54zm2.16 82.62c0 .63-.48 1.08-1.14 1.08-.6 0-1.14-.45-1.14-1.08 0-.54.54-1.08 1.14-1.08.66 0 1.14.54 1.14 1.08zm8.28 0c0 .63-.48 1.08-1.14 1.08-.6 0-1.08-.45-1.08-1.08 0-.54.48-1.08 1.08-1.08.66 0 1.14.54 1.14 1.08zm7.86 0c0 .63-.54 1.08-1.14 1.08-.66 0-1.14-.45-1.14-1.08 0-.54.48-1.08 1.14-1.08.6 0 1.14.54 1.14 1.08z" fill="#fff"/>
  <path d="M565.59 553.46h48.72v70.92h-48.72z" fill="gray"/>
  <g transform="translate(-300.05 -479)">
    <use height="100%" width="100%" transform="translate(837.55 1128.4)" xlink:href="#G"/>
    <use height="100%" width="100%" transform="translate(890.45 1128.4)" xlink:href="#aE"/>
    <use height="100%" width="100%" transform="translate(846.525 1150)" xlink:href="#aF"/>
    <use height="100%" width="100%" transform="translate(840.55 1171.6)" xlink:href="#aG"/>
    <use height="100%" width="100%" transform="translate(906.5 1171.6)" xlink:href="#aH"/>
    <use height="100%" width="100%" transform="translate(855.55 1193.2)" xlink:href="#as"/>
  </g>
  <path d="M104.95 519.96V408.04h156" fill="none" stroke="#000" stroke-width="2"/>
  <path d="M260.95 408.04l-14.27 4.64v-9.27z"/>
  <path d="M263.05 407.67l-.34.85-17.03 5.53v-12.02zm-15.37 3.63l10.03-3.26-10.03-3.26z"/>
  <path d="M589.95 545V408.04h-157" fill="none" stroke="#000" stroke-width="2"/>
  <path d="M447.22 412.68l-14.27-4.64 14.27-4.63z"/>
  <path d="M448.22 414.05l-17.17-5.57-.32-.77 17.5-5.67zm-12.03-6l10.03 3.25v-6.52z"/>
  <path d="M347.95 520v-19.96h-1v-19.96" fill="none" stroke="#000" stroke-width="2"/>
  <path d="M351.59 494.35h-9.28l4.64-14.27z"/>
  <path d="M352.95 495.35h-12l6-18.5zm-9.26-2h6.52l-3.26-10.03z"/>
  <path d="M311.95 141h70.07v120.12h-70.07z" fill="#29aae1"/>
  <path d="M338.69 224.4h35.63c1.12 0 1.12 0 1.12 1.2 0 1.08 0 1.08-1.13 1.08h-35.63c-1.2 0-1.2 0-1.2-1.08 0-1.2 0-1.2 1.2-1.2zm.06 6.12h35.5c1.54 0 1.54 0 1.54 1.56v.36c0 1.56 0 1.56-1.54 1.56h-35.5c-1.6 0-1.6 0-1.6-1.56v-.36c0-1.56 0-1.56 1.6-1.56zm.15 7.56h35.56c1.55 0 1.55 0 1.55 1.56v.36c0 1.56 0 1.56-1.54 1.56h-35.55c-1.54 0-1.54 0-1.54-1.56v-.36c0-1.56 0-1.56 1.55-1.56zm32.41-38.76c0 3.12-2.52 5.64-5.74 5.64s-5.8-2.52-5.8-5.64c0-3.12 2.58-5.64 5.8-5.64 3.22 0 5.74 2.52 5.74 5.64z" fill="#fff"/>
  <path d="M369 199.32c0 1.92-1.54 3.48-3.5 3.48s-3.57-1.56-3.57-3.48 1.6-3.48 3.57-3.48c1.96 0 3.5 1.56 3.5 3.48z" fill="#7fcced"/>
  <use height="100%" width="100%" transform="translate(320.5 279.6)" xlink:href="#aI"/>
  <path d="M346.95 340.98V291" fill="none" stroke="#000" stroke-width="2"/>
  <path d="M347.95 341.6l-1-.62h1zm3.64-36.33h-9.28l4.64-14.27z"/>
  <path d="M352.95 306.27h-12l6-18.5zm-9.26-2h6.52l-3.26-10.03z"/>
</svg>