<svg xmlns="http://www.w3.org/2000/svg" width="100mm" height="100mm" viewBox="0 0 100 100">
  <path d="M44.245 99.904c-6.492-.771-9.437-1.34-12.884-2.489-5.823-1.94-9.828-4.86-11.574-8.44l-.909-1.862-2.771-27.2-2.772-27.202-1.132-1.21c-2.267-2.424-3.013-4.816-3.013-9.657 0-2.117.144-3.847.404-4.85C11.163 10.93 18.04 6.404 29.679 3.78c1.888-.426 2.032-.428 1.855-.028-.487 1.107-1.125 3.957-1.139 5.085-.01.764-.142 1.288-.342 1.347-8.11 2.37-11.921 4.313-13.575 6.92-1.396 2.202-.905 4.396 1.445 6.457 8.914 7.817 39.36 9.88 56.798 3.85 5.247-1.815 8.851-4.38 9.566-6.81 1.073-3.644-3.496-7.373-11.92-9.73l-2.616-.732-.174-2.065c-.096-1.136-.402-2.666-.681-3.4l-.508-1.336 2.251.49c7.719 1.675 14.968 5.24 17.568 8.641 2.167 2.834 2.603 4.404 2.603 9.375 0 5.23-.473 6.77-3.015 9.81-1.002 1.198-1.11 1.473-1.28 3.27-.104 1.079-1.35 13.31-2.769 27.179l-2.58 25.217-.835 1.695c-2.545 5.168-9.49 8.732-20.26 10.396-2.75.424-13.565.762-15.826.493zm7.158-9.881c.475-.199 1.119-.685 1.43-1.082l.568-.721V44.418l-.632-.682c-.777-.838-1.619-1.066-3.33-.901-.97.093-1.5.31-2.013.822l-.696.696-.078 21.38c-.054 14.684.01 21.683.203 22.348.528 1.82 2.66 2.73 4.548 1.942zm-17.607-3.486l.84-.707-.153-2.497c-.084-1.374-1.036-11.057-2.115-21.518-1.367-13.247-2.083-19.253-2.36-19.79-.22-.424-.889-1.19-1.487-1.701-2.02-1.729-4.597-1.466-4.944.504-.16.906 4.05 41.696 4.445 43.069.81 2.817 3.89 4.226 5.774 2.64zm35.91.35c1.086-.454 2.177-1.745 2.527-2.99.39-1.394 4.483-41.006 4.394-42.537-.06-1.036-.208-1.381-.77-1.8-1.477-1.098-4.443.223-5.623 2.504-.279.54-1.02 6.83-2.47 20.948-1.139 11.098-2.085 20.714-2.103 21.37-.017.657.125 1.444.316 1.75.68 1.088 2.197 1.396 3.73.755zm-32.524-68.74c-.504-.149-1.19-.524-1.524-.835-.601-.56-.607-.62-.523-5.538.083-4.912.094-4.99.857-6.5.976-1.926 3.08-3.872 5.049-4.667C42.493.021 42.801 0 50.131 0h7.586l1.7.81c2.162 1.029 3.787 2.654 4.815 4.814.79 1.662.81 1.802.9 6.183.099 4.84-.002 5.333-1.21 5.944-1.756.889-3.976.735-5.386-.374l-.688-.542v-4.02c0-3.874-.023-4.05-.63-4.756l-.632-.734-5.965-.08c-3.28-.044-6.237-.011-6.57.072-.332.084-.837.384-1.12.669-.468.466-.517.881-.517 4.297 0 2.161-.122 4.048-.284 4.404-.58 1.273-3.078 2.01-4.948 1.46z" fill="#a00"/>
</svg>
