<?xml version="1.0" encoding="UTF-8" standalone="no"?>
<!-- Created with Inkscape (http://www.inkscape.org/) -->

<svg
   xmlns:dc="http://purl.org/dc/elements/1.1/"
   xmlns:cc="http://creativecommons.org/ns#"
   xmlns:rdf="http://www.w3.org/1999/02/22-rdf-syntax-ns#"
   xmlns:svg="http://www.w3.org/2000/svg"
   xmlns="http://www.w3.org/2000/svg"
   xmlns:sodipodi="http://sodipodi.sourceforge.net/DTD/sodipodi-0.dtd"
   xmlns:inkscape="http://www.inkscape.org/namespaces/inkscape"
   width="100mm"
   height="100mm"
   viewBox="0 0 100 99.999997"
   version="1.1"
   id="svg8"
   inkscape:version="0.92.2 (5c3e80d, 2017-08-06)"
   sodipodi:docname="delete.svg">
  <defs
     id="defs2" />
  <sodipodi:namedview
     id="base"
     pagecolor="#ffffff"
     bordercolor="#666666"
     borderopacity="1.0"
     inkscape:pageopacity="0.0"
     inkscape:pageshadow="2"
     inkscape:zoom="0.49497475"
     inkscape:cx="156.93828"
     inkscape:cy="196.28704"
     inkscape:document-units="mm"
     inkscape:current-layer="layer1"
     showgrid="false"
     fit-margin-top="0"
     fit-margin-left="9.19015"
     fit-margin-right="9.19015"
     fit-margin-bottom="0"
     inkscape:window-width="1353"
     inkscape:window-height="803"
     inkscape:window-x="0"
     inkscape:window-y="22"
     inkscape:window-maximized="0" />
  <metadata
     id="metadata5">
    <rdf:RDF>
      <cc:Work
         rdf:about="">
        <dc:format>image/svg+xml</dc:format>
        <dc:type
           rdf:resource="http://purl.org/dc/dcmitype/StillImage" />
        <dc:title></dc:title>
      </cc:Work>
    </rdf:RDF>
  </metadata>
  <g
     inkscape:label="Layer 1"
     inkscape:groupmode="layer"
     id="layer1"
     transform="translate(-45.729795,-79.386065)">
    <path
       style="fill:#aa0000;stroke-width:0.26160163"
       d="m 89.97456,179.29006 c -6.491896,-0.77143 -9.437132,-1.34038 -12.883623,-2.48878 -5.823143,-1.94032 -9.828253,-4.86061 -11.574412,-8.43938 l -0.908757,-1.8625 -2.771272,-27.20101 -2.771272,-27.201 -1.132761,-1.21101 c -2.266312,-2.42288 -3.012518,-4.81483 -3.012518,-9.65659 0,-2.117046 0.143918,-3.847038 0.403478,-4.850066 1.569241,-6.064031 8.447227,-10.588896 20.085561,-13.213808 1.887326,-0.425667 2.031312,-0.427828 1.855253,-0.02785 -0.48747,1.107451 -1.12587,3.956503 -1.139479,5.085267 -0.0092,0.764062 -0.142335,1.288006 -0.342083,1.346377 -8.109355,2.369771 -11.921102,4.313195 -13.575102,6.921278 -1.395729,2.200836 -0.904451,4.395542 1.445128,6.455892 8.9141,7.81679 39.359739,9.88016 56.798449,3.84937 5.24625,-1.8143 8.85064,-4.38 9.56562,-6.809061 1.07258,-3.643957 -3.49559,-7.372816 -11.92004,-9.729979 l -2.61601,-0.731961 -0.17404,-2.065416 c -0.0957,-1.135978 -0.40227,-2.666141 -0.68125,-3.40036 l -0.50724,-1.334946 2.25086,0.488675 c 7.7186,1.67574 14.96761,5.241748 17.56771,8.64209 2.16715,2.83412 2.60288,4.403473 2.60288,9.374498 0,5.23087 -0.47297,6.76984 -3.01489,9.81007 -1.00161,1.19794 -1.10937,1.47309 -1.28067,3.27002 -0.10287,1.0791 -1.34848,13.30961 -2.76803,27.1789 l -2.58099,25.21689 -0.83443,1.69496 c -2.54456,5.16874 -9.48898,8.73226 -20.25917,10.39597 -2.7508,0.42493 -13.566009,0.76213 -15.8269,0.49346 z m 7.158529,-9.88134 c 0.474808,-0.19839 1.118481,-0.68514 1.430406,-1.08169 l 0.567126,-0.72098 v -21.90106 -21.90105 l -0.63171,-0.68163 c -0.776697,-0.83806 -1.61872,-1.06608 -3.329787,-0.90167 -0.970064,0.0932 -1.500538,0.30996 -2.013234,0.8226 l -0.696116,0.69604 -0.07821,21.38006 c -0.05369,14.68382 0.0099,21.6832 0.202769,22.34793 0.528249,1.81964 2.661346,2.73006 4.548754,1.94145 z m -17.607533,-3.48533 0.840008,-0.70683 -0.152877,-2.4978 c -0.08408,-1.37379 -1.035851,-11.0566 -2.115037,-21.51735 -1.366716,-13.2478 -2.083073,-19.25337 -2.360609,-19.79006 -0.219146,-0.42379 -0.887892,-1.18947 -1.486101,-1.70151 -2.019225,-1.72838 -4.596825,-1.46535 -4.943879,0.50451 -0.159584,0.90579 4.050292,41.69542 4.445091,43.06864 0.810031,2.81751 3.889297,4.22577 5.773404,2.6404 z m 35.910374,0.34998 c 1.08625,-0.45386 2.17692,-1.74481 2.52643,-2.99038 0.39129,-1.39438 4.48361,-41.00637 4.39454,-42.53739 -0.0602,-1.03536 -0.20814,-1.38094 -0.77011,-1.79909 -1.47666,-1.09878 -4.44292,0.22218 -5.62291,2.50404 -0.27888,0.53929 -1.02057,6.82985 -2.46987,20.94779 -1.13921,11.09736 -2.08546,20.71399 -2.10277,21.37025 -0.0173,0.65627 0.12482,1.44346 0.31582,1.74932 0.67967,1.08832 2.19666,1.39566 3.72887,0.75546 z M 82.911316,97.532347 c -0.50358,-0.148072 -1.189117,-0.523701 -1.523406,-0.834736 -0.601134,-0.559315 -0.606878,-0.620122 -0.523205,-5.537711 0.08358,-4.912014 0.09396,-4.990672 0.857573,-6.499109 0.975314,-1.926627 3.080391,-3.872879 5.048538,-4.667653 1.452426,-0.586513 1.760257,-0.607073 9.089786,-0.607073 h 7.586448 l 1.70042,0.809539 c 2.16146,1.029044 3.78637,2.654166 4.81425,4.814897 0.79061,1.661968 0.81097,1.801748 0.90026,6.182918 0.0987,4.840289 -0.002,5.332479 -1.20964,5.943881 -1.75619,0.88876 -3.97654,0.73434 -5.38633,-0.374601 l -0.68815,-0.54131 v -4.021243 c 0,-3.872753 -0.0233,-4.048354 -0.6309,-4.755242 l -0.6309,-0.733993 -5.965057,-0.07973 c -3.280786,-0.04385 -6.2372,-0.01142 -6.569809,0.07206 -0.332609,0.08348 -0.837188,0.384229 -1.121289,0.668331 -0.466681,0.466677 -0.516553,0.881585 -0.516553,4.297464 0,2.161358 -0.121604,4.047807 -0.283894,4.403987 -0.580009,1.272981 -3.077167,2.009457 -4.948142,1.459327 z"
       id="path826"
       inkscape:connector-curvature="0" />
  </g>
</svg>
