<svg xmlns="http://www.w3.org/2000/svg" width="160mm" height="160mm" viewBox="0 0 160 160">
  <path d="M2.639 159.887c-1.105-.29-2.417-1.687-2.624-2.796-.121-.65.476-3.796 2.133-11.233 2.011-9.189 3.719-16.556 5.592-25.305.24-1.124.5-2.045.575-2.045.265 0 32.422 32.435 32.29 32.568-.116.116-7.04 1.842-17.575 4.38-1.661.401-6.271 1.521-10.244 2.49-8.845 2.155-9.125 2.209-10.147 1.941zm14.482-50.35l82.478-82.851 32.572 32.718-82.48 82.852-32.57-32.72zm107.228-75.14l-16.226-16.301 7.821-7.81c5.913-5.903 8.163-7.981 9.221-8.517 4.69-2.372 9.55-2.358 14.066.041.94.5 3.787 3.14 9.454 8.772 4.46 4.43 8.559 8.62 9.109 9.309 1.581 1.98 2.185 3.84 2.204 6.795.015 2.374-.036 2.617-.982 4.606-.95 2-1.402 2.508-9.575 10.752-4.717 4.76-8.642 8.653-8.721 8.653-.08 0-7.447-7.335-16.37-16.3z" fill="#d37f00"/>
</svg>