<?xml version="1.0" encoding="UTF-8" standalone="no"?>
<!-- Created with Inkscape (http://www.inkscape.org/) -->

<svg
   xmlns:dc="http://purl.org/dc/elements/1.1/"
   xmlns:cc="http://creativecommons.org/ns#"
   xmlns:rdf="http://www.w3.org/1999/02/22-rdf-syntax-ns#"
   xmlns:svg="http://www.w3.org/2000/svg"
   xmlns="http://www.w3.org/2000/svg"
   xmlns:sodipodi="http://sodipodi.sourceforge.net/DTD/sodipodi-0.dtd"
   xmlns:inkscape="http://www.inkscape.org/namespaces/inkscape"
   width="150mm"
   height="150mm"
   viewBox="0 0 150 149.99999"
   version="1.1"
   id="svg8"
   inkscape:version="0.92.2 (5c3e80d, 2017-08-06)"
   sodipodi:docname="plus.svg">
  <defs
     id="defs2" />
  <sodipodi:namedview
     id="base"
     pagecolor="#ffffff"
     bordercolor="#666666"
     borderopacity="1.0"
     inkscape:pageopacity="0.0"
     inkscape:pageshadow="2"
     inkscape:zoom="0.49497475"
     inkscape:cx="323.17929"
     inkscape:cy="301.41626"
     inkscape:document-units="mm"
     inkscape:current-layer="layer1"
     showgrid="false"
     fit-margin-top="0"
     fit-margin-left="0"
     fit-margin-right="0"
     fit-margin-bottom="0"
     inkscape:window-width="1080"
     inkscape:window-height="675"
     inkscape:window-x="0"
     inkscape:window-y="0"
     inkscape:window-maximized="0" />
  <metadata
     id="metadata5">
    <rdf:RDF>
      <cc:Work
         rdf:about="">
        <dc:format>image/svg+xml</dc:format>
        <dc:type
           rdf:resource="http://purl.org/dc/dcmitype/StillImage" />
        <dc:title></dc:title>
      </cc:Work>
    </rdf:RDF>
  </metadata>
  <g
     inkscape:label="Layer 1"
     inkscape:groupmode="layer"
     id="layer1"
     transform="translate(-23.126758,-78.583038)">
    <path
       style="fill:#0087ee;stroke-width:0.25369397;fill-opacity:1"
       d="m 93.675093,228.30159 c -8.083342,-1.83932 -14.154389,-7.69065 -16.442045,-15.84699 -0.522852,-1.86417 -0.54282,-2.48712 -0.628163,-19.59692 l -0.08815,-17.67154 -17.690502,-0.0881 c -17.355999,-0.0863 -17.728642,-0.0987 -19.707442,-0.65035 -7.253329,-2.02217 -12.835543,-7.26278 -15.17864,-14.24976 -0.776446,-2.31534 -0.80799,-2.57112 -0.812959,-6.59251 -0.0048,-4.0777 0.01592,-4.24474 0.828626,-6.5925 2.470499,-7.13707 7.893354,-12.23234 15.154166,-14.23873 1.982619,-0.54785 2.402337,-0.56179 19.716249,-0.65461 l 17.690502,-0.0949 0.08815,-17.67154 c 0.08648,-17.3374 0.09879,-17.709644 0.651056,-19.686323 2.035547,-7.28566 7.183063,-12.743346 14.265051,-15.124614 2.050756,-0.689553 2.886078,-0.828909 5.585462,-0.931818 3.647876,-0.139069 5.985386,0.237298 9.025066,1.453136 6.28281,2.513061 10.92482,7.790715 12.83244,14.589611 0.56002,1.995923 0.57067,2.311855 0.66479,19.698618 l 0.0956,17.67014 17.69051,0.0986 c 17.34458,0.0967 17.73022,0.10958 19.72115,0.66182 7.49125,2.07791 13.03634,7.47809 15.3935,14.99125 0.51859,1.65294 0.59671,2.41575 0.59721,5.83183 5.1e-4,3.41972 -0.0769,4.17713 -0.59662,5.83184 -2.35721,7.506 -7.95033,12.95641 -15.39409,15.00132 -1.98474,0.54523 -2.43059,0.55999 -19.72115,0.65268 l -17.69051,0.0949 -0.0956,17.67154 c -0.0941,17.3882 -0.10478,17.70407 -0.6648,19.70001 -2.05265,7.31581 -7.14248,12.71669 -14.2438,15.11426 -2.17808,0.73536 -2.75522,0.82201 -5.965011,0.89555 -2.374282,0.0544 -4.0602,-0.0338 -5.080056,-0.26591 z"
       id="path826"
       inkscape:connector-curvature="0" />
  </g>
</svg>
