<svg xmlns="http://www.w3.org/2000/svg" width="150mm" height="150mm" viewBox="0 0 150 150">
  <path d="M70.548 149.719c-8.083-1.84-14.154-7.691-16.442-15.847-.523-1.865-.543-2.488-.628-19.597l-.088-17.672-17.69-.088c-17.357-.086-17.73-.099-19.708-.65C8.739 93.842 3.156 88.602.813 81.615.037 79.3.005 79.044 0 75.022c-.004-4.077.016-4.244.83-6.592 2.47-7.137 7.891-12.232 15.152-14.24 1.983-.548 2.403-.562 19.716-.654l17.691-.095.088-17.672c.087-17.337.099-17.71.651-19.686C56.165 8.798 61.312 3.34 68.394.959 70.445.27 71.28.13 73.98.027c3.648-.139 5.985.238 9.025 1.453 6.283 2.514 10.925 7.791 12.832 14.59.56 1.996.57 2.312.665 19.699l.096 17.67 17.69.098c17.345.097 17.73.11 19.721.662 7.492 2.078 13.037 7.478 15.394 14.992.518 1.652.596 2.415.597 5.831 0 3.42-.077 4.177-.597 5.832-2.357 7.506-7.95 12.957-15.394 15.002-1.984.545-2.43.56-19.72.652l-17.691.095-.096 17.672c-.094 17.388-.105 17.704-.665 19.7-2.052 7.315-7.142 12.716-14.244 15.114-2.178.735-2.755.822-5.965.895-2.374.055-4.06-.033-5.08-.265z" fill="#0087ee"/>
</svg>
