<svg xmlns="http://www.w3.org/2000/svg" width="410.108" height="410.108" viewBox="0 0 108.508 108.508"><path d="M44.937 108.27c-.749-.131-3.743-.965-6.655-1.854-6.267-1.913-6.682-2.401-6.161-7.26.2-1.868.12-3.979-.18-4.769-1.44-3.787-7.386-8.051-11.244-8.063-.908-.003-3.045.484-4.749 1.083-1.703.599-3.447 1.088-3.875 1.088-.86 0-5.824-7.437-7.516-11.263-1.43-3.233-.981-4.678 2.156-6.938 1.415-1.019 3.003-2.586 3.53-3.483 2.194-3.739 1.678-9.882-1.08-12.856-.762-.822-2.883-2.166-4.713-2.987-4.856-2.179-4.969-2.4-3.908-7.633.487-2.405 1.431-5.903 2.098-7.773l1.213-3.4 4.76-.065c4.151-.057 5.033-.246 6.896-1.48 2.656-1.757 5.242-5.446 6.12-8.73.571-2.135.533-2.877-.26-5.093-.512-1.426-.93-3.368-.928-4.314.002-1.528.407-1.975 3.633-4.013 1.997-1.26 5.096-2.986 6.888-3.833 3.784-1.79 4.238-1.668 7.177 1.918 1.189 1.451 2.77 2.68 3.948 3.07 4.189 1.382 10.6.371 13.378-2.11.573-.512 1.518-2.034 2.1-3.38C59.167.417 60.009-.299 62.309.095c3.855.662 10.448 2.45 12.31 3.337l1.897.905-.064 4.545c-.058 4.148.07 4.739 1.462 6.748 1.836 2.649 5.118 5.002 8.311 5.959 2.132.638 2.698.581 6.167-.622l3.819-1.324 1.82 2.168c2.83 3.371 6.94 11.529 6.565 13.028-.175.693-1.404 2.151-2.732 3.24-1.442 1.181-2.676 2.768-3.062 3.935-.945 2.863-.44 8.188 1.07 11.303 1.074 2.212 1.746 2.855 4.064 3.883 4.292 1.903 4.916 2.853 4.178 6.358-.799 3.792-3.29 11.4-4.045 12.349-.45.567-1.484.664-4.288.403-5.886-.547-9.625 1.606-12.181 7.014-1.577 3.334-1.634 5.643-.21 8.436 1.765 3.457 1.476 4.98-1.323 6.991-3.823 2.746-11.482 6.227-12.787 5.813-.62-.197-1.86-1.422-2.754-2.723-2.973-4.32-9.242-5.296-15.16-2.36-2.178 1.082-2.807 1.8-4.442 5.07-2 3.999-2.523 4.324-5.987 3.718zm17.938-26.668c9.181-2.543 16.441-9.444 19.66-18.688 1.766-5.07 1.789-13.013.053-18.065-5.899-17.168-25.23-24.985-41.139-16.634-1.824.957-4.927 3.34-6.897 5.293-11.233 11.143-11.31 29.095-.173 40.501 7.524 7.707 18.004 10.5 28.496 7.593z" fill="#eee"/></svg>